<svg width="69" height="15" viewBox="0 0 69 15" fill="none" xmlns="http://www.w3.org/2000/svg">
<path fill-rule="evenodd" clip-rule="evenodd" d="M2.669 12.886C3.53033 13.396 4.55033 13.651 5.729 13.651C7.123 13.651 8.262 13.3167 9.146 12.648C10.03 11.9793 10.591 11.0557 10.829 9.877H8.823C8.66433 10.5457 8.32433 11.0727 7.803 11.458C7.28167 11.8433 6.58467 12.036 5.712 12.036C4.522 12.036 3.58133 11.6337 2.89 10.829C2.19867 10.0243 1.853 8.91933 1.853 7.514C1.853 6.09733 2.19867 4.98667 2.89 4.182C3.58133 3.366 4.522 2.958 5.712 2.958C6.58467 2.958 7.28167 3.162 7.803 3.57C8.32433 3.978 8.66433 4.52767 8.823 5.219H10.829C10.591 3.995 10.03 3.043 9.146 2.363C8.262 1.683 7.123 1.343 5.729 1.343C4.55033 1.343 3.53033 1.60367 2.669 2.125C1.819 2.64633 1.16167 3.37167 0.697 4.301C0.232333 5.219 0 6.29 0 7.514C0 8.72667 0.232333 9.79767 0.697 10.727C1.16167 11.645 1.819 12.3647 2.669 12.886ZM15.8749 1.547L11.4889 13.447H13.3929L14.4129 10.54H19.2749L20.2949 13.447H22.1989L17.8469 1.547H15.8749ZM16.8439 3.689L18.7649 9.112H14.9229L16.8439 3.689ZM26.7314 13.617V14.926H27.8874V13.634C28.6921 13.5773 29.3664 13.3847 29.9104 13.056C30.4544 12.7273 30.8624 12.3193 31.1344 11.832C31.4064 11.3333 31.5424 10.8007 31.5424 10.234C31.5424 9.554 31.4008 8.993 31.1174 8.551C30.8454 8.109 30.4771 7.752 30.0124 7.48C29.5478 7.208 29.0208 6.97567 28.4314 6.783C28.3408 6.749 28.2501 6.72067 28.1594 6.698L27.8874 6.596V2.958C28.3408 3.08267 28.6808 3.315 28.9074 3.655C29.1454 3.98367 29.2701 4.335 29.2814 4.709H31.1854C31.1741 3.80233 30.8681 3.04867 30.2674 2.448C29.6668 1.84733 28.8734 1.49033 27.8874 1.377V0H26.7314V1.36C25.7228 1.462 24.9124 1.80767 24.3004 2.397C23.6884 2.98633 23.3881 3.74567 23.3994 4.675C23.3994 5.46833 23.6261 6.10867 24.0794 6.596C24.5441 7.08333 25.2354 7.48 26.1534 7.786C26.2554 7.82 26.3518 7.854 26.4424 7.888C26.5444 7.922 26.6408 7.95033 26.7314 7.973V12.07C26.1648 11.934 25.7284 11.6677 25.4224 11.271C25.1164 10.863 24.9578 10.3927 24.9464 9.86H23.0424C23.0538 10.9253 23.3938 11.7867 24.0624 12.444C24.7311 13.1013 25.6208 13.4923 26.7314 13.617ZM25.6604 5.576C25.3998 5.32667 25.2694 4.97533 25.2694 4.522C25.2694 4.08 25.4054 3.723 25.6774 3.451C25.9494 3.16767 26.3008 2.98633 26.7314 2.907V6.205C26.2781 6.02367 25.9211 5.814 25.6604 5.576ZM29.1454 9.095C29.4741 9.37833 29.6384 9.79767 29.6384 10.353C29.6384 10.8177 29.4854 11.2087 29.1794 11.526C28.8734 11.8433 28.4428 12.036 27.8874 12.104V8.364C28.3974 8.55667 28.8168 8.80033 29.1454 9.095ZM34.8726 13.243C35.5072 13.515 36.2099 13.651 36.9806 13.651C37.8532 13.651 38.5899 13.4867 39.1906 13.158C39.7912 12.8293 40.2446 12.393 40.5506 11.849C40.8566 11.2937 41.0096 10.6873 41.0096 10.03C41.0096 9.214 40.7886 8.551 40.3466 8.041C39.9046 7.51967 39.3436 7.18533 38.6636 7.038C39.2529 6.87933 39.7232 6.562 40.0746 6.086C40.4259 5.61 40.6016 5.05467 40.6016 4.42C40.6016 3.86467 40.4599 3.35467 40.1766 2.89C39.9046 2.414 39.4966 2.04 38.9526 1.768C38.4199 1.48467 37.7569 1.343 36.9636 1.343C36.2269 1.343 35.5752 1.48467 35.0086 1.768C34.4419 2.05133 33.9942 2.448 33.6656 2.958C33.3482 3.468 33.1782 4.06867 33.1556 4.76H34.9406C34.9746 4.22733 35.1672 3.78533 35.5186 3.434C35.8699 3.07133 36.3516 2.89 36.9636 2.89C37.5529 2.89 38.0062 3.043 38.3236 3.349C38.6522 3.655 38.8166 4.05167 38.8166 4.539C38.8166 5.117 38.6069 5.56467 38.1876 5.882C37.7796 6.19933 37.2412 6.358 36.5726 6.358H35.6716V7.854H36.5556C37.3036 7.854 37.9326 8.02967 38.4426 8.381C38.9639 8.73233 39.2246 9.27067 39.2246 9.996C39.2246 10.5967 39.0319 11.101 38.6466 11.509C38.2612 11.9057 37.7059 12.104 36.9806 12.104C36.2212 12.104 35.6319 11.8887 35.2126 11.458C34.8046 11.016 34.5892 10.4777 34.5666 9.843H32.7816C32.8042 10.693 33.0026 11.4013 33.3766 11.968C33.7506 12.5347 34.2492 12.9597 34.8726 13.243ZM42.6551 12.155V13.447H50.6791V11.951H45.2391C45.7718 11.5203 46.3328 11.0387 46.9221 10.506C47.5115 9.97333 48.0611 9.40667 48.5711 8.806C49.0925 8.194 49.5118 7.55933 49.8291 6.902C50.1578 6.24467 50.3221 5.58167 50.3221 4.913C50.3221 3.791 49.9821 2.91833 49.3021 2.295C48.6335 1.66033 47.7381 1.343 46.6161 1.343C45.8795 1.343 45.2165 1.49033 44.6271 1.785C44.0491 2.07967 43.5845 2.51033 43.2331 3.077C42.8931 3.64367 42.7175 4.34633 42.7061 5.185H44.4571C44.4458 4.55033 44.6158 4.00633 44.9671 3.553C45.3298 3.09967 45.8681 2.873 46.5821 2.873C47.0581 2.873 47.4378 2.975 47.7211 3.179C48.0045 3.37167 48.2085 3.63233 48.3331 3.961C48.4578 4.27833 48.5201 4.61833 48.5201 4.981C48.5201 5.525 48.3615 6.09167 48.0441 6.681C47.7268 7.259 47.2905 7.854 46.7351 8.466C46.1911 9.06667 45.5678 9.67867 44.8651 10.302C44.1625 10.9253 43.4258 11.543 42.6551 12.155ZM64.3371 1.21076C64.2392 1.07731 64.1012 0.978579 63.9433 0.928924V0.929702C63.7856 0.879925 63.6161 0.881744 63.4594 0.934894C63.3028 0.988045 63.1671 1.08976 63.0722 1.22526L57.6278 9.00304C57.5463 9.11964 57.4983 9.25636 57.4891 9.39834C57.4799 9.54031 57.5098 9.68209 57.5755 9.80824C57.6413 9.9344 57.7404 10.0401 57.8621 10.1138C57.9837 10.1876 58.1233 10.2266 58.2656 10.2265H61.3767V14.1154C61.3766 14.2809 61.4293 14.4422 61.5272 14.5757C61.625 14.7092 61.763 14.808 61.9209 14.8578C62.0788 14.9075 62.2484 14.9055 62.4052 14.8521C62.5619 14.7988 62.6975 14.6968 62.7922 14.561L68.2367 6.78326C68.3182 6.66666 68.3662 6.52994 68.3754 6.38797C68.3846 6.246 68.3547 6.10422 68.2889 5.97806C68.2232 5.8519 68.1241 5.7462 68.0024 5.67246C67.8807 5.59871 67.7412 5.55975 67.5989 5.55982H64.4878V1.67092C64.4878 1.50541 64.435 1.3442 64.3371 1.21076Z" fill="white"/>
<path fill-rule="evenodd" clip-rule="evenodd" d="M2.669 12.886C3.53033 13.396 4.55033 13.651 5.729 13.651C7.123 13.651 8.262 13.3167 9.146 12.648C10.03 11.9793 10.591 11.0557 10.829 9.877H8.823C8.66433 10.5457 8.32433 11.0727 7.803 11.458C7.28167 11.8433 6.58467 12.036 5.712 12.036C4.522 12.036 3.58133 11.6337 2.89 10.829C2.19867 10.0243 1.853 8.91933 1.853 7.514C1.853 6.09733 2.19867 4.98667 2.89 4.182C3.58133 3.366 4.522 2.958 5.712 2.958C6.58467 2.958 7.28167 3.162 7.803 3.57C8.32433 3.978 8.66433 4.52767 8.823 5.219H10.829C10.591 3.995 10.03 3.043 9.146 2.363C8.262 1.683 7.123 1.343 5.729 1.343C4.55033 1.343 3.53033 1.60367 2.669 2.125C1.819 2.64633 1.16167 3.37167 0.697 4.301C0.232333 5.219 0 6.29 0 7.514C0 8.72667 0.232333 9.79767 0.697 10.727C1.16167 11.645 1.819 12.3647 2.669 12.886ZM15.8749 1.547L11.4889 13.447H13.3929L14.4129 10.54H19.2749L20.2949 13.447H22.1989L17.8469 1.547H15.8749ZM16.8439 3.689L18.7649 9.112H14.9229L16.8439 3.689ZM26.7314 13.617V14.926H27.8874V13.634C28.6921 13.5773 29.3664 13.3847 29.9104 13.056C30.4544 12.7273 30.8624 12.3193 31.1344 11.832C31.4064 11.3333 31.5424 10.8007 31.5424 10.234C31.5424 9.554 31.4008 8.993 31.1174 8.551C30.8454 8.109 30.4771 7.752 30.0124 7.48C29.5478 7.208 29.0208 6.97567 28.4314 6.783C28.3408 6.749 28.2501 6.72067 28.1594 6.698L27.8874 6.596V2.958C28.3408 3.08267 28.6808 3.315 28.9074 3.655C29.1454 3.98367 29.2701 4.335 29.2814 4.709H31.1854C31.1741 3.80233 30.8681 3.04867 30.2674 2.448C29.6668 1.84733 28.8734 1.49033 27.8874 1.377V0H26.7314V1.36C25.7228 1.462 24.9124 1.80767 24.3004 2.397C23.6884 2.98633 23.3881 3.74567 23.3994 4.675C23.3994 5.46833 23.6261 6.10867 24.0794 6.596C24.5441 7.08333 25.2354 7.48 26.1534 7.786C26.2554 7.82 26.3518 7.854 26.4424 7.888C26.5444 7.922 26.6408 7.95033 26.7314 7.973V12.07C26.1648 11.934 25.7284 11.6677 25.4224 11.271C25.1164 10.863 24.9578 10.3927 24.9464 9.86H23.0424C23.0538 10.9253 23.3938 11.7867 24.0624 12.444C24.7311 13.1013 25.6208 13.4923 26.7314 13.617ZM25.6604 5.576C25.3998 5.32667 25.2694 4.97533 25.2694 4.522C25.2694 4.08 25.4054 3.723 25.6774 3.451C25.9494 3.16767 26.3008 2.98633 26.7314 2.907V6.205C26.2781 6.02367 25.9211 5.814 25.6604 5.576ZM29.1454 9.095C29.4741 9.37833 29.6384 9.79767 29.6384 10.353C29.6384 10.8177 29.4854 11.2087 29.1794 11.526C28.8734 11.8433 28.4428 12.036 27.8874 12.104V8.364C28.3974 8.55667 28.8168 8.80033 29.1454 9.095ZM34.8726 13.243C35.5072 13.515 36.2099 13.651 36.9806 13.651C37.8532 13.651 38.5899 13.4867 39.1906 13.158C39.7912 12.8293 40.2446 12.393 40.5506 11.849C40.8566 11.2937 41.0096 10.6873 41.0096 10.03C41.0096 9.214 40.7886 8.551 40.3466 8.041C39.9046 7.51967 39.3436 7.18533 38.6636 7.038C39.2529 6.87933 39.7232 6.562 40.0746 6.086C40.4259 5.61 40.6016 5.05467 40.6016 4.42C40.6016 3.86467 40.4599 3.35467 40.1766 2.89C39.9046 2.414 39.4966 2.04 38.9526 1.768C38.4199 1.48467 37.7569 1.343 36.9636 1.343C36.2269 1.343 35.5752 1.48467 35.0086 1.768C34.4419 2.05133 33.9942 2.448 33.6656 2.958C33.3482 3.468 33.1782 4.06867 33.1556 4.76H34.9406C34.9746 4.22733 35.1672 3.78533 35.5186 3.434C35.8699 3.07133 36.3516 2.89 36.9636 2.89C37.5529 2.89 38.0062 3.043 38.3236 3.349C38.6522 3.655 38.8166 4.05167 38.8166 4.539C38.8166 5.117 38.6069 5.56467 38.1876 5.882C37.7796 6.19933 37.2412 6.358 36.5726 6.358H35.6716V7.854H36.5556C37.3036 7.854 37.9326 8.02967 38.4426 8.381C38.9639 8.73233 39.2246 9.27067 39.2246 9.996C39.2246 10.5967 39.0319 11.101 38.6466 11.509C38.2612 11.9057 37.7059 12.104 36.9806 12.104C36.2212 12.104 35.6319 11.8887 35.2126 11.458C34.8046 11.016 34.5892 10.4777 34.5666 9.843H32.7816C32.8042 10.693 33.0026 11.4013 33.3766 11.968C33.7506 12.5347 34.2492 12.9597 34.8726 13.243ZM42.6551 12.155V13.447H50.6791V11.951H45.2391C45.7718 11.5203 46.3328 11.0387 46.9221 10.506C47.5115 9.97333 48.0611 9.40667 48.5711 8.806C49.0925 8.194 49.5118 7.55933 49.8291 6.902C50.1578 6.24467 50.3221 5.58167 50.3221 4.913C50.3221 3.791 49.9821 2.91833 49.3021 2.295C48.6335 1.66033 47.7381 1.343 46.6161 1.343C45.8795 1.343 45.2165 1.49033 44.6271 1.785C44.0491 2.07967 43.5845 2.51033 43.2331 3.077C42.8931 3.64367 42.7175 4.34633 42.7061 5.185H44.4571C44.4458 4.55033 44.6158 4.00633 44.9671 3.553C45.3298 3.09967 45.8681 2.873 46.5821 2.873C47.0581 2.873 47.4378 2.975 47.7211 3.179C48.0045 3.37167 48.2085 3.63233 48.3331 3.961C48.4578 4.27833 48.5201 4.61833 48.5201 4.981C48.5201 5.525 48.3615 6.09167 48.0441 6.681C47.7268 7.259 47.2905 7.854 46.7351 8.466C46.1911 9.06667 45.5678 9.67867 44.8651 10.302C44.1625 10.9253 43.4258 11.543 42.6551 12.155ZM64.3371 1.21076C64.2392 1.07731 64.1012 0.978579 63.9433 0.928924V0.929702C63.7856 0.879925 63.6161 0.881744 63.4594 0.934894C63.3028 0.988045 63.1671 1.08976 63.0722 1.22526L57.6278 9.00304C57.5463 9.11964 57.4983 9.25636 57.4891 9.39834C57.4799 9.54031 57.5098 9.68209 57.5755 9.80824C57.6413 9.9344 57.7404 10.0401 57.8621 10.1138C57.9837 10.1876 58.1233 10.2266 58.2656 10.2265H61.3767V14.1154C61.3766 14.2809 61.4293 14.4422 61.5272 14.5757C61.625 14.7092 61.763 14.808 61.9209 14.8578C62.0788 14.9075 62.2484 14.9055 62.4052 14.8521C62.5619 14.7988 62.6975 14.6968 62.7922 14.561L68.2367 6.78326C68.3182 6.66666 68.3662 6.52994 68.3754 6.38797C68.3846 6.246 68.3547 6.10422 68.2889 5.97806C68.2232 5.8519 68.1241 5.7462 68.0024 5.67246C67.8807 5.59871 67.7412 5.55975 67.5989 5.55982H64.4878V1.67092C64.4878 1.50541 64.435 1.3442 64.3371 1.21076Z" fill="url(#paint0_linear_1_189)"/>
<defs>
<linearGradient id="paint0_linear_1_189" x1="4.51758" y1="10.8019" x2="81.1444" y2="-18.3876" gradientUnits="userSpaceOnUse">
<stop stop-color="#20D691"/>
<stop offset="1" stop-color="#7AE5B5"/>
</linearGradient>
</defs>
</svg>
