<svg width="81" height="16" viewBox="0 0 81 16" fill="none" xmlns="http://www.w3.org/2000/svg">
<path fill-rule="evenodd" clip-rule="evenodd" d="M76.2217 0.483163C76.1088 0.258281 75.9058 0.0929168 75.6634 0.0290399C75.421 -0.0357121 75.162 0.00719324 74.9529 0.146322C74.6501 0.348454 74.4156 0.634538 74.2336 0.916297C74.0463 1.20593 73.881 1.54022 73.7348 1.89285C73.4426 2.59637 73.1976 3.43991 73.0007 4.28518C72.7504 5.35796 72.5649 6.48939 72.4634 7.41779C72.0399 7.13166 71.794 6.81138 71.6365 6.48412C71.3495 5.88823 71.2883 5.14184 71.2883 4.16181C71.2883 3.8083 71.0756 3.48889 70.7484 3.35413C70.4211 3.2185 70.0448 3.29288 69.7946 3.54314C68.5993 4.7393 68.0008 6.30824 68.0008 7.87453C68.0008 9.44083 68.5993 11.0098 69.7946 12.2059C72.1869 14.5974 76.065 14.5974 78.4573 12.2059C79.6526 11.0098 80.2512 9.44083 80.2512 7.87453C80.2512 6.30824 79.6526 4.7393 78.4573 3.54314C77.9393 3.026 77.5998 2.68126 77.2778 2.25949C76.9602 1.84298 76.6443 1.32931 76.2217 0.483163ZM72.27 11.4805C73.2947 12.506 74.9572 12.506 75.9819 11.4805C76.4947 10.9686 76.751 10.2966 76.751 9.62459C76.751 8.95257 76.4947 8.28057 75.9819 7.76868C75.47 7.25591 75.2197 6.99951 74.7822 6.12448C74.126 6.56199 73.6885 9.18707 73.6885 10.0621C72.27 10.0621 71.5009 9.62459 71.5009 9.62459C71.5009 10.2966 71.7573 10.9686 72.27 11.4805ZM3.45025 13.439C4.31158 13.949 5.33158 14.204 6.51025 14.204C7.90425 14.204 9.04325 13.8697 9.92725 13.201C10.8113 12.5323 11.3723 11.6087 11.6103 10.43H9.60425C9.44558 11.0987 9.10558 11.6257 8.58425 12.011C8.06292 12.3963 7.36592 12.589 6.49325 12.589C5.30325 12.589 4.36258 12.1867 3.67125 11.382C2.97992 10.5773 2.63425 9.47233 2.63425 8.067C2.63425 6.65033 2.97992 5.53967 3.67125 4.735C4.36258 3.919 5.30325 3.511 6.49325 3.511C7.36592 3.511 8.06292 3.715 8.58425 4.123C9.10558 4.531 9.44558 5.08067 9.60425 5.772H11.6103C11.3723 4.548 10.8113 3.596 9.92725 2.916C9.04325 2.236 7.90425 1.896 6.51025 1.896C5.33158 1.896 4.31158 2.15667 3.45025 2.678C2.60025 3.19933 1.94292 3.92467 1.47825 4.854C1.01358 5.772 0.78125 6.843 0.78125 8.067C0.78125 9.27967 1.01358 10.3507 1.47825 11.28C1.94292 12.198 2.60025 12.9177 3.45025 13.439ZM16.6562 2.1L12.2702 14H14.1742L15.1942 11.093H20.0562L21.0762 14H22.9802L18.6282 2.1H16.6562ZM17.6252 4.242L19.5462 9.665H15.7042L17.6252 4.242ZM27.5127 14.17V15.479H28.6687V14.187C29.4734 14.1303 30.1477 13.9377 30.6917 13.609C31.2357 13.2803 31.6437 12.8723 31.9157 12.385C32.1877 11.8863 32.3237 11.3537 32.3237 10.787C32.3237 10.107 32.182 9.546 31.8987 9.104C31.6267 8.662 31.2584 8.305 30.7937 8.033C30.329 7.761 29.802 7.52867 29.2127 7.336C29.122 7.302 29.0314 7.27367 28.9407 7.251L28.6687 7.149V3.511C29.122 3.63567 29.462 3.868 29.6887 4.208C29.9267 4.53667 30.0514 4.888 30.0627 5.262H31.9667C31.9554 4.35533 31.6494 3.60167 31.0487 3.001C30.448 2.40033 29.6547 2.04333 28.6687 1.93V0.553H27.5127V1.913C26.504 2.015 25.6937 2.36067 25.0817 2.95C24.4697 3.53933 24.1694 4.29867 24.1807 5.228C24.1807 6.02133 24.4074 6.66167 24.8607 7.149C25.3254 7.63633 26.0167 8.033 26.9347 8.339C27.0367 8.373 27.133 8.407 27.2237 8.441C27.3257 8.475 27.422 8.50333 27.5127 8.526V12.623C26.946 12.487 26.5097 12.2207 26.2037 11.824C25.8977 11.416 25.739 10.9457 25.7277 10.413H23.8237C23.835 11.4783 24.175 12.3397 24.8437 12.997C25.5124 13.6543 26.402 14.0453 27.5127 14.17ZM26.4417 6.129C26.181 5.87967 26.0507 5.52833 26.0507 5.075C26.0507 4.633 26.1867 4.276 26.4587 4.004C26.7307 3.72067 27.082 3.53933 27.5127 3.46V6.758C27.0594 6.57667 26.7024 6.367 26.4417 6.129ZM29.9267 9.648C30.2554 9.93133 30.4197 10.3507 30.4197 10.906C30.4197 11.3707 30.2667 11.7617 29.9607 12.079C29.6547 12.3963 29.224 12.589 28.6687 12.657V8.917C29.1787 9.10967 29.598 9.35333 29.9267 9.648ZM33.7158 12.708V14H41.7398V12.504H36.2998C36.8325 12.0733 37.3935 11.5917 37.9828 11.059C38.5722 10.5263 39.1218 9.95967 39.6318 9.359C40.1532 8.747 40.5725 8.11233 40.8898 7.455C41.2185 6.79767 41.3828 6.13467 41.3828 5.466C41.3828 4.344 41.0428 3.47133 40.3628 2.848C39.6942 2.21333 38.7988 1.896 37.6768 1.896C36.9402 1.896 36.2772 2.04333 35.6878 2.338C35.1098 2.63267 34.6452 3.06333 34.2938 3.63C33.9538 4.19667 33.7782 4.89933 33.7668 5.738H35.5178C35.5065 5.10333 35.6765 4.55933 36.0278 4.106C36.3905 3.65267 36.9288 3.426 37.6428 3.426C38.1188 3.426 38.4985 3.528 38.7818 3.732C39.0652 3.92467 39.2692 4.18533 39.3938 4.514C39.5185 4.83133 39.5808 5.17133 39.5808 5.534C39.5808 6.078 39.4222 6.64467 39.1048 7.234C38.7875 7.812 38.3512 8.407 37.7958 9.019C37.2518 9.61967 36.6285 10.2317 35.9258 10.855C35.2232 11.4783 34.4865 12.096 33.7158 12.708ZM45.3143 13.762C45.9263 14.0567 46.6517 14.204 47.4903 14.204C48.3517 14.204 49.094 14.017 49.7173 13.643C50.352 13.2577 50.8393 12.742 51.1793 12.096C51.5193 11.45 51.6893 10.7303 51.6893 9.937C51.6893 9.17767 51.5307 8.48633 51.2133 7.863C50.9073 7.23967 50.4653 6.74667 49.8873 6.384C49.3093 6.01 48.618 5.823 47.8133 5.823C47.2353 5.823 46.714 5.925 46.2493 6.129C45.796 6.32167 45.439 6.56533 45.1783 6.86L45.7903 3.681H50.8563V2.1H44.4303L43.4103 8.764H45.1273C45.32 8.34467 45.626 7.999 46.0453 7.727C46.4647 7.44367 46.969 7.302 47.5583 7.302C48.2497 7.302 48.822 7.54567 49.2753 8.033C49.7287 8.509 49.9553 9.14933 49.9553 9.954C49.9553 10.464 49.8533 10.923 49.6493 11.331C49.4453 11.739 49.162 12.0677 48.7993 12.317C48.4367 12.555 48.006 12.674 47.5073 12.674C46.8387 12.674 46.2777 12.4927 45.8243 12.13C45.371 11.756 45.0877 11.2857 44.9743 10.719H43.2063C43.2857 11.3877 43.501 11.9883 43.8523 12.521C44.215 13.0423 44.7023 13.456 45.3143 13.762ZM55.1779 13.796C55.8126 14.068 56.5153 14.204 57.2859 14.204C58.1586 14.204 58.8953 14.0397 59.4959 13.711C60.0966 13.3823 60.5499 12.946 60.8559 12.402C61.1619 11.8467 61.3149 11.2403 61.3149 10.583C61.3149 9.767 61.0939 9.104 60.6519 8.594C60.2099 8.07267 59.6489 7.73833 58.9689 7.591C59.5583 7.43233 60.0286 7.115 60.3799 6.639C60.7313 6.163 60.9069 5.60767 60.9069 4.973C60.9069 4.41767 60.7653 3.90767 60.4819 3.443C60.2099 2.967 59.8019 2.593 59.2579 2.321C58.7253 2.03767 58.0623 1.896 57.2689 1.896C56.5323 1.896 55.8806 2.03767 55.3139 2.321C54.7473 2.60433 54.2996 3.001 53.9709 3.511C53.6536 4.021 53.4836 4.62167 53.4609 5.313H55.2459C55.2799 4.78033 55.4726 4.33833 55.8239 3.987C56.1753 3.62433 56.6569 3.443 57.2689 3.443C57.8583 3.443 58.3116 3.596 58.6289 3.902C58.9576 4.208 59.1219 4.60467 59.1219 5.092C59.1219 5.67 58.9123 6.11767 58.4929 6.435C58.0849 6.75233 57.5466 6.911 56.8779 6.911H55.9769V8.407H56.8609C57.6089 8.407 58.2379 8.58267 58.7479 8.934C59.2693 9.28533 59.5299 9.82367 59.5299 10.549C59.5299 11.1497 59.3373 11.654 58.9519 12.062C58.5666 12.4587 58.0113 12.657 57.2859 12.657C56.5266 12.657 55.9373 12.4417 55.5179 12.011C55.1099 11.569 54.8946 11.0307 54.8719 10.396H53.0869C53.1096 11.246 53.3079 11.9543 53.6819 12.521C54.0559 13.0877 54.5546 13.5127 55.1779 13.796Z" fill="white" fill-opacity="0.6"/>
</svg>
