<svg width="347" height="41" viewBox="0 0 347 41" fill="none" xmlns="http://www.w3.org/2000/svg">
<rect width="347" height="41" rx="8" fill="#0F0F0F"/>
<path fill-rule="evenodd" clip-rule="evenodd" d="M3 7C3 4.79086 4.79086 3 7 3H18.9415C21.1507 3 22.9415 4.79086 22.9415 7V34C22.9415 36.2091 21.1507 38 18.9415 38H7C4.79086 38 3 36.2091 3 34V7ZM25.9327 7C25.9327 4.79086 27.7236 3 29.9327 3H41.8743C44.0834 3 45.8743 4.79086 45.8743 7V34C45.8743 36.2091 44.0834 38 41.8743 38H29.9327C27.7236 38 25.9327 36.2091 25.9327 34V7ZM52.8655 3C50.6564 3 48.8655 4.79086 48.8655 7V34C48.8655 36.2091 50.6564 38 52.8655 38H64.807C67.0162 38 68.807 36.2091 68.807 34V7C68.807 4.79086 67.0162 3 64.807 3H52.8655ZM71.7982 7C71.7982 4.79086 73.5891 3 75.7982 3H87.7398C89.9489 3 91.7398 4.79086 91.7398 7V34C91.7398 36.2091 89.9489 38 87.7398 38H75.7982C73.5891 38 71.7982 36.2091 71.7982 34V7ZM98.731 3C96.5219 3 94.731 4.79086 94.731 7V34C94.731 36.2091 96.5219 38 98.731 38H110.673C112.882 38 114.673 36.2091 114.673 34V7C114.673 4.79086 112.882 3 110.673 3H98.731ZM117.664 7C117.664 4.79086 119.455 3 121.664 3H133.605C135.814 3 137.605 4.79086 137.605 7V34C137.605 36.2091 135.814 38 133.605 38H121.664C119.455 38 117.664 36.2091 117.664 34V7ZM144.596 3C142.387 3 140.596 4.79086 140.596 7V34C140.596 36.2091 142.387 38 144.596 38H156.538C158.747 38 160.538 36.2091 160.538 34V7C160.538 4.79086 158.747 3 156.538 3H144.596ZM163.529 7C163.529 4.79086 165.32 3 167.529 3H179.471C181.68 3 183.471 4.79086 183.471 7V34C183.471 36.2091 181.68 38 179.471 38H167.529C165.32 38 163.529 36.2091 163.529 34V7ZM190.462 3C188.253 3 186.462 4.79086 186.462 7V34C186.462 36.2091 188.253 38 190.462 38H202.404C204.613 38 206.404 36.2091 206.404 34V7C206.404 4.79086 204.613 3 202.404 3H190.462ZM209.395 7C209.395 4.79086 211.186 3 213.395 3H225.336C227.545 3 229.336 4.79086 229.336 7V34C229.336 36.2091 227.545 38 225.336 38H213.395C211.186 38 209.395 36.2091 209.395 34V7ZM236.327 3C234.118 3 232.327 4.79086 232.327 7V34C232.327 36.2091 234.118 38 236.327 38H248.269C250.478 38 252.269 36.2091 252.269 34V7C252.269 4.79086 250.478 3 248.269 3H236.327ZM255.26 7C255.26 4.79086 257.051 3 259.26 3H271.202C273.411 3 275.202 4.79086 275.202 7V34C275.202 36.2091 273.411 38 271.202 38H259.26C257.051 38 255.26 36.2091 255.26 34V7ZM282.193 3C279.984 3 278.193 4.79086 278.193 7V34C278.193 36.2091 279.984 38 282.193 38H294.135C296.344 38 298.135 36.2091 298.135 34V7C298.135 4.79086 296.344 3 294.135 3H282.193ZM301.126 7C301.126 4.79086 302.917 3 305.126 3H317.067C319.276 3 321.067 4.79086 321.067 7V34C321.067 36.2091 319.276 38 317.067 38H305.126C302.917 38 301.126 36.2091 301.126 34V7ZM328.058 3C325.849 3 324.058 4.79086 324.058 7V34C324.058 36.2091 325.849 38 328.058 38H340C342.209 38 344 36.2091 344 34V7C344 4.79086 342.209 3 340 3H328.058Z" fill="url(#paint0_linear_1_166)"/>
<defs>
<linearGradient id="paint0_linear_1_166" x1="299" y1="19.9992" x2="3.00396" y2="21.0818" gradientUnits="userSpaceOnUse">
<stop stop-color="white" stop-opacity="0.6"/>
<stop offset="1" stop-color="white" stop-opacity="0.3"/>
</linearGradient>
</defs>
</svg>
