<svg width="22" height="5" viewBox="0 0 22 5" fill="none" xmlns="http://www.w3.org/2000/svg">
<path d="M2.25 2.25H2.2625M11 2.25H11.0125M19.75 2.25H19.7625M3.5 2.25C3.5 2.58152 3.3683 2.89946 3.13388 3.13388C2.89946 3.3683 2.58152 3.5 2.25 3.5C1.91848 3.5 1.60054 3.3683 1.36612 3.13388C1.1317 2.89946 1 2.58152 1 2.25C1 1.91848 1.1317 1.60054 1.36612 1.36612C1.60054 1.1317 1.91848 1 2.25 1C2.58152 1 2.89946 1.1317 3.13388 1.36612C3.3683 1.60054 3.5 1.91848 3.5 2.25ZM12.25 2.25C12.25 2.58152 12.1183 2.89946 11.8839 3.13388C11.6495 3.3683 11.3315 3.5 11 3.5C10.6685 3.5 10.3505 3.3683 10.1161 3.13388C9.8817 2.89946 9.75 2.58152 9.75 2.25C9.75 1.91848 9.8817 1.60054 10.1161 1.36612C10.3505 1.1317 10.6685 1 11 1C11.3315 1 11.6495 1.1317 11.8839 1.36612C12.1183 1.60054 12.25 1.91848 12.25 2.25ZM21 2.25C21 2.58152 20.8683 2.89946 20.6339 3.13388C20.3995 3.3683 20.0815 3.5 19.75 3.5C19.4185 3.5 19.1005 3.3683 18.8661 3.13388C18.6317 2.89946 18.5 2.58152 18.5 2.25C18.5 1.91848 18.6317 1.60054 18.8661 1.36612C19.1005 1.1317 19.4185 1 19.75 1C20.0815 1 20.3995 1.1317 20.6339 1.36612C20.8683 1.60054 21 1.91848 21 2.25Z" stroke="white" stroke-opacity="0.3" stroke-width="2" stroke-linecap="round" stroke-linejoin="round"/>
</svg>
