<svg width="50" height="50" viewBox="0 0 50 50" fill="none" xmlns="http://www.w3.org/2000/svg">
<path d="M12.5 44.4444L19.4444 33.3333H15.2778V25L8.33333 36.1111H12.5V44.4444ZM5.55556 19.4444H22.2222V5.55556H5.55556V19.4444ZM5.55556 44.4444H22.2222V25H5.55556V44.4444ZM0 50V5.55556C0 4.02778 0.544444 2.71944 1.63333 1.63056C2.72037 0.543518 4.02778 0 5.55556 0H22.2222C23.75 0 25.0583 0.543518 26.1472 1.63056C27.2343 2.71944 27.7778 4.02778 27.7778 5.55556V25H31.25C32.5926 25 33.7389 25.4741 34.6889 26.4222C35.637 27.3722 36.1111 28.5185 36.1111 29.8611V42.7083C36.1111 43.4954 36.4352 44.213 37.0833 44.8611C37.7315 45.5093 38.4491 45.8333 39.2361 45.8333C40.0694 45.8333 40.7991 45.5093 41.425 44.8611C42.0491 44.213 42.3611 43.4954 42.3611 42.7083V16.6667H41.6667C40.8796 16.6667 40.2204 16.4 39.6889 15.8667C39.1556 15.3352 38.8889 14.6759 38.8889 13.8889V8.33333H40.2778V4.16667H43.0556V8.33333H45.8333V4.16667H48.6111V8.33333H50V13.8889C50 14.6759 49.7333 15.3352 49.2 15.8667C48.6685 16.4 48.0093 16.6667 47.2222 16.6667H46.5278V42.7083C46.5278 44.6528 45.8222 46.3537 44.4111 47.8111C42.9981 49.2704 41.2731 50 39.2361 50C37.2454 50 35.5324 49.2704 34.0972 47.8111C32.662 46.3537 31.9444 44.6528 31.9444 42.7083V29.8611C31.9444 29.6296 31.887 29.4556 31.7722 29.3389C31.6556 29.2241 31.4815 29.1667 31.25 29.1667H27.7778V50H0ZM22.2222 44.4444H5.55556H22.2222Z" fill="url(#paint0_linear_1_1288)"/>
<defs>
<linearGradient id="paint0_linear_1_1288" x1="-8.94365e-07" y1="25" x2="49.5555" y2="20.3066" gradientUnits="userSpaceOnUse">
<stop stop-color="#20D691"/>
<stop offset="1" stop-color="#7AE5B5"/>
</linearGradient>
</defs>
</svg>
