<svg width="206" height="324" viewBox="0 0 206 324" fill="none" xmlns="http://www.w3.org/2000/svg">
<rect width="206" height="324" rx="20" fill="#0F0F0F"/>
<path fill-rule="evenodd" clip-rule="evenodd" d="M39.296 56.4304C39.1631 56.2492 38.9759 56.1153 38.7616 56.0479V56.0489C38.5475 55.9814 38.3174 55.9838 38.1048 56.056C37.8922 56.1281 37.7082 56.2661 37.5794 56.45L30.1905 67.0056C30.0798 67.1638 30.0147 67.3494 30.0022 67.5421C29.9897 67.7347 30.0303 67.9272 30.1195 68.0984C30.2088 68.2696 30.3433 68.413 30.5084 68.5131C30.6735 68.6132 30.8629 68.6661 31.056 68.666H35.2783V73.9438C35.2781 74.1684 35.3497 74.3873 35.4825 74.5685C35.6153 74.7497 35.8025 74.8838 36.0168 74.9513C36.2311 75.0188 36.4614 75.0161 36.6741 74.9437C36.8867 74.8712 37.0708 74.7328 37.1994 74.5486L44.5883 63.993C44.6989 63.8348 44.764 63.6492 44.7765 63.4566C44.789 63.2639 44.7484 63.0715 44.6592 62.9003C44.5699 62.7291 44.4354 62.5856 44.2703 62.4855C44.1052 62.3854 43.9158 62.3326 43.7227 62.3326H39.5005V57.0549C39.5005 56.8302 39.4288 56.6115 39.296 56.4304ZM54.848 73.208C56.032 73.928 57.416 74.288 59 74.288C60.36 74.288 61.464 74.048 62.312 73.568C63.16 73.088 63.864 72.408 64.424 71.528L64.64 74H66.968V64.88H59.84V66.848H64.4C64.256 68.416 63.76 69.672 62.912 70.616C62.08 71.56 60.832 72.032 59.168 72.032C57.52 72.032 56.2 71.472 55.208 70.352C54.216 69.232 53.72 67.672 53.72 65.672C53.72 63.672 54.224 62.104 55.232 60.968C56.24 59.832 57.624 59.264 59.384 59.264C60.568 59.264 61.536 59.52 62.288 60.032C63.04 60.544 63.544 61.248 63.8 62.144H66.68C66.296 60.512 65.464 59.232 64.184 58.304C62.904 57.376 61.304 56.912 59.384 56.912C57.688 56.912 56.216 57.288 54.968 58.04C53.736 58.776 52.784 59.8 52.112 61.112C51.44 62.424 51.104 63.936 51.104 65.648C51.104 67.376 51.432 68.888 52.088 70.184C52.744 71.48 53.664 72.488 54.848 73.208ZM71.9756 73.52C72.8876 74.032 73.9116 74.288 75.0476 74.288C76.1836 74.288 77.2076 74.032 78.1196 73.52C79.0316 72.992 79.7516 72.264 80.2796 71.336C80.8236 70.392 81.0956 69.296 81.0956 68.048C81.0956 66.8 80.8236 65.712 80.2796 64.784C79.7516 63.84 79.0316 63.112 78.1196 62.6C77.2236 62.072 76.2076 61.808 75.0716 61.808C73.9516 61.808 72.9356 62.072 72.0236 62.6C71.1116 63.112 70.3836 63.84 69.8396 64.784C69.3116 65.712 69.0476 66.8 69.0476 68.048C69.0476 69.296 69.3116 70.392 69.8396 71.336C70.3676 72.264 71.0796 72.992 71.9756 73.52ZM76.7276 71.648C76.2156 71.952 75.6556 72.104 75.0476 72.104C74.4396 72.104 73.8796 71.952 73.3676 71.648C72.8556 71.344 72.4396 70.896 72.1196 70.304C71.7996 69.696 71.6396 68.944 71.6396 68.048C71.6396 67.152 71.7996 66.408 72.1196 65.816C72.4396 65.208 72.8556 64.752 73.3676 64.448C73.8956 64.144 74.4636 63.992 75.0716 63.992C75.6796 63.992 76.2396 64.144 76.7516 64.448C77.2796 64.752 77.6956 65.208 77.9996 65.816C78.3196 66.408 78.4796 67.152 78.4796 68.048C78.4796 68.944 78.3196 69.696 77.9996 70.304C77.6796 70.896 77.2556 71.344 76.7276 71.648ZM85.8628 73.52C86.7747 74.032 87.7988 74.288 88.9348 74.288C90.0708 74.288 91.0947 74.032 92.0068 73.52C92.9188 72.992 93.6388 72.264 94.1667 71.336C94.7108 70.392 94.9827 69.296 94.9827 68.048C94.9827 66.8 94.7108 65.712 94.1667 64.784C93.6388 63.84 92.9188 63.112 92.0068 62.6C91.1108 62.072 90.0947 61.808 88.9588 61.808C87.8388 61.808 86.8228 62.072 85.9108 62.6C84.9988 63.112 84.2708 63.84 83.7267 64.784C83.1987 65.712 82.9347 66.8 82.9347 68.048C82.9347 69.296 83.1987 70.392 83.7267 71.336C84.2547 72.264 84.9668 72.992 85.8628 73.52ZM90.6147 71.648C90.1028 71.952 89.5428 72.104 88.9348 72.104C88.3268 72.104 87.7668 71.952 87.2548 71.648C86.7428 71.344 86.3268 70.896 86.0068 70.304C85.6868 69.696 85.5268 68.944 85.5268 68.048C85.5268 67.152 85.6868 66.408 86.0068 65.816C86.3268 65.208 86.7428 64.752 87.2548 64.448C87.7828 64.144 88.3507 63.992 88.9588 63.992C89.5667 63.992 90.1268 64.144 90.6388 64.448C91.1668 64.752 91.5828 65.208 91.8868 65.816C92.2068 66.408 92.3668 67.152 92.3668 68.048C92.3668 68.944 92.2068 69.696 91.8868 70.304C91.5667 70.896 91.1427 71.344 90.6147 71.648ZM99.6299 73.472C100.51 74.016 101.526 74.288 102.678 74.288C103.734 74.288 104.598 74.072 105.27 73.64C105.942 73.208 106.47 72.712 106.854 72.152L107.118 74H109.398V56.72H106.854V63.92C106.454 63.248 105.894 62.728 105.174 62.36C104.47 61.992 103.646 61.808 102.702 61.808C101.55 61.808 100.526 62.08 99.6299 62.624C98.7499 63.152 98.0619 63.888 97.5659 64.832C97.0699 65.76 96.8219 66.824 96.8219 68.024C96.8219 69.224 97.0699 70.296 97.5659 71.24C98.0619 72.184 98.7499 72.928 99.6299 73.472ZM105.798 70.952C105.11 71.704 104.222 72.08 103.134 72.08C102.414 72.08 101.766 71.912 101.19 71.576C100.63 71.224 100.19 70.744 99.8699 70.136C99.5499 69.528 99.3899 68.832 99.3899 68.048C99.3899 66.848 99.7419 65.88 100.446 65.144C101.15 64.392 102.046 64.016 103.134 64.016C104.222 64.016 105.11 64.392 105.798 65.144C106.502 65.88 106.854 66.848 106.854 68.048C106.854 69.232 106.502 70.2 105.798 70.952Z" fill="url(#paint0_linear_1_1237)"/>
<path d="M31.136 41V29.8H35.36C36.5227 29.8 37.4027 30.072 38 30.616C38.5973 31.16 38.896 31.8427 38.896 32.664C38.896 33.3787 38.704 33.9493 38.32 34.376C37.936 34.792 37.472 35.0747 36.928 35.224C37.3547 35.3093 37.7333 35.48 38.064 35.736C38.4053 35.992 38.672 36.312 38.864 36.696C39.056 37.08 39.152 37.496 39.152 37.944C39.152 38.52 39.008 39.0427 38.72 39.512C38.4427 39.9707 38.032 40.3333 37.488 40.6C36.944 40.8667 36.2773 41 35.488 41H31.136ZM32.832 34.6H35.152C35.8027 34.6 36.2987 34.4507 36.64 34.152C36.9813 33.8427 37.152 33.4213 37.152 32.888C37.152 32.3653 36.9813 31.9493 36.64 31.64C36.3093 31.3307 35.8027 31.176 35.12 31.176H32.832V34.6ZM32.832 39.608H35.264C35.9467 39.608 36.4747 39.448 36.848 39.128C37.232 38.808 37.424 38.36 37.424 37.784C37.424 37.208 37.2267 36.7547 36.832 36.424C36.4373 36.0827 35.904 35.912 35.232 35.912H32.832V39.608ZM43.315 41.192C42.643 41.192 42.0883 41.08 41.651 40.856C41.2137 40.632 40.8883 40.3387 40.675 39.976C40.4617 39.6027 40.355 39.1973 40.355 38.76C40.355 37.992 40.6537 37.384 41.251 36.936C41.8483 36.488 42.7017 36.264 43.811 36.264H45.891V36.12C45.891 35.5013 45.7203 35.0373 45.379 34.728C45.0483 34.4187 44.6163 34.264 44.083 34.264C43.6137 34.264 43.203 34.3813 42.851 34.616C42.5097 34.84 42.3017 35.176 42.227 35.624H40.531C40.5843 35.048 40.7763 34.5573 41.107 34.152C41.4483 33.736 41.875 33.4213 42.387 33.208C42.9097 32.984 43.4803 32.872 44.099 32.872C45.2083 32.872 46.067 33.1653 46.675 33.752C47.283 34.328 47.587 35.1173 47.587 36.12V41H46.115L45.971 39.64C45.747 40.0773 45.4217 40.4453 44.995 40.744C44.5683 41.0427 44.0083 41.192 43.315 41.192ZM43.651 39.816C44.1097 39.816 44.4937 39.7093 44.803 39.496C45.123 39.272 45.3683 38.9787 45.539 38.616C45.7203 38.2533 45.8323 37.8533 45.875 37.416H43.987C43.315 37.416 42.835 37.5333 42.547 37.768C42.2697 38.0027 42.131 38.296 42.131 38.648C42.131 39.0107 42.2643 39.2987 42.531 39.512C42.8083 39.7147 43.1817 39.816 43.651 39.816ZM52.4163 41C51.6376 41 51.0189 40.8133 50.5603 40.44C50.1016 40.056 49.8723 39.3787 49.8723 38.408V34.488H48.5123V33.064H49.8723L50.0803 31.048H51.5683V33.064H53.8083V34.488H51.5683V38.408C51.5683 38.8453 51.6589 39.1493 51.8403 39.32C52.0323 39.48 52.3576 39.56 52.8163 39.56H53.7283V41H52.4163ZM58.565 41C57.7863 41 57.1677 40.8133 56.709 40.44C56.2503 40.056 56.021 39.3787 56.021 38.408V34.488H54.661V33.064H56.021L56.229 31.048H57.717V33.064H59.957V34.488H57.717V38.408C57.717 38.8453 57.8077 39.1493 57.989 39.32C58.181 39.48 58.5063 39.56 58.965 39.56H59.877V41H58.565ZM64.8946 41.192C64.116 41.192 63.4226 41.0213 62.8146 40.68C62.2173 40.328 61.748 39.8427 61.4066 39.224C61.0653 38.6053 60.8946 37.8853 60.8946 37.064C60.8946 36.232 61.06 35.5013 61.3906 34.872C61.732 34.2427 62.2013 33.752 62.7986 33.4C63.4066 33.048 64.1106 32.872 64.9106 32.872C65.6893 32.872 66.3666 33.048 66.9426 33.4C67.5186 33.7413 67.9666 34.2 68.2866 34.776C68.6066 35.352 68.7666 35.9867 68.7666 36.68C68.7666 36.7867 68.7613 36.904 68.7506 37.032C68.7506 37.1493 68.7453 37.2827 68.7346 37.432H62.5586C62.612 38.2 62.8626 38.7867 63.3106 39.192C63.7693 39.5867 64.2973 39.784 64.8946 39.784C65.3746 39.784 65.7746 39.6773 66.0946 39.464C66.4253 39.24 66.6706 38.9413 66.8306 38.568H68.5266C68.3133 39.3147 67.8866 39.9387 67.2466 40.44C66.6173 40.9413 65.8333 41.192 64.8946 41.192ZM64.8946 34.264C64.3293 34.264 63.828 34.4347 63.3906 34.776C62.9533 35.1067 62.6866 35.608 62.5906 36.28H67.0706C67.0386 35.6613 66.82 35.1707 66.4146 34.808C66.0093 34.4453 65.5026 34.264 64.8946 34.264ZM70.2064 41V33.064H71.7264L71.8704 34.568C72.1477 34.0453 72.5317 33.6347 73.0224 33.336C73.5237 33.0267 74.1264 32.872 74.8304 32.872V34.648H74.3664C73.897 34.648 73.4757 34.728 73.1024 34.888C72.7397 35.0373 72.4464 35.2987 72.2224 35.672C72.009 36.0347 71.9024 36.5413 71.9024 37.192V41H70.2064ZM76.8925 44.52L78.7965 40.344H78.3325L75.1965 33.064H77.0365L79.4685 38.936L82.0125 33.064H83.8045L78.6845 44.52H76.8925ZM92.3501 41.192C91.5288 41.192 90.8088 41.048 90.1901 40.76C89.5715 40.472 89.0861 40.0613 88.7341 39.528C88.3928 38.9947 88.2168 38.36 88.2061 37.624H89.9981C90.0088 38.2213 90.2168 38.728 90.6221 39.144C91.0275 39.56 91.5981 39.768 92.3341 39.768C92.9848 39.768 93.4915 39.6133 93.8541 39.304C94.2275 38.984 94.4141 38.5787 94.4141 38.088C94.4141 37.6933 94.3235 37.3733 94.1421 37.128C93.9715 36.8827 93.7315 36.68 93.4221 36.52C93.1235 36.36 92.7768 36.216 92.3821 36.088C91.9875 35.96 91.5715 35.8213 91.1341 35.672C90.2701 35.384 89.6195 35.0107 89.1821 34.552C88.7555 34.0933 88.5421 33.4907 88.5421 32.744C88.5315 32.1147 88.6755 31.5653 88.9741 31.096C89.2835 30.6267 89.7101 30.264 90.2541 30.008C90.8088 29.7413 91.4541 29.608 92.1901 29.608C92.9155 29.608 93.5501 29.7413 94.0941 30.008C94.6488 30.2747 95.0808 30.648 95.3901 31.128C95.6995 31.5973 95.8595 32.1467 95.8701 32.776H94.0781C94.0781 32.488 94.0035 32.216 93.8541 31.96C93.7048 31.6933 93.4861 31.4747 93.1981 31.304C92.9101 31.1333 92.5581 31.048 92.1421 31.048C91.6088 31.0373 91.1661 31.1707 90.8141 31.448C90.4728 31.7253 90.3021 32.1093 90.3021 32.6C90.3021 33.0373 90.4301 33.3733 90.6861 33.608C90.9421 33.8427 91.2941 34.04 91.7421 34.2C92.1901 34.3493 92.7021 34.5253 93.2781 34.728C93.8328 34.9093 94.3288 35.128 94.7661 35.384C95.2035 35.64 95.5501 35.976 95.8061 36.392C96.0728 36.808 96.2061 37.336 96.2061 37.976C96.2061 38.5413 96.0621 39.0693 95.7741 39.56C95.4861 40.04 95.0541 40.4347 94.4781 40.744C93.9021 41.0427 93.1928 41.192 92.3501 41.192ZM101.004 41C100.226 41 99.607 40.8133 99.1484 40.44C98.6897 40.056 98.4604 39.3787 98.4604 38.408V34.488H97.1004V33.064H98.4604L98.6684 31.048H100.156V33.064H102.396V34.488H100.156V38.408C100.156 38.8453 100.247 39.1493 100.428 39.32C100.62 39.48 100.946 39.56 101.404 39.56H102.316V41H101.004ZM106.513 41.192C105.841 41.192 105.286 41.08 104.849 40.856C104.412 40.632 104.086 40.3387 103.873 39.976C103.66 39.6027 103.553 39.1973 103.553 38.76C103.553 37.992 103.852 37.384 104.449 36.936C105.046 36.488 105.9 36.264 107.009 36.264H109.089V36.12C109.089 35.5013 108.918 35.0373 108.577 34.728C108.246 34.4187 107.814 34.264 107.281 34.264C106.812 34.264 106.401 34.3813 106.049 34.616C105.708 34.84 105.5 35.176 105.425 35.624H103.729C103.782 35.048 103.974 34.5573 104.305 34.152C104.646 33.736 105.073 33.4213 105.585 33.208C106.108 32.984 106.678 32.872 107.297 32.872C108.406 32.872 109.265 33.1653 109.873 33.752C110.481 34.328 110.785 35.1173 110.785 36.12V41H109.313L109.169 39.64C108.945 40.0773 108.62 40.4453 108.193 40.744C107.766 41.0427 107.206 41.192 106.513 41.192ZM106.849 39.816C107.308 39.816 107.692 39.7093 108.001 39.496C108.321 39.272 108.566 38.9787 108.737 38.616C108.918 38.2533 109.03 37.8533 109.073 37.416H107.185C106.513 37.416 106.033 37.5333 105.745 37.768C105.468 38.0027 105.329 38.296 105.329 38.648C105.329 39.0107 105.462 39.2987 105.729 39.512C106.006 39.7147 106.38 39.816 106.849 39.816ZM115.614 41C114.836 41 114.217 40.8133 113.758 40.44C113.3 40.056 113.07 39.3787 113.07 38.408V34.488H111.71V33.064H113.07L113.278 31.048H114.766V33.064H117.006V34.488H114.766V38.408C114.766 38.8453 114.857 39.1493 115.038 39.32C115.23 39.48 115.556 39.56 116.014 39.56H116.926V41H115.614ZM121.363 41.192C120.403 41.192 119.646 40.8933 119.091 40.296C118.547 39.6987 118.275 38.808 118.275 37.624V33.064H119.971V37.448C119.971 38.984 120.6 39.752 121.859 39.752C122.488 39.752 123.006 39.528 123.411 39.08C123.816 38.632 124.019 37.992 124.019 37.16V33.064H125.715V41H124.211L124.083 39.608C123.838 40.0987 123.475 40.488 122.995 40.776C122.526 41.0533 121.982 41.192 121.363 41.192ZM130.721 41.192C129.718 41.192 128.891 40.9467 128.241 40.456C127.59 39.9653 127.217 39.3147 127.121 38.504H128.833C128.918 38.8667 129.121 39.1813 129.441 39.448C129.761 39.704 130.182 39.832 130.705 39.832C131.217 39.832 131.59 39.7253 131.825 39.512C132.059 39.2987 132.177 39.0533 132.177 38.776C132.177 38.3707 132.011 38.0987 131.681 37.96C131.361 37.8107 130.913 37.6773 130.337 37.56C129.889 37.464 129.441 37.336 128.993 37.176C128.555 37.016 128.187 36.792 127.889 36.504C127.601 36.2053 127.457 35.8053 127.457 35.304C127.457 34.6107 127.723 34.0347 128.257 33.576C128.79 33.1067 129.537 32.872 130.497 32.872C131.382 32.872 132.097 33.0853 132.641 33.512C133.195 33.9387 133.521 34.5413 133.617 35.32H131.985C131.931 34.9787 131.771 34.712 131.505 34.52C131.249 34.328 130.902 34.232 130.465 34.232C130.038 34.232 129.707 34.3227 129.473 34.504C129.238 34.6747 129.121 34.8987 129.121 35.176C129.121 35.4533 129.281 35.672 129.601 35.832C129.931 35.992 130.363 36.136 130.897 36.264C131.43 36.3813 131.921 36.52 132.369 36.68C132.827 36.8293 133.195 37.0533 133.473 37.352C133.75 37.6507 133.889 38.088 133.889 38.664C133.899 39.3893 133.617 39.992 133.041 40.472C132.475 40.952 131.702 41.192 130.721 41.192Z" fill="white" fill-opacity="0.3"/>
<path d="M39.36 148V144.64H30.936V142.624L38.952 131.2H41.88V142.432H44.232V144.64H41.88V148H39.36ZM33.696 142.432H39.504V134.008L33.696 142.432ZM47.0891 148.144C46.6091 148.144 46.2091 147.992 45.8891 147.688C45.5851 147.368 45.4331 146.992 45.4331 146.56C45.4331 146.112 45.5851 145.736 45.8891 145.432C46.2091 145.112 46.6091 144.952 47.0891 144.952C47.5691 144.952 47.9611 145.112 48.2651 145.432C48.5691 145.736 48.7211 146.112 48.7211 146.56C48.7211 146.992 48.5691 147.368 48.2651 147.688C47.9611 147.992 47.5691 148.144 47.0891 148.144ZM47.0891 139C46.6091 139 46.2091 138.848 45.8891 138.544C45.5851 138.224 45.4331 137.848 45.4331 137.416C45.4331 136.968 45.5851 136.592 45.8891 136.288C46.2091 135.968 46.6091 135.808 47.0891 135.808C47.5691 135.808 47.9611 135.968 48.2651 136.288C48.5691 136.592 48.7211 136.968 48.7211 137.416C48.7211 137.848 48.5691 138.224 48.2651 138.544C47.9611 138.848 47.5691 139 47.0891 139ZM56.8266 148.288C55.6426 148.288 54.6186 148.08 53.7546 147.664C52.8906 147.232 52.2026 146.648 51.6906 145.912C51.1946 145.16 50.8906 144.312 50.7786 143.368H53.2746C53.4346 144.168 53.8346 144.832 54.4746 145.36C55.1146 145.872 55.9066 146.128 56.8506 146.128C57.5546 146.128 58.1626 145.96 58.6746 145.624C59.1866 145.272 59.5866 144.808 59.8746 144.232C60.1626 143.656 60.3066 143.008 60.3066 142.288C60.3066 141.152 59.9866 140.248 59.3466 139.576C58.7066 138.888 57.8986 138.544 56.9226 138.544C56.0906 138.544 55.3786 138.744 54.7866 139.144C54.1946 139.528 53.7626 140.016 53.4906 140.608H51.0666L52.5066 131.2H61.5786V133.432H54.4266L53.5626 137.92C53.9306 137.504 54.4346 137.16 55.0746 136.888C55.7306 136.6 56.4666 136.456 57.2826 136.456C58.4186 136.456 59.3946 136.72 60.2106 137.248C61.0266 137.76 61.6506 138.456 62.0826 139.336C62.5306 140.216 62.7546 141.192 62.7546 142.264C62.7546 143.384 62.5146 144.4 62.0346 145.312C61.5546 146.224 60.8666 146.952 59.9706 147.496C59.0906 148.024 58.0426 148.288 56.8266 148.288ZM71.4476 148.288C70.2156 148.288 69.1756 148.056 68.3276 147.592C67.4796 147.128 66.7916 146.512 66.2636 145.744C65.7516 144.976 65.3836 144.112 65.1596 143.152C64.9356 142.192 64.8236 141.208 64.8236 140.2C64.8236 138.344 65.0796 136.72 65.5916 135.328C66.1196 133.936 66.8716 132.856 67.8476 132.088C68.8236 131.304 70.0076 130.912 71.3996 130.912C72.5036 130.912 73.4476 131.128 74.2316 131.56C75.0156 131.992 75.6236 132.568 76.0556 133.288C76.5036 134.008 76.7756 134.792 76.8716 135.64H74.4956C74.3516 134.808 74.0076 134.168 73.4636 133.72C72.9196 133.272 72.2236 133.048 71.3756 133.048C70.2076 133.048 69.2396 133.6 68.4716 134.704C67.7196 135.792 67.3196 137.472 67.2716 139.744C67.6556 139.04 68.2476 138.44 69.0476 137.944C69.8636 137.448 70.7996 137.2 71.8556 137.2C72.7996 137.2 73.6796 137.424 74.4956 137.872C75.3276 138.32 75.9996 138.952 76.5116 139.768C77.0396 140.568 77.3036 141.52 77.3036 142.624C77.3036 143.6 77.0636 144.52 76.5836 145.384C76.1036 146.248 75.4236 146.952 74.5436 147.496C73.6796 148.024 72.6476 148.288 71.4476 148.288ZM71.3036 146.08C71.9756 146.08 72.5756 145.936 73.1036 145.648C73.6316 145.36 74.0476 144.968 74.3516 144.472C74.6556 143.96 74.8076 143.384 74.8076 142.744C74.8076 141.72 74.4716 140.904 73.7996 140.296C73.1436 139.688 72.3036 139.384 71.2796 139.384C70.6076 139.384 69.9996 139.536 69.4556 139.84C68.9276 140.144 68.5116 140.552 68.2076 141.064C67.9036 141.56 67.7516 142.112 67.7516 142.72C67.7516 143.376 67.9036 143.96 68.2076 144.472C68.5276 144.968 68.9516 145.36 69.4796 145.648C70.0236 145.936 70.6316 146.08 71.3036 146.08Z" fill="white"/>
<path d="M85.4346 148V130.72H87.9786V138.016C88.3786 137.328 88.9306 136.792 89.6346 136.408C90.3546 136.008 91.1466 135.808 92.0106 135.808C93.4346 135.808 94.5546 136.256 95.3706 137.152C96.1866 138.048 96.5946 139.384 96.5946 141.16V148H94.0746V141.424C94.0746 139.12 93.1546 137.968 91.3146 137.968C90.3546 137.968 89.5546 138.304 88.9146 138.976C88.2906 139.648 87.9786 140.608 87.9786 141.856V148H85.4346Z" fill="white" fill-opacity="0.3"/>
<path d="M33.76 116V106.176H30.448V104.8H38.752V106.176H35.456V116H33.76ZM40.9151 106.56C40.5951 106.56 40.3285 106.464 40.1151 106.272C39.9125 106.069 39.8111 105.819 39.8111 105.52C39.8111 105.221 39.9125 104.976 40.1151 104.784C40.3285 104.581 40.5951 104.48 40.9151 104.48C41.2351 104.48 41.4965 104.581 41.6991 104.784C41.9125 104.976 42.0191 105.221 42.0191 105.52C42.0191 105.819 41.9125 106.069 41.6991 106.272C41.4965 106.464 41.2351 106.56 40.9151 106.56ZM40.0671 116V108.064H41.7631V116H40.0671ZM43.682 116V108.064H45.186L45.33 109.184C45.586 108.779 45.922 108.459 46.338 108.224C46.7647 107.989 47.2553 107.872 47.81 107.872C49.0687 107.872 49.9433 108.368 50.434 109.36C50.722 108.901 51.106 108.539 51.586 108.272C52.0767 108.005 52.6047 107.872 53.17 107.872C54.162 107.872 54.9407 108.171 55.506 108.768C56.0713 109.365 56.354 110.256 56.354 111.44V116H54.658V111.616C54.658 110.08 54.0713 109.312 52.898 109.312C52.3007 109.312 51.81 109.536 51.426 109.984C51.0527 110.432 50.866 111.072 50.866 111.904V116H49.17V111.616C49.17 110.08 48.578 109.312 47.394 109.312C46.8073 109.312 46.322 109.536 45.938 109.984C45.5647 110.432 45.378 111.072 45.378 111.904V116H43.682ZM61.7303 116.192C60.9516 116.192 60.2583 116.021 59.6503 115.68C59.0529 115.328 58.5836 114.843 58.2423 114.224C57.9009 113.605 57.7303 112.885 57.7303 112.064C57.7303 111.232 57.8956 110.501 58.2263 109.872C58.5676 109.243 59.0369 108.752 59.6343 108.4C60.2423 108.048 60.9463 107.872 61.7463 107.872C62.5249 107.872 63.2023 108.048 63.7783 108.4C64.3543 108.741 64.8023 109.2 65.1223 109.776C65.4423 110.352 65.6023 110.987 65.6023 111.68C65.6023 111.787 65.5969 111.904 65.5863 112.032C65.5863 112.149 65.5809 112.283 65.5703 112.432H59.3943C59.4476 113.2 59.6983 113.787 60.1463 114.192C60.6049 114.587 61.1329 114.784 61.7303 114.784C62.2103 114.784 62.6103 114.677 62.9303 114.464C63.2609 114.24 63.5063 113.941 63.6663 113.568H65.3623C65.1489 114.315 64.7223 114.939 64.0823 115.44C63.4529 115.941 62.6689 116.192 61.7303 116.192ZM61.7303 109.264C61.1649 109.264 60.6636 109.435 60.2263 109.776C59.7889 110.107 59.5223 110.608 59.4263 111.28H63.9063C63.8743 110.661 63.6556 110.171 63.2503 109.808C62.8449 109.445 62.3383 109.264 61.7303 109.264ZM70.8173 116V104.8H72.5133V114.656H77.6013V116H70.8173ZM82.4109 116.192C81.6322 116.192 80.9389 116.021 80.3309 115.68C79.7335 115.328 79.2642 114.843 78.9229 114.224C78.5815 113.605 78.4109 112.885 78.4109 112.064C78.4109 111.232 78.5762 110.501 78.9069 109.872C79.2482 109.243 79.7175 108.752 80.3149 108.4C80.9229 108.048 81.6269 107.872 82.4269 107.872C83.2055 107.872 83.8829 108.048 84.4589 108.4C85.0349 108.741 85.4829 109.2 85.8029 109.776C86.1229 110.352 86.2829 110.987 86.2829 111.68C86.2829 111.787 86.2775 111.904 86.2669 112.032C86.2669 112.149 86.2615 112.283 86.2509 112.432H80.0749C80.1282 113.2 80.3789 113.787 80.8269 114.192C81.2855 114.587 81.8135 114.784 82.4109 114.784C82.8909 114.784 83.2909 114.677 83.6109 114.464C83.9415 114.24 84.1869 113.941 84.3469 113.568H86.0429C85.8295 114.315 85.4029 114.939 84.7629 115.44C84.1335 115.941 83.3495 116.192 82.4109 116.192ZM82.4109 109.264C81.8455 109.264 81.3442 109.435 80.9069 109.776C80.4695 110.107 80.2029 110.608 80.1069 111.28H84.5869C84.5549 110.661 84.3362 110.171 83.9309 109.808C83.5255 109.445 83.0189 109.264 82.4109 109.264ZM88.1226 116V109.488H86.9866V108.064H88.1226V106.912C88.1226 106.048 88.336 105.429 88.7626 105.056C89.2 104.672 89.8133 104.48 90.6026 104.48H91.4346V105.92H90.8586C90.4853 105.92 90.2186 106 90.0586 106.16C89.8986 106.309 89.8186 106.565 89.8186 106.928V108.064H91.6426V109.488H89.8186V116H88.1226ZM96.2619 116C95.4832 116 94.8645 115.813 94.4059 115.44C93.9472 115.056 93.7179 114.379 93.7179 113.408V109.488H92.3579V108.064H93.7179L93.9259 106.048H95.4139V108.064H97.6539V109.488H95.4139V113.408C95.4139 113.845 95.5045 114.149 95.6859 114.32C95.8779 114.48 96.2032 114.56 96.6619 114.56H97.5739V116H96.2619Z" fill="white" fill-opacity="0.3"/>
<path d="M33.64 221V206.264H28.672V204.2H41.128V206.264H36.184V221H33.64ZM46.3444 221.288C45.1764 221.288 44.1364 221.032 43.2244 220.52C42.3284 219.992 41.6244 219.264 41.1124 218.336C40.6004 217.408 40.3444 216.328 40.3444 215.096C40.3444 213.848 40.5924 212.752 41.0884 211.808C41.6004 210.864 42.3044 210.128 43.2004 209.6C44.1124 209.072 45.1684 208.808 46.3684 208.808C47.5364 208.808 48.5524 209.072 49.4164 209.6C50.2804 210.112 50.9524 210.8 51.4324 211.664C51.9124 212.528 52.1524 213.48 52.1524 214.52C52.1524 214.68 52.1444 214.856 52.1284 215.048C52.1284 215.224 52.1204 215.424 52.1044 215.648H42.8404C42.9204 216.8 43.2964 217.68 43.9684 218.288C44.6564 218.88 45.4484 219.176 46.3444 219.176C47.0644 219.176 47.6644 219.016 48.1444 218.696C48.6404 218.36 49.0084 217.912 49.2484 217.352H51.7924C51.4724 218.472 50.8324 219.408 49.8724 220.16C48.9284 220.912 47.7524 221.288 46.3444 221.288ZM46.3444 210.896C45.4964 210.896 44.7444 211.152 44.0884 211.664C43.4324 212.16 43.0324 212.912 42.8884 213.92H49.6084C49.5604 212.992 49.2324 212.256 48.6244 211.712C48.0164 211.168 47.2564 210.896 46.3444 210.896ZM59.0641 221.288C57.5601 221.288 56.3201 220.92 55.3441 220.184C54.3681 219.448 53.8081 218.472 53.6641 217.256H56.2321C56.3601 217.8 56.6641 218.272 57.1441 218.672C57.6241 219.056 58.2561 219.248 59.0401 219.248C59.8081 219.248 60.3681 219.088 60.7201 218.768C61.0721 218.448 61.2481 218.08 61.2481 217.664C61.2481 217.056 61.0001 216.648 60.5041 216.44C60.0241 216.216 59.3521 216.016 58.4881 215.84C57.8161 215.696 57.1441 215.504 56.4721 215.264C55.8161 215.024 55.2641 214.688 54.8161 214.256C54.3841 213.808 54.1681 213.208 54.1681 212.456C54.1681 211.416 54.5681 210.552 55.3681 209.864C56.1681 209.16 57.2881 208.808 58.7281 208.808C60.0561 208.808 61.1281 209.128 61.9441 209.768C62.7761 210.408 63.2641 211.312 63.4081 212.48H60.9601C60.8801 211.968 60.6401 211.568 60.2401 211.28C59.8561 210.992 59.3361 210.848 58.6801 210.848C58.0401 210.848 57.5441 210.984 57.1921 211.256C56.8401 211.512 56.6641 211.848 56.6641 212.264C56.6641 212.68 56.9041 213.008 57.3841 213.248C57.8801 213.488 58.5281 213.704 59.3281 213.896C60.1281 214.072 60.8641 214.28 61.5361 214.52C62.2241 214.744 62.7761 215.08 63.1921 215.528C63.6081 215.976 63.8161 216.632 63.8161 217.496C63.8321 218.584 63.4081 219.488 62.5441 220.208C61.6961 220.928 60.5361 221.288 59.0641 221.288ZM66.1133 221V203.72H68.6573V221H66.1133ZM75.4309 221.288C74.4229 221.288 73.5909 221.12 72.9349 220.784C72.2789 220.448 71.7909 220.008 71.4709 219.464C71.1509 218.904 70.9909 218.296 70.9909 217.64C70.9909 216.488 71.4389 215.576 72.3349 214.904C73.2309 214.232 74.5109 213.896 76.1749 213.896H79.2949V213.68C79.2949 212.752 79.0389 212.056 78.5269 211.592C78.0309 211.128 77.3829 210.896 76.5829 210.896C75.8789 210.896 75.2629 211.072 74.7349 211.424C74.2229 211.76 73.9109 212.264 73.7989 212.936H71.2549C71.3349 212.072 71.6229 211.336 72.1189 210.728C72.6309 210.104 73.2709 209.632 74.0389 209.312C74.8229 208.976 75.6789 208.808 76.6069 208.808C78.2709 208.808 79.5589 209.248 80.4709 210.128C81.3829 210.992 81.8389 212.176 81.8389 213.68V221H79.6309L79.4149 218.96C79.0789 219.616 78.5909 220.168 77.9509 220.616C77.3109 221.064 76.4709 221.288 75.4309 221.288ZM75.9349 219.224C76.6229 219.224 77.1989 219.064 77.6629 218.744C78.1429 218.408 78.5109 217.968 78.7669 217.424C79.0389 216.88 79.2069 216.28 79.2709 215.624H76.4389C75.4309 215.624 74.7109 215.8 74.2789 216.152C73.8629 216.504 73.6549 216.944 73.6549 217.472C73.6549 218.016 73.8549 218.448 74.2549 218.768C74.6709 219.072 75.2309 219.224 75.9349 219.224ZM89.1481 221L94.3321 212.504L89.1001 204.2H92.0041L95.9641 210.488L99.6601 204.2H102.516L97.3081 212.624L102.588 221H99.6841L95.7001 214.664L92.0041 221H89.1481Z" fill="white"/>
<path d="M29.136 189V177.8H31.136L34.928 185.256L38.704 177.8H40.704V189H39.008V180.728L35.584 187.4H34.272L30.832 180.744V189H29.136ZM46.3078 189.192C45.5504 189.192 44.8678 189.021 44.2598 188.68C43.6624 188.328 43.1878 187.843 42.8358 187.224C42.4838 186.595 42.3078 185.864 42.3078 185.032C42.3078 184.2 42.4838 183.475 42.8358 182.856C43.1984 182.227 43.6838 181.741 44.2918 181.4C44.8998 181.048 45.5771 180.872 46.3238 180.872C47.0811 180.872 47.7584 181.048 48.3558 181.4C48.9638 181.741 49.4438 182.227 49.7958 182.856C50.1584 183.475 50.3398 184.2 50.3398 185.032C50.3398 185.864 50.1584 186.595 49.7958 187.224C49.4438 187.843 48.9638 188.328 48.3558 188.68C47.7478 189.021 47.0651 189.192 46.3078 189.192ZM46.3078 187.736C46.7131 187.736 47.0864 187.635 47.4278 187.432C47.7798 187.229 48.0624 186.931 48.2758 186.536C48.4891 186.131 48.5958 185.629 48.5958 185.032C48.5958 184.435 48.4891 183.939 48.2758 183.544C48.0731 183.139 47.7958 182.835 47.4438 182.632C47.1024 182.429 46.7291 182.328 46.3238 182.328C45.9184 182.328 45.5398 182.429 45.1878 182.632C44.8464 182.835 44.5691 183.139 44.3558 183.544C44.1424 183.939 44.0358 184.435 44.0358 185.032C44.0358 185.629 44.1424 186.131 44.3558 186.536C44.5691 186.931 44.8464 187.229 45.1878 187.432C45.5291 187.635 45.9024 187.736 46.3078 187.736ZM55.4699 189.192C54.7019 189.192 54.0245 189.011 53.4379 188.648C52.8512 188.285 52.3925 187.789 52.0619 187.16C51.7312 186.531 51.5659 185.816 51.5659 185.016C51.5659 184.216 51.7312 183.507 52.0619 182.888C52.3925 182.259 52.8512 181.768 53.4379 181.416C54.0352 181.053 54.7179 180.872 55.4859 180.872C56.1152 180.872 56.6645 180.995 57.1339 181.24C57.6139 181.485 57.9872 181.832 58.2539 182.28V177.48H59.9499V189H58.4299L58.2539 187.768C57.9979 188.141 57.6459 188.472 57.1979 188.76C56.7499 189.048 56.1739 189.192 55.4699 189.192ZM55.7739 187.72C56.4992 187.72 57.0912 187.469 57.5499 186.968C58.0192 186.467 58.2539 185.821 58.2539 185.032C58.2539 184.232 58.0192 183.587 57.5499 183.096C57.0912 182.595 56.4992 182.344 55.7739 182.344C55.0485 182.344 54.4512 182.595 53.9819 183.096C53.5125 183.587 53.2779 184.232 53.2779 185.032C53.2779 185.555 53.3845 186.019 53.5979 186.424C53.8112 186.829 54.1045 187.149 54.4779 187.384C54.8619 187.608 55.2939 187.72 55.7739 187.72ZM65.4803 189.192C64.7016 189.192 64.0083 189.021 63.4003 188.68C62.8029 188.328 62.3336 187.843 61.9923 187.224C61.6509 186.605 61.4803 185.885 61.4803 185.064C61.4803 184.232 61.6456 183.501 61.9763 182.872C62.3176 182.243 62.7869 181.752 63.3843 181.4C63.9923 181.048 64.6963 180.872 65.4963 180.872C66.2749 180.872 66.9523 181.048 67.5283 181.4C68.1043 181.741 68.5523 182.2 68.8723 182.776C69.1923 183.352 69.3523 183.987 69.3523 184.68C69.3523 184.787 69.3469 184.904 69.3363 185.032C69.3363 185.149 69.3309 185.283 69.3203 185.432H63.1443C63.1976 186.2 63.4483 186.787 63.8963 187.192C64.3549 187.587 64.8829 187.784 65.4803 187.784C65.9603 187.784 66.3603 187.677 66.6803 187.464C67.0109 187.24 67.2563 186.941 67.4163 186.568H69.1123C68.8989 187.315 68.4723 187.939 67.8323 188.44C67.2029 188.941 66.4189 189.192 65.4803 189.192ZM65.4803 182.264C64.9149 182.264 64.4136 182.435 63.9763 182.776C63.5389 183.107 63.2723 183.608 63.1763 184.28H67.6563C67.6243 183.661 67.4056 183.171 67.0003 182.808C66.5949 182.445 66.0883 182.264 65.4803 182.264ZM70.792 189V177.48H72.488V189H70.792Z" fill="white" fill-opacity="0.3"/>
<path d="M31.432 294V280.08L28.72 280.704V278.832L32.44 277.2H34.072V294H31.432ZM37.9173 294.144C37.4373 294.144 37.0373 293.992 36.7173 293.688C36.4133 293.368 36.2613 292.992 36.2613 292.56C36.2613 292.112 36.4133 291.736 36.7173 291.432C37.0373 291.112 37.4373 290.952 37.9173 290.952C38.3973 290.952 38.7893 291.112 39.0933 291.432C39.3973 291.736 39.5493 292.112 39.5493 292.56C39.5493 292.992 39.3973 293.368 39.0933 293.688C38.7893 293.992 38.3973 294.144 37.9173 294.144ZM37.9173 285C37.4373 285 37.0373 284.848 36.7173 284.544C36.4133 284.224 36.2613 283.848 36.2613 283.416C36.2613 282.968 36.4133 282.592 36.7173 282.288C37.0373 281.968 37.4373 281.808 37.9173 281.808C38.3973 281.808 38.7893 281.968 39.0933 282.288C39.3973 282.592 39.5493 282.968 39.5493 283.416C39.5493 283.848 39.3973 284.224 39.0933 284.544C38.7893 284.848 38.3973 285 37.9173 285ZM41.4627 294V292.176C42.5507 291.312 43.5907 290.44 44.5827 289.56C45.5747 288.68 46.4547 287.816 47.2227 286.968C48.0067 286.104 48.6227 285.264 49.0707 284.448C49.5187 283.616 49.7427 282.816 49.7427 282.048C49.7427 281.536 49.6547 281.056 49.4787 280.608C49.3027 280.144 49.0147 279.776 48.6147 279.504C48.2147 279.216 47.6787 279.072 47.0067 279.072C45.9987 279.072 45.2387 279.392 44.7267 280.032C44.2307 280.672 43.9907 281.44 44.0067 282.336H41.5347C41.5507 281.152 41.7987 280.16 42.2787 279.36C42.7747 278.56 43.4307 277.952 44.2467 277.536C45.0787 277.12 46.0147 276.912 47.0547 276.912C48.6387 276.912 49.9027 277.36 50.8467 278.256C51.8067 279.136 52.2867 280.368 52.2867 281.952C52.2867 282.896 52.0547 283.832 51.5907 284.76C51.1427 285.688 50.5507 286.584 49.8147 287.448C49.0947 288.296 48.3187 289.096 47.4867 289.848C46.6547 290.6 45.8627 291.28 45.1107 291.888H52.7907V294H41.4627ZM62.4044 294V290.64H53.9804V288.624L61.9964 277.2H64.9244V288.432H67.2764V290.64H64.9244V294H62.4044ZM56.7404 288.432H62.5484V280.008L56.7404 288.432Z" fill="white"/>
<path d="M74.6924 294V276.72H77.2364V284.016C77.6364 283.328 78.1884 282.792 78.8924 282.408C79.6124 282.008 80.4044 281.808 81.2684 281.808C82.6924 281.808 83.8124 282.256 84.6284 283.152C85.4444 284.048 85.8524 285.384 85.8524 287.16V294H83.3324V287.424C83.3324 285.12 82.4124 283.968 80.5724 283.968C79.6124 283.968 78.8124 284.304 78.1724 284.976C77.5484 285.648 77.2364 286.608 77.2364 287.856V294H74.6924Z" fill="white" fill-opacity="0.3"/>
<path d="M28.416 262L32.544 250.8H34.4L38.496 262H36.704L35.744 259.264H31.168L30.208 262H28.416ZM31.648 257.92H35.264L33.456 252.816L31.648 257.92ZM43.0276 262.192C42.249 262.192 41.5503 262.016 40.9316 261.664C40.3236 261.312 39.8436 260.827 39.4916 260.208C39.1503 259.579 38.9796 258.853 38.9796 258.032C38.9796 257.211 39.1503 256.491 39.4916 255.872C39.8436 255.243 40.3236 254.752 40.9316 254.4C41.5503 254.048 42.249 253.872 43.0276 253.872C44.009 253.872 44.8303 254.128 45.4916 254.64C46.1636 255.152 46.5956 255.845 46.7876 256.72H45.0116C44.905 256.283 44.6703 255.941 44.3076 255.696C43.945 255.451 43.5183 255.328 43.0276 255.328C42.6116 255.328 42.2276 255.435 41.8756 255.648C41.5236 255.851 41.241 256.155 41.0276 256.56C40.8143 256.955 40.7076 257.445 40.7076 258.032C40.7076 258.619 40.8143 259.115 41.0276 259.52C41.241 259.915 41.5236 260.219 41.8756 260.432C42.2276 260.645 42.6116 260.752 43.0276 260.752C43.5183 260.752 43.945 260.629 44.3076 260.384C44.6703 260.139 44.905 259.792 45.0116 259.344H46.7876C46.6063 260.197 46.1796 260.885 45.5076 261.408C44.8356 261.931 44.009 262.192 43.0276 262.192ZM51.4788 262C50.7001 262 50.0814 261.813 49.6228 261.44C49.1641 261.056 48.9348 260.379 48.9348 259.408V255.488H47.5748V254.064H48.9348L49.1428 252.048H50.6308V254.064H52.8708V255.488H50.6308V259.408C50.6308 259.845 50.7214 260.149 50.9028 260.32C51.0948 260.48 51.4201 260.56 51.8788 260.56H52.7908V262H51.4788ZM55.2595 252.56C54.9395 252.56 54.6728 252.464 54.4595 252.272C54.2568 252.069 54.1555 251.819 54.1555 251.52C54.1555 251.221 54.2568 250.976 54.4595 250.784C54.6728 250.581 54.9395 250.48 55.2595 250.48C55.5795 250.48 55.8408 250.581 56.0435 250.784C56.2568 250.976 56.3635 251.221 56.3635 251.52C56.3635 251.819 56.2568 252.069 56.0435 252.272C55.8408 252.464 55.5795 252.56 55.2595 252.56ZM54.4115 262V254.064H56.1075V262H54.4115ZM60.2504 262L57.2744 254.064H59.0504L61.2584 260.384L63.4664 254.064H65.2264L62.2664 262H60.2504ZM67.2601 252.56C66.9401 252.56 66.6735 252.464 66.4601 252.272C66.2575 252.069 66.1561 251.819 66.1561 251.52C66.1561 251.221 66.2575 250.976 66.4601 250.784C66.6735 250.581 66.9401 250.48 67.2601 250.48C67.5801 250.48 67.8415 250.581 68.0441 250.784C68.2575 250.976 68.3641 251.221 68.3641 251.52C68.3641 251.819 68.2575 252.069 68.0441 252.272C67.8415 252.464 67.5801 252.56 67.2601 252.56ZM66.4121 262V254.064H68.1081V262H66.4121ZM73.355 262C72.5763 262 71.9577 261.813 71.499 261.44C71.0403 261.056 70.811 260.379 70.811 259.408V255.488H69.451V254.064H70.811L71.019 252.048H72.507V254.064H74.747V255.488H72.507V259.408C72.507 259.845 72.5977 260.149 72.779 260.32C72.971 260.48 73.2963 260.56 73.755 260.56H74.667V262H73.355ZM77.1037 265.52L79.0077 261.344H78.5437L75.4077 254.064H77.2477L79.6797 259.936L82.2237 254.064H84.0157L78.8957 265.52H77.1037ZM91.4894 262V252.176H88.1774V250.8H96.4814V252.176H93.1854V262H91.4894ZM98.6445 252.56C98.3245 252.56 98.0578 252.464 97.8445 252.272C97.6418 252.069 97.5405 251.819 97.5405 251.52C97.5405 251.221 97.6418 250.976 97.8445 250.784C98.0578 250.581 98.3245 250.48 98.6445 250.48C98.9645 250.48 99.2258 250.581 99.4285 250.784C99.6418 250.976 99.7485 251.221 99.7485 251.52C99.7485 251.819 99.6418 252.069 99.4285 252.272C99.2258 252.464 98.9645 252.56 98.6445 252.56ZM97.7965 262V254.064H99.4925V262H97.7965ZM101.411 262V254.064H102.915L103.059 255.184C103.315 254.779 103.651 254.459 104.067 254.224C104.494 253.989 104.985 253.872 105.539 253.872C106.798 253.872 107.673 254.368 108.163 255.36C108.451 254.901 108.835 254.539 109.315 254.272C109.806 254.005 110.334 253.872 110.899 253.872C111.891 253.872 112.67 254.171 113.235 254.768C113.801 255.365 114.083 256.256 114.083 257.44V262H112.387V257.616C112.387 256.08 111.801 255.312 110.627 255.312C110.03 255.312 109.539 255.536 109.155 255.984C108.782 256.432 108.595 257.072 108.595 257.904V262H106.899V257.616C106.899 256.08 106.307 255.312 105.123 255.312C104.537 255.312 104.051 255.536 103.667 255.984C103.294 256.432 103.107 257.072 103.107 257.904V262H101.411ZM119.46 262.192C118.681 262.192 117.988 262.021 117.38 261.68C116.782 261.328 116.313 260.843 115.972 260.224C115.63 259.605 115.46 258.885 115.46 258.064C115.46 257.232 115.625 256.501 115.956 255.872C116.297 255.243 116.766 254.752 117.364 254.4C117.972 254.048 118.676 253.872 119.476 253.872C120.254 253.872 120.932 254.048 121.508 254.4C122.084 254.741 122.532 255.2 122.852 255.776C123.172 256.352 123.332 256.987 123.332 257.68C123.332 257.787 123.326 257.904 123.316 258.032C123.316 258.149 123.31 258.283 123.3 258.432H117.124C117.177 259.2 117.428 259.787 117.876 260.192C118.334 260.587 118.862 260.784 119.46 260.784C119.94 260.784 120.34 260.677 120.66 260.464C120.99 260.24 121.236 259.941 121.396 259.568H123.092C122.878 260.315 122.452 260.939 121.812 261.44C121.182 261.941 120.398 262.192 119.46 262.192ZM119.46 255.264C118.894 255.264 118.393 255.435 117.956 255.776C117.518 256.107 117.252 256.608 117.156 257.28H121.636C121.604 256.661 121.385 256.171 120.98 255.808C120.574 255.445 120.068 255.264 119.46 255.264Z" fill="white" fill-opacity="0.3"/>
<defs>
<linearGradient id="paint0_linear_1_1237" x1="30" y1="75" x2="75.1917" y2="25.0514" gradientUnits="userSpaceOnUse">
<stop stop-color="#20D691"/>
<stop offset="1" stop-color="#7AE5B5"/>
</linearGradient>
</defs>
</svg>
