<svg width="442" height="173" viewBox="0 0 442 173" fill="none" xmlns="http://www.w3.org/2000/svg">
<g clip-path="url(#clip0_1_1223)">
<rect width="442" height="173" rx="20" fill="#0F0F0F"/>
<g filter="url(#filter0_f_1_1223)">
<path d="M30.076 108.038C54.468 109.803 74.209 114.356 101.686 114.356C129.163 114.356 138.006 110.942 155.653 110.942C173.3 110.942 185.158 117.771 209.619 117.771C234.08 117.771 251.477 109.803 276.04 109.803C300.603 109.803 334.558 122.323 358.028 122.323C381.498 122.323 411.995 103 411.995 103" stroke="url(#paint0_linear_1_1223)" stroke-width="2" stroke-linecap="round"/>
</g>
<path d="M30.076 108.038C54.468 109.803 74.209 114.356 101.686 114.356C129.163 114.356 138.006 110.942 155.653 110.942C173.3 110.942 185.158 117.771 209.619 117.771C234.08 117.771 251.477 109.803 276.04 109.803C300.603 109.803 334.558 122.323 358.028 122.323C381.498 122.323 411.995 103 411.995 103" stroke="url(#paint1_linear_1_1223)" stroke-width="2" stroke-linecap="round"/>
<path fill-rule="evenodd" clip-rule="evenodd" d="M30.0814 108.038C54.4733 109.803 74.2144 114.356 101.691 114.356C129.168 114.356 138.011 110.942 155.658 110.942C173.305 110.942 185.164 117.771 209.625 117.771C234.085 117.771 251.482 109.803 276.045 109.803C300.608 109.803 334.563 122.323 358.033 122.323C381.503 122.323 412 103 412 103V143H30.0814C30.0814 143 29.9186 109.951 30.0814 108.038Z" fill="url(#paint2_linear_1_1223)"/>
<path d="M33.432 73V59.08L30.72 59.704V57.832L34.44 56.2H36.072V73H33.432ZM46.6613 73V69.64H38.2373V67.624L46.2533 56.2H49.1813V67.432H51.5333V69.64H49.1813V73H46.6613ZM40.9973 67.432H46.8053V59.008L40.9973 67.432ZM61.1344 73V69.64H52.7104V67.624L60.7264 56.2H63.6544V67.432H66.0064V69.64H63.6544V73H61.1344ZM55.4704 67.432H61.2784V59.008L55.4704 67.432ZM75.7984 73L72.2944 61.096H74.8384L77.1424 70.072L79.7344 61.096H82.5664L85.1584 70.072L87.4624 61.096H90.0064L86.5024 73H83.8864L81.1504 63.64L78.4144 73H75.7984ZM91.6221 73V55.72H94.1661V63.016C94.5661 62.328 95.1181 61.792 95.8221 61.408C96.5421 61.008 97.3341 60.808 98.1981 60.808C99.6221 60.808 100.742 61.256 101.558 62.152C102.374 63.048 102.782 64.384 102.782 66.16V73H100.262V66.424C100.262 64.12 99.3421 62.968 97.5021 62.968C96.5421 62.968 95.7421 63.304 95.1021 63.976C94.4781 64.648 94.1661 65.608 94.1661 66.856V73H91.6221Z" fill="white"/>
<path d="M30.416 41L34.544 29.8H36.4L40.496 41H38.704L37.744 38.264H33.168L32.208 41H30.416ZM33.648 36.92H37.264L35.456 31.816L33.648 36.92ZM43.0385 41L40.0625 33.064H41.8385L44.0465 39.384L46.2545 33.064H48.0145L45.0545 41H43.0385ZM51.9456 38.568C51.5296 38.568 51.1456 38.52 50.7936 38.424L50.1056 39.096C50.223 39.1707 50.367 39.2347 50.5376 39.288C50.7083 39.3413 50.9483 39.3893 51.2576 39.432C51.567 39.4747 51.9883 39.5173 52.5216 39.56C53.5776 39.656 54.3403 39.912 54.8096 40.328C55.279 40.7333 55.5136 41.2773 55.5136 41.96C55.5136 42.4293 55.3856 42.872 55.1296 43.288C54.8843 43.7147 54.495 44.056 53.9616 44.312C53.439 44.5787 52.767 44.712 51.9456 44.712C50.8363 44.712 49.935 44.4987 49.2416 44.072C48.559 43.656 48.2176 43.0213 48.2176 42.168C48.2176 41.8373 48.303 41.5067 48.4736 41.176C48.655 40.856 48.9376 40.552 49.3216 40.264C49.0976 40.168 48.9003 40.0667 48.7296 39.96C48.5696 39.8427 48.4256 39.7253 48.2976 39.608V39.224L49.6736 37.816C49.055 37.2827 48.7456 36.584 48.7456 35.72C48.7456 35.1973 48.8683 34.7227 49.1136 34.296C49.3696 33.8587 49.7376 33.512 50.2176 33.256C50.6976 33 51.2736 32.872 51.9456 32.872C52.3936 32.872 52.8096 32.936 53.1936 33.064H56.1536V34.184L54.7456 34.264C55.0016 34.7013 55.1296 35.1867 55.1296 35.72C55.1296 36.2533 55.0016 36.7333 54.7456 37.16C54.5003 37.5867 54.1376 37.928 53.6576 38.184C53.1883 38.44 52.6176 38.568 51.9456 38.568ZM51.9456 37.24C52.4363 37.24 52.831 37.112 53.1296 36.856C53.439 36.5893 53.5936 36.216 53.5936 35.736C53.5936 35.2453 53.439 34.872 53.1296 34.616C52.831 34.36 52.4363 34.232 51.9456 34.232C51.4443 34.232 51.039 34.36 50.7296 34.616C50.431 34.872 50.2816 35.2453 50.2816 35.736C50.2816 36.216 50.431 36.5893 50.7296 36.856C51.039 37.112 51.4443 37.24 51.9456 37.24ZM49.8176 42.008C49.8176 42.4667 50.0203 42.808 50.4256 43.032C50.831 43.2667 51.3376 43.384 51.9456 43.384C52.5323 43.384 53.007 43.256 53.3696 43C53.7323 42.7547 53.9136 42.424 53.9136 42.008C53.9136 41.6987 53.791 41.432 53.5456 41.208C53.3003 40.9947 52.8363 40.8613 52.1536 40.808C51.6416 40.776 51.1883 40.728 50.7936 40.664C50.4203 40.8667 50.1643 41.0853 50.0256 41.32C49.887 41.5547 49.8176 41.784 49.8176 42.008ZM61.1216 41V29.8H68.2416V31.176H62.8176V34.664H67.7616V36.008H62.8176V39.624H68.2416V41H61.1216ZM69.8783 41V33.064H71.3823L71.5103 34.456C71.7556 33.9653 72.1129 33.5813 72.5823 33.304C73.0623 33.016 73.6116 32.872 74.2303 32.872C75.1903 32.872 75.9423 33.1707 76.4863 33.768C77.0409 34.3653 77.3183 35.256 77.3183 36.44V41H75.6383V36.616C75.6383 35.08 75.0089 34.312 73.7503 34.312C73.1209 34.312 72.5983 34.536 72.1823 34.984C71.7769 35.432 71.5743 36.072 71.5743 36.904V41H69.8783ZM82.7078 41.192C81.9291 41.192 81.2358 41.0213 80.6278 40.68C80.0304 40.328 79.5611 39.8427 79.2198 39.224C78.8784 38.6053 78.7078 37.8853 78.7078 37.064C78.7078 36.232 78.8731 35.5013 79.2038 34.872C79.5451 34.2427 80.0144 33.752 80.6118 33.4C81.2198 33.048 81.9238 32.872 82.7238 32.872C83.5024 32.872 84.1798 33.048 84.7558 33.4C85.3318 33.7413 85.7798 34.2 86.0998 34.776C86.4198 35.352 86.5798 35.9867 86.5798 36.68C86.5798 36.7867 86.5744 36.904 86.5638 37.032C86.5638 37.1493 86.5584 37.2827 86.5478 37.432H80.3718C80.4251 38.2 80.6758 38.7867 81.1238 39.192C81.5824 39.5867 82.1104 39.784 82.7078 39.784C83.1878 39.784 83.5878 39.6773 83.9078 39.464C84.2384 39.24 84.4838 38.9413 84.6438 38.568H86.3398C86.1264 39.3147 85.6998 39.9387 85.0598 40.44C84.4304 40.9413 83.6464 41.192 82.7078 41.192ZM82.7078 34.264C82.1424 34.264 81.6411 34.4347 81.2038 34.776C80.7664 35.1067 80.4998 35.608 80.4038 36.28H84.8838C84.8518 35.6613 84.6331 35.1707 84.2278 34.808C83.8224 34.4453 83.3158 34.264 82.7078 34.264ZM88.0195 41V33.064H89.5395L89.6835 34.568C89.9608 34.0453 90.3448 33.6347 90.8355 33.336C91.3368 33.0267 91.9395 32.872 92.6435 32.872V34.648H92.1795C91.7102 34.648 91.2888 34.728 90.9155 34.888C90.5528 35.0373 90.2595 35.2987 90.0355 35.672C89.8222 36.0347 89.7155 36.5413 89.7155 37.192V41H88.0195ZM96.8381 38.568C96.4221 38.568 96.0381 38.52 95.6861 38.424L94.9981 39.096C95.1155 39.1707 95.2595 39.2347 95.4301 39.288C95.6008 39.3413 95.8408 39.3893 96.1501 39.432C96.4595 39.4747 96.8808 39.5173 97.4141 39.56C98.4701 39.656 99.2328 39.912 99.7021 40.328C100.171 40.7333 100.406 41.2773 100.406 41.96C100.406 42.4293 100.278 42.872 100.022 43.288C99.7768 43.7147 99.3875 44.056 98.8541 44.312C98.3315 44.5787 97.6595 44.712 96.8381 44.712C95.7288 44.712 94.8275 44.4987 94.1341 44.072C93.4515 43.656 93.1101 43.0213 93.1101 42.168C93.1101 41.8373 93.1955 41.5067 93.3661 41.176C93.5475 40.856 93.8301 40.552 94.2141 40.264C93.9901 40.168 93.7928 40.0667 93.6221 39.96C93.4621 39.8427 93.3181 39.7253 93.1901 39.608V39.224L94.5661 37.816C93.9475 37.2827 93.6381 36.584 93.6381 35.72C93.6381 35.1973 93.7608 34.7227 94.0061 34.296C94.2621 33.8587 94.6301 33.512 95.1101 33.256C95.5901 33 96.1661 32.872 96.8381 32.872C97.2861 32.872 97.7021 32.936 98.0861 33.064H101.046V34.184L99.6381 34.264C99.8941 34.7013 100.022 35.1867 100.022 35.72C100.022 36.2533 99.8941 36.7333 99.6381 37.16C99.3928 37.5867 99.0301 37.928 98.5501 38.184C98.0808 38.44 97.5101 38.568 96.8381 38.568ZM96.8381 37.24C97.3288 37.24 97.7235 37.112 98.0221 36.856C98.3315 36.5893 98.4861 36.216 98.4861 35.736C98.4861 35.2453 98.3315 34.872 98.0221 34.616C97.7235 34.36 97.3288 34.232 96.8381 34.232C96.3368 34.232 95.9315 34.36 95.6221 34.616C95.3235 34.872 95.1741 35.2453 95.1741 35.736C95.1741 36.216 95.3235 36.5893 95.6221 36.856C95.9315 37.112 96.3368 37.24 96.8381 37.24ZM94.7101 42.008C94.7101 42.4667 94.9128 42.808 95.3181 43.032C95.7235 43.2667 96.2301 43.384 96.8381 43.384C97.4248 43.384 97.8995 43.256 98.2621 43C98.6248 42.7547 98.8061 42.424 98.8061 42.008C98.8061 41.6987 98.6835 41.432 98.4381 41.208C98.1928 40.9947 97.7288 40.8613 97.0461 40.808C96.5341 40.776 96.0808 40.728 95.6861 40.664C95.3128 40.8667 95.0568 41.0853 94.9181 41.32C94.7795 41.5547 94.7101 41.784 94.7101 42.008ZM103.167 44.52L105.071 40.344H104.607L101.471 33.064H103.311L105.743 38.936L108.287 33.064H110.079L104.959 44.52H103.167Z" fill="white" fill-opacity="0.3"/>
<path d="M392.25 36.25H392.263M401 36.25H401.013M409.75 36.25H409.763M393.5 36.25C393.5 36.5815 393.368 36.8995 393.134 37.1339C392.899 37.3683 392.582 37.5 392.25 37.5C391.918 37.5 391.601 37.3683 391.366 37.1339C391.132 36.8995 391 36.5815 391 36.25C391 35.9185 391.132 35.6005 391.366 35.3661C391.601 35.1317 391.918 35 392.25 35C392.582 35 392.899 35.1317 393.134 35.3661C393.368 35.6005 393.5 35.9185 393.5 36.25ZM402.25 36.25C402.25 36.5815 402.118 36.8995 401.884 37.1339C401.649 37.3683 401.332 37.5 401 37.5C400.668 37.5 400.351 37.3683 400.116 37.1339C399.882 36.8995 399.75 36.5815 399.75 36.25C399.75 35.9185 399.882 35.6005 400.116 35.3661C400.351 35.1317 400.668 35 401 35C401.332 35 401.649 35.1317 401.884 35.3661C402.118 35.6005 402.25 35.9185 402.25 36.25ZM411 36.25C411 36.5815 410.868 36.8995 410.634 37.1339C410.399 37.3683 410.082 37.5 409.75 37.5C409.418 37.5 409.101 37.3683 408.866 37.1339C408.632 36.8995 408.5 36.5815 408.5 36.25C408.5 35.9185 408.632 35.6005 408.866 35.3661C409.101 35.1317 409.418 35 409.75 35C410.082 35 410.399 35.1317 410.634 35.3661C410.868 35.6005 411 35.9185 411 36.25Z" stroke="white" stroke-opacity="0.3" stroke-width="2" stroke-linecap="round" stroke-linejoin="round"/>
</g>
<defs>
<filter id="filter0_f_1_1223" x="25.076" y="97.9999" width="391.919" height="29.3234" filterUnits="userSpaceOnUse" color-interpolation-filters="sRGB">
<feFlood flood-opacity="0" result="BackgroundImageFix"/>
<feBlend mode="normal" in="SourceGraphic" in2="BackgroundImageFix" result="shape"/>
<feGaussianBlur stdDeviation="2" result="effect1_foregroundBlur_1_1223"/>
</filter>
<linearGradient id="paint0_linear_1_1223" x1="30.076" y1="112.662" x2="411.995" y2="112.662" gradientUnits="userSpaceOnUse">
<stop stop-color="#20D691"/>
<stop offset="1" stop-color="#7AE5B5"/>
</linearGradient>
<linearGradient id="paint1_linear_1_1223" x1="30.076" y1="112.662" x2="411.995" y2="112.662" gradientUnits="userSpaceOnUse">
<stop stop-color="#20D691"/>
<stop offset="1" stop-color="#7AE5B5"/>
</linearGradient>
<linearGradient id="paint2_linear_1_1223" x1="30" y1="103" x2="30" y2="143" gradientUnits="userSpaceOnUse">
<stop stop-color="#20D691" stop-opacity="0.2"/>
<stop offset="1" stop-color="white" stop-opacity="0.01"/>
<stop offset="1" stop-color="white" stop-opacity="0.01"/>
</linearGradient>
<clipPath id="clip0_1_1223">
<rect width="442" height="173" fill="white"/>
</clipPath>
</defs>
</svg>
