<svg width="25" height="25" viewBox="0 0 25 25" fill="none" xmlns="http://www.w3.org/2000/svg">
<circle cx="12.5" cy="12.5" r="12.5" fill="#303030"/>
<path fill-rule="evenodd" clip-rule="evenodd" d="M8.96456 7.95584C9.90223 7.02368 11.174 6.5 12.5001 6.5C13.8261 6.5 15.0979 7.02368 16.0355 7.95584C16.9732 8.88801 17.5 10.1523 17.5 11.4706C17.5 12.7888 16.9732 14.0531 16.0355 14.9853L12.5001 18.5L8.96456 14.9853C8.50024 14.5237 8.13192 13.9758 7.88063 13.3727C7.62934 12.7697 7.5 12.1233 7.5 11.4706C7.5 10.8178 7.62934 10.1714 7.88063 9.56839C8.13192 8.96533 8.50024 8.41739 8.96456 7.95584ZM12.5001 12.8907C12.8789 12.8907 13.2423 12.741 13.5101 12.4747C13.778 12.2084 13.9285 11.8472 13.9285 11.4706C13.9285 11.0939 13.778 10.7327 13.5101 10.4664C13.2423 10.2001 12.8789 10.0505 12.5001 10.0505C12.1212 10.0505 11.7579 10.2001 11.49 10.4664C11.2221 10.7327 11.0716 11.0939 11.0716 11.4706C11.0716 11.8472 11.2221 12.2084 11.49 12.4747C11.7579 12.741 12.1212 12.8907 12.5001 12.8907Z" fill="white"/>
</svg>
