<svg width="25" height="25" viewBox="0 0 25 25" fill="none" xmlns="http://www.w3.org/2000/svg">
<circle cx="12.5" cy="12.5" r="12.5" fill="#303030"/>
<path fill-rule="evenodd" clip-rule="evenodd" d="M7 9.4C7 8.76348 7.25286 8.15303 7.70294 7.70294C8.15303 7.25286 8.76348 7 9.4 7H17.4C17.5486 7 17.6942 7.04137 17.8206 7.11948C17.947 7.19759 18.0491 7.30934 18.1155 7.44223C18.182 7.57511 18.2101 7.72388 18.1968 7.87184C18.1834 8.01981 18.1291 8.16114 18.04 8.28L16 11L18.04 13.72C18.1291 13.8389 18.1834 13.9802 18.1968 14.1282C18.2101 14.2761 18.182 14.4249 18.1155 14.5578C18.0491 14.6907 17.947 14.8024 17.8206 14.8805C17.6942 14.9586 17.5486 15 17.4 15H9.4C9.18783 15 8.98434 15.0843 8.83431 15.2343C8.68429 15.3843 8.6 15.5878 8.6 15.8V18.2C8.6 18.4122 8.51571 18.6157 8.36569 18.7657C8.21566 18.9157 8.01217 19 7.8 19C7.58783 19 7.38434 18.9157 7.23431 18.7657C7.08429 18.6157 7 18.4122 7 18.2V9.4Z" fill="white"/>
</svg>
