<svg width="17" height="15" viewBox="0 0 17 15" fill="none" xmlns="http://www.w3.org/2000/svg">
<path d="M5.875 14L1.44931 11.7867C1.31437 11.7193 1.20087 11.6157 1.12151 11.4874C1.04216 11.3591 1.00008 11.2112 1 11.0604V2.31463C1.00007 2.17618 1.03552 2.04005 1.10298 1.91916C1.17044 1.79826 1.26767 1.69661 1.38545 1.62384C1.50322 1.55108 1.63764 1.50961 1.77594 1.50338C1.91425 1.49715 2.05185 1.52637 2.17569 1.58825L5.875 3.4375M5.875 14V3.4375M5.875 14L10.75 11.5625M5.875 3.4375L10.75 1M10.75 11.5625L14.4493 13.4117C14.5732 13.4736 14.7108 13.5028 14.8491 13.4966C14.9874 13.4904 15.1218 13.4489 15.2396 13.3762C15.3573 13.3034 15.4546 13.2017 15.522 13.0808C15.5895 12.9599 15.6249 12.8238 15.625 12.6854V3.93963C15.6249 3.78877 15.5828 3.64093 15.5035 3.51264C15.4241 3.38434 15.3106 3.28068 15.1757 3.21325L10.75 1M10.75 11.5625V1" stroke="white" stroke-width="1.5" stroke-linecap="round" stroke-linejoin="round"/>
</svg>
