<svg width="11" height="15" viewBox="0 0 11 15" fill="none" xmlns="http://www.w3.org/2000/svg">
<path fill-rule="evenodd" clip-rule="evenodd" d="M10.1947 5.70679C10.0072 5.89426 9.75288 5.99957 9.48771 5.99957C9.22255 5.99957 8.96824 5.89426 8.78071 5.70679L5.48771 2.41379L2.19471 5.70679C2.00611 5.88894 1.75351 5.98974 1.49131 5.98746C1.22911 5.98518 0.978302 5.88001 0.792894 5.6946C0.607485 5.5092 0.502316 5.25838 0.500038 4.99619C0.497759 4.73399 0.598554 4.48139 0.780712 4.29279L4.78071 0.292787C4.96824 0.105316 5.22255 0 5.48771 0C5.75288 0 6.00718 0.105316 6.19471 0.292787L10.1947 4.29279C10.3822 4.48031 10.4875 4.73462 10.4875 4.99979C10.4875 5.26495 10.3822 5.51926 10.1947 5.70679Z" fill="white"/>
<path fill-rule="evenodd" clip-rule="evenodd" d="M0.79357 9.29273C0.981097 9.10525 1.2354 8.99994 1.50057 8.99994C1.76573 8.99994 2.02004 9.10525 2.20757 9.29273L5.50057 12.5857L8.79357 9.29273C8.98217 9.11057 9.23477 9.00977 9.49697 9.01205C9.75917 9.01433 10.01 9.1195 10.1954 9.30491C10.3808 9.49031 10.486 9.74113 10.4882 10.0033C10.4905 10.2655 10.3897 10.5181 10.2076 10.7067L6.20757 14.7067C6.02004 14.8942 5.76573 14.9995 5.50057 14.9995C5.2354 14.9995 4.9811 14.8942 4.79357 14.7067L0.79357 10.7067C0.606098 10.5192 0.500783 10.2649 0.500783 9.99973C0.500783 9.73456 0.606098 9.48025 0.79357 9.29273Z" fill="white"/>
</svg>
