<svg width="12" height="12" viewBox="0 0 12 12" fill="none" xmlns="http://www.w3.org/2000/svg">
<path d="M6.52112 0.219593C6.38047 0.0789875 6.18974 0 5.99086 0C5.79199 0 5.60125 0.0789875 5.46061 0.219593L0.210537 5.46966C0.0739163 5.61112 -0.00168048 5.80057 2.83524e-05 5.99722C0.00173719 6.19387 0.080615 6.38198 0.219673 6.52104C0.358731 6.6601 0.546843 6.73898 0.743493 6.74068C0.940143 6.74239 1.1296 6.6668 1.27105 6.53018L1.4908 6.31042V11.25C1.4908 11.4489 1.56982 11.6397 1.71048 11.7803C1.85113 11.921 2.0419 12 2.24081 12H3.74083C3.93975 12 4.13052 11.921 4.27117 11.7803C4.41183 11.6397 4.49084 11.4489 4.49084 11.25V9.74997C4.49084 9.55105 4.56986 9.36029 4.71052 9.21963C4.85117 9.07898 5.04194 8.99996 5.24085 8.99996H6.74087C6.93979 8.99996 7.13056 9.07898 7.27121 9.21963C7.41187 9.36029 7.49088 9.55105 7.49088 9.74997V11.25C7.49088 11.4489 7.5699 11.6397 7.71056 11.7803C7.85121 11.921 8.04198 12 8.24089 12H9.74091C9.93983 12 10.1306 11.921 10.2713 11.7803C10.4119 11.6397 10.4909 11.4489 10.4909 11.25V6.31042L10.7107 6.53018C10.8521 6.6668 11.0416 6.74239 11.2382 6.74068C11.4349 6.73898 11.623 6.6601 11.7621 6.52104C11.9011 6.38198 11.98 6.19387 11.9817 5.99722C11.9834 5.80057 11.9078 5.61112 11.7712 5.46966L6.52112 0.219593Z" fill="white"/>
</svg>
