<svg width="99" height="81" viewBox="0 0 99 81" fill="none" xmlns="http://www.w3.org/2000/svg">
<g opacity="0.3">
<path fill-rule="evenodd" clip-rule="evenodd" d="M97.915 4.34247C98.571 5.6004 98.8086 7.03481 98.5932 8.43709C98.3779 9.83937 97.7208 11.1364 96.7176 12.1395L73.1473 35.7098L92.0035 54.566C92.8662 55.4279 93.4759 56.5099 93.7664 57.6942C94.0568 58.8786 94.0169 60.1199 93.6508 61.2832C93.2848 62.4464 92.6067 63.4869 91.6904 64.2916C90.7741 65.0962 89.6546 65.6341 88.4539 65.8467L8.315 79.9888C6.91792 80.2373 5.478 80.0335 4.20473 79.4071C2.93146 78.7807 1.89127 77.7644 1.23552 76.506C0.579762 75.2476 0.342639 73.8128 0.558658 72.4103C0.774671 71.0078 1.43256 69.7109 2.43658 68.7081L26.0068 45.1379L7.15064 26.2817C6.28797 25.4198 5.67823 24.3377 5.38778 23.1534C5.09733 21.969 5.1373 20.7277 5.50332 19.5645C5.86936 18.4012 6.54743 17.3607 7.46375 16.556C8.38007 15.7514 9.49954 15.2135 10.7003 15.0009L90.8392 0.858789C92.2356 0.6127 93.6741 0.818252 94.9457 1.44558C96.2173 2.07291 97.2558 3.08933 97.9102 4.34719L97.915 4.34247Z" fill="white"/>
<path fill-rule="evenodd" clip-rule="evenodd" d="M97.915 4.34247C98.571 5.6004 98.8086 7.03481 98.5932 8.43709C98.3779 9.83937 97.7208 11.1364 96.7176 12.1395L73.1473 35.7098L92.0035 54.566C92.8662 55.4279 93.4759 56.5099 93.7664 57.6942C94.0568 58.8786 94.0169 60.1199 93.6508 61.2832C93.2848 62.4464 92.6067 63.4869 91.6904 64.2916C90.7741 65.0962 89.6546 65.6341 88.4539 65.8467L8.315 79.9888C6.91792 80.2373 5.478 80.0335 4.20473 79.4071C2.93146 78.7807 1.89127 77.7644 1.23552 76.506C0.579762 75.2476 0.342639 73.8128 0.558658 72.4103C0.774671 71.0078 1.43256 69.7109 2.43658 68.7081L26.0068 45.1379L7.15064 26.2817C6.28797 25.4198 5.67823 24.3377 5.38778 23.1534C5.09733 21.969 5.1373 20.7277 5.50332 19.5645C5.86936 18.4012 6.54743 17.3607 7.46375 16.556C8.38007 15.7514 9.49954 15.2135 10.7003 15.0009L90.8392 0.858789C92.2356 0.6127 93.6741 0.818252 94.9457 1.44558C96.2173 2.07291 97.2558 3.08933 97.9102 4.34719L97.915 4.34247Z" fill="url(#paint0_linear_1_483)"/>
</g>
<defs>
<linearGradient id="paint0_linear_1_483" x1="16.5736" y1="7.42639" x2="87.0541" y2="68.2351" gradientUnits="userSpaceOnUse">
<stop stop-color="#20D691"/>
<stop offset="1" stop-color="#7AE5B5"/>
</linearGradient>
</defs>
</svg>
