<svg width="30" height="30" viewBox="0 0 30 30" fill="none" xmlns="http://www.w3.org/2000/svg">
<rect width="30" height="30" rx="4" fill="#D9D9D9"/>
<rect width="30" height="30" rx="4" fill="url(#paint0_linear_1_1217)"/>
<path fill-rule="evenodd" clip-rule="evenodd" d="M16.8855 8.3137C16.6846 8.51463 16.5718 8.78711 16.5718 9.07122C16.5718 9.35532 16.6846 9.6278 16.8855 9.82873L19.3423 12.2856H13.3572C11.3681 12.2856 9.46039 13.0757 8.05384 14.4823C6.6473 15.8888 5.85711 17.7965 5.85711 19.7857V21.9286C5.85711 22.2127 5.96999 22.4852 6.17093 22.6862C6.37186 22.8871 6.64439 23 6.92856 23C7.21272 23 7.48525 22.8871 7.68618 22.6862C7.88712 22.4852 8 22.2127 8 21.9286V19.7857C8 18.3648 8.56442 17.0022 9.5691 15.9975C10.5738 14.9929 11.9364 14.4284 13.3572 14.4284H19.3423L16.8855 16.8853C16.7832 16.9841 16.7015 17.1023 16.6454 17.233C16.5892 17.3638 16.5597 17.5044 16.5584 17.6466C16.5572 17.7889 16.5843 17.93 16.6382 18.0617C16.6921 18.1933 16.7716 18.313 16.8722 18.4136C16.9728 18.5142 17.0924 18.5937 17.2241 18.6476C17.3558 18.7015 17.4969 18.7286 17.6391 18.7273C17.7814 18.7261 17.922 18.6966 18.0527 18.6404C18.1835 18.5842 18.3017 18.5026 18.4005 18.4003L22.6863 14.1145C22.8872 13.9136 23 13.6411 23 13.357C23 13.0729 22.8872 12.8004 22.6863 12.5995L18.4005 8.3137C18.1996 8.11284 17.9271 8 17.643 8C17.3589 8 17.0864 8.11284 16.8855 8.3137Z" fill="#141414"/>
<defs>
<linearGradient id="paint0_linear_1_1217" x1="-5.36619e-07" y1="15" x2="29.7333" y2="12.184" gradientUnits="userSpaceOnUse">
<stop stop-color="#20D691"/>
<stop offset="1" stop-color="#7AE5B5"/>
</linearGradient>
</defs>
</svg>
