<svg width="80" height="19" viewBox="0 0 80 19" fill="none" xmlns="http://www.w3.org/2000/svg">
<path fill-rule="evenodd" clip-rule="evenodd" d="M9.29596 0.430351C9.16307 0.249245 8.97587 0.115253 8.76159 0.0478644V0.04892C8.54749 -0.0186344 8.31742 -0.0161659 8.10482 0.055967C7.89222 0.1281 7.70815 0.26614 7.57937 0.450031L0.19047 11.0056C0.0798347 11.1638 0.0147215 11.3494 0.00221649 11.5421C-0.0102885 11.7347 0.0302936 11.9272 0.119547 12.0984C0.2088 12.2696 0.343304 12.413 0.508422 12.5131C0.67354 12.6132 0.862946 12.6661 1.05603 12.666H5.27825V17.9438C5.27811 18.1684 5.34966 18.3873 5.48249 18.5685C5.61533 18.7497 5.80252 18.8838 6.01682 18.9513C6.23113 19.0188 6.46137 19.0161 6.67406 18.9437C6.88674 18.8712 7.07077 18.7328 7.19936 18.5486L14.5883 7.99304C14.6989 7.8348 14.764 7.64924 14.7765 7.45657C14.789 7.26389 14.7484 7.07148 14.6592 6.90027C14.5699 6.72905 14.4354 6.5856 14.2703 6.48552C14.1052 6.38544 13.9158 6.33256 13.7227 6.33265H9.50048V1.05487C9.50049 0.830235 9.42885 0.611458 9.29596 0.430351ZM24.848 17.208C26.032 17.928 27.416 18.288 29 18.288C30.36 18.288 31.464 18.048 32.312 17.568C33.16 17.088 33.864 16.408 34.424 15.528L34.64 18H36.968V8.88H29.84V10.848H34.4C34.256 12.416 33.76 13.672 32.912 14.616C32.08 15.56 30.832 16.032 29.168 16.032C27.52 16.032 26.2 15.472 25.208 14.352C24.216 13.232 23.72 11.672 23.72 9.672C23.72 7.672 24.224 6.104 25.232 4.968C26.24 3.832 27.624 3.264 29.384 3.264C30.568 3.264 31.536 3.52 32.288 4.032C33.04 4.544 33.544 5.248 33.8 6.144H36.68C36.296 4.512 35.464 3.232 34.184 2.304C32.904 1.376 31.304 0.912 29.384 0.912C27.688 0.912 26.216 1.288 24.968 2.04C23.736 2.776 22.784 3.8 22.112 5.112C21.44 6.424 21.104 7.936 21.104 9.648C21.104 11.376 21.432 12.888 22.088 14.184C22.744 15.48 23.664 16.488 24.848 17.208ZM41.9756 17.52C42.8876 18.032 43.9116 18.288 45.0476 18.288C46.1836 18.288 47.2076 18.032 48.1196 17.52C49.0316 16.992 49.7516 16.264 50.2796 15.336C50.8236 14.392 51.0956 13.296 51.0956 12.048C51.0956 10.8 50.8236 9.712 50.2796 8.784C49.7516 7.84 49.0316 7.112 48.1196 6.6C47.2236 6.072 46.2076 5.808 45.0716 5.808C43.9516 5.808 42.9356 6.072 42.0236 6.6C41.1116 7.112 40.3836 7.84 39.8396 8.784C39.3116 9.712 39.0476 10.8 39.0476 12.048C39.0476 13.296 39.3116 14.392 39.8396 15.336C40.3676 16.264 41.0796 16.992 41.9756 17.52ZM46.7276 15.648C46.2156 15.952 45.6556 16.104 45.0476 16.104C44.4396 16.104 43.8796 15.952 43.3676 15.648C42.8556 15.344 42.4396 14.896 42.1196 14.304C41.7996 13.696 41.6396 12.944 41.6396 12.048C41.6396 11.152 41.7996 10.408 42.1196 9.816C42.4396 9.208 42.8556 8.752 43.3676 8.448C43.8956 8.144 44.4636 7.992 45.0716 7.992C45.6796 7.992 46.2396 8.144 46.7516 8.448C47.2796 8.752 47.6956 9.208 47.9996 9.816C48.3196 10.408 48.4796 11.152 48.4796 12.048C48.4796 12.944 48.3196 13.696 47.9996 14.304C47.6796 14.896 47.2556 15.344 46.7276 15.648ZM55.8628 17.52C56.7747 18.032 57.7988 18.288 58.9348 18.288C60.0708 18.288 61.0947 18.032 62.0068 17.52C62.9188 16.992 63.6388 16.264 64.1667 15.336C64.7108 14.392 64.9827 13.296 64.9827 12.048C64.9827 10.8 64.7108 9.712 64.1667 8.784C63.6388 7.84 62.9188 7.112 62.0068 6.6C61.1108 6.072 60.0947 5.808 58.9588 5.808C57.8388 5.808 56.8228 6.072 55.9108 6.6C54.9988 7.112 54.2708 7.84 53.7267 8.784C53.1987 9.712 52.9347 10.8 52.9347 12.048C52.9347 13.296 53.1987 14.392 53.7267 15.336C54.2547 16.264 54.9668 16.992 55.8628 17.52ZM60.6147 15.648C60.1028 15.952 59.5428 16.104 58.9348 16.104C58.3268 16.104 57.7668 15.952 57.2548 15.648C56.7428 15.344 56.3268 14.896 56.0068 14.304C55.6868 13.696 55.5268 12.944 55.5268 12.048C55.5268 11.152 55.6868 10.408 56.0068 9.816C56.3268 9.208 56.7428 8.752 57.2548 8.448C57.7828 8.144 58.3507 7.992 58.9588 7.992C59.5667 7.992 60.1268 8.144 60.6388 8.448C61.1668 8.752 61.5828 9.208 61.8868 9.816C62.2068 10.408 62.3668 11.152 62.3668 12.048C62.3668 12.944 62.2068 13.696 61.8868 14.304C61.5667 14.896 61.1427 15.344 60.6147 15.648ZM69.6299 17.472C70.5099 18.016 71.5259 18.288 72.6779 18.288C73.7339 18.288 74.5979 18.072 75.2699 17.64C75.9419 17.208 76.4699 16.712 76.8539 16.152L77.1179 18H79.3979V0.719999H76.8539V7.92C76.4539 7.248 75.8939 6.728 75.1739 6.36C74.4699 5.992 73.6459 5.808 72.7019 5.808C71.5499 5.808 70.5259 6.08 69.6299 6.624C68.7499 7.152 68.0619 7.888 67.5659 8.832C67.0699 9.76 66.8219 10.824 66.8219 12.024C66.8219 13.224 67.0699 14.296 67.5659 15.24C68.0619 16.184 68.7499 16.928 69.6299 17.472ZM75.7979 14.952C75.1099 15.704 74.2219 16.08 73.1339 16.08C72.4139 16.08 71.7659 15.912 71.1899 15.576C70.6299 15.224 70.1899 14.744 69.8699 14.136C69.5499 13.528 69.3899 12.832 69.3899 12.048C69.3899 10.848 69.7419 9.88 70.4459 9.144C71.1499 8.392 72.0459 8.016 73.1339 8.016C74.2219 8.016 75.1099 8.392 75.7979 9.144C76.5019 9.88 76.8539 10.848 76.8539 12.048C76.8539 13.232 76.5019 14.2 75.7979 14.952Z" fill="url(#paint0_linear_1_1240)"/>
<defs>
<linearGradient id="paint0_linear_1_1240" x1="1.1371e-06" y1="19" x2="45.1917" y2="-30.9486" gradientUnits="userSpaceOnUse">
<stop stop-color="#20D691"/>
<stop offset="1" stop-color="#7AE5B5"/>
</linearGradient>
</defs>
</svg>
