<svg width="392" height="45" viewBox="0 0 392 45" fill="none" xmlns="http://www.w3.org/2000/svg">
<g filter="url(#filter0_f_1_1229)">
<path d="M5.07605 10.0381C29.468 11.8034 49.209 16.3561 76.6858 16.3561C104.163 16.3561 113.006 12.9416 130.653 12.9416C148.3 12.9416 160.158 19.7706 184.619 19.7706C209.08 19.7706 226.477 11.8034 251.04 11.8034C275.603 11.8034 309.558 24.3233 333.028 24.3233C356.498 24.3233 386.995 5 386.995 5" stroke="url(#paint0_linear_1_1229)" stroke-width="2" stroke-linecap="round"/>
</g>
<path d="M5.07605 10.0381C29.468 11.8034 49.209 16.3561 76.6858 16.3561C104.163 16.3561 113.006 12.9416 130.653 12.9416C148.3 12.9416 160.158 19.7706 184.619 19.7706C209.08 19.7706 226.477 11.8034 251.04 11.8034C275.603 11.8034 309.558 24.3233 333.028 24.3233C356.498 24.3233 386.995 5 386.995 5" stroke="url(#paint1_linear_1_1229)" stroke-width="2" stroke-linecap="round"/>
<path fill-rule="evenodd" clip-rule="evenodd" d="M5.08139 10.0381C29.4733 11.8034 49.2144 16.3561 76.6911 16.3561C104.168 16.3561 113.011 12.9416 130.658 12.9416C148.305 12.9416 160.164 19.7706 184.625 19.7706C209.085 19.7706 226.482 11.8034 251.045 11.8034C275.608 11.8034 309.563 24.3233 333.033 24.3233C356.503 24.3233 387 5 387 5V45H5.08139C5.08139 45 4.91861 11.9514 5.08139 10.0381Z" fill="url(#paint2_linear_1_1229)"/>
<defs>
<filter id="filter0_f_1_1229" x="0.0760498" y="-0.00012207" width="391.919" height="29.3234" filterUnits="userSpaceOnUse" color-interpolation-filters="sRGB">
<feFlood flood-opacity="0" result="BackgroundImageFix"/>
<feBlend mode="normal" in="SourceGraphic" in2="BackgroundImageFix" result="shape"/>
<feGaussianBlur stdDeviation="2" result="effect1_foregroundBlur_1_1229"/>
</filter>
<linearGradient id="paint0_linear_1_1229" x1="5.07605" y1="14.6616" x2="386.995" y2="14.6616" gradientUnits="userSpaceOnUse">
<stop stop-color="#20D691"/>
<stop offset="1" stop-color="#7AE5B5"/>
</linearGradient>
<linearGradient id="paint1_linear_1_1229" x1="5.07605" y1="14.6616" x2="386.995" y2="14.6616" gradientUnits="userSpaceOnUse">
<stop stop-color="#20D691"/>
<stop offset="1" stop-color="#7AE5B5"/>
</linearGradient>
<linearGradient id="paint2_linear_1_1229" x1="5" y1="5" x2="5" y2="45" gradientUnits="userSpaceOnUse">
<stop stop-color="#20D691" stop-opacity="0.2"/>
<stop offset="1" stop-color="white" stop-opacity="0.01"/>
<stop offset="1" stop-color="white" stop-opacity="0.01"/>
</linearGradient>
</defs>
</svg>
