<svg width="977" height="339" viewBox="0 0 977 339" fill="none" xmlns="http://www.w3.org/2000/svg">
<rect width="977" height="339" rx="20" fill="#0F0F0F"/>
<path d="M35.616 309.192C34.6027 309.192 33.728 308.952 32.992 308.472C32.2667 307.981 31.7067 307.304 31.312 306.44C30.928 305.565 30.736 304.552 30.736 303.4C30.736 302.248 30.928 301.24 31.312 300.376C31.7067 299.501 32.2667 298.824 32.992 298.344C33.728 297.853 34.6027 297.608 35.616 297.608C36.6293 297.608 37.4987 297.853 38.224 298.344C38.9493 298.824 39.504 299.501 39.888 300.376C40.2827 301.24 40.48 302.248 40.48 303.4C40.48 304.552 40.2827 305.565 39.888 306.44C39.504 307.304 38.9493 307.981 38.224 308.472C37.4987 308.952 36.6293 309.192 35.616 309.192ZM35.616 307.672C36.224 307.672 36.7627 307.501 37.232 307.16C37.712 306.819 38.0853 306.328 38.352 305.688C38.6187 305.048 38.752 304.285 38.752 303.4C38.752 302.515 38.6187 301.752 38.352 301.112C38.0853 300.472 37.712 299.981 37.232 299.64C36.7627 299.299 36.224 299.128 35.616 299.128C34.9973 299.128 34.4533 299.299 33.984 299.64C33.5147 299.981 33.1467 300.472 32.88 301.112C32.6133 301.752 32.48 302.515 32.48 303.4C32.48 304.285 32.6133 305.048 32.88 305.688C33.1467 306.328 33.5147 306.819 33.984 307.16C34.4533 307.501 34.9973 307.672 35.616 307.672ZM45.9544 309.192C45.165 309.192 44.4824 309.053 43.9064 308.776C43.3304 308.488 42.8717 308.099 42.5304 307.608C42.1997 307.107 41.997 306.541 41.9224 305.912H43.5864C43.693 306.445 43.9597 306.888 44.3864 307.24C44.813 307.581 45.341 307.752 45.9704 307.752C46.4397 307.752 46.845 307.64 47.1864 307.416C47.5277 307.181 47.7944 306.872 47.9864 306.488C48.1784 306.104 48.2744 305.672 48.2744 305.192C48.2744 304.435 48.061 303.832 47.6344 303.384C47.2077 302.925 46.669 302.696 46.0184 302.696C45.4637 302.696 44.989 302.829 44.5944 303.096C44.1997 303.352 43.9117 303.677 43.7304 304.072H42.1144L43.0744 297.8H49.1224V299.288H44.3544L43.7784 302.28C44.0237 302.003 44.3597 301.773 44.7864 301.592C45.2237 301.4 45.7144 301.304 46.2584 301.304C47.0157 301.304 47.6664 301.48 48.2104 301.832C48.7544 302.173 49.1704 302.637 49.4584 303.224C49.757 303.811 49.9064 304.461 49.9064 305.176C49.9064 305.923 49.7464 306.6 49.4264 307.208C49.1064 307.816 48.6477 308.301 48.0504 308.664C47.4637 309.016 46.765 309.192 45.9544 309.192ZM52.1978 309.096C51.8778 309.096 51.6111 308.995 51.3978 308.792C51.1951 308.579 51.0938 308.328 51.0938 308.04C51.0938 307.741 51.1951 307.491 51.3978 307.288C51.6111 307.075 51.8778 306.968 52.1978 306.968C52.5178 306.968 52.7791 307.075 52.9818 307.288C53.1844 307.491 53.2858 307.741 53.2858 308.04C53.2858 308.328 53.1844 308.579 52.9818 308.792C52.7791 308.995 52.5178 309.096 52.1978 309.096ZM58.5779 309.192C57.5645 309.192 56.6899 308.952 55.9539 308.472C55.2285 307.981 54.6685 307.304 54.2739 306.44C53.8899 305.565 53.6979 304.552 53.6979 303.4C53.6979 302.248 53.8899 301.24 54.2739 300.376C54.6685 299.501 55.2285 298.824 55.9539 298.344C56.6899 297.853 57.5645 297.608 58.5779 297.608C59.5912 297.608 60.4605 297.853 61.1859 298.344C61.9112 298.824 62.4659 299.501 62.8499 300.376C63.2445 301.24 63.4419 302.248 63.4419 303.4C63.4419 304.552 63.2445 305.565 62.8499 306.44C62.4659 307.304 61.9112 307.981 61.1859 308.472C60.4605 308.952 59.5912 309.192 58.5779 309.192ZM58.5779 307.672C59.1859 307.672 59.7245 307.501 60.1939 307.16C60.6739 306.819 61.0472 306.328 61.3139 305.688C61.5805 305.048 61.7139 304.285 61.7139 303.4C61.7139 302.515 61.5805 301.752 61.3139 301.112C61.0472 300.472 60.6739 299.981 60.1939 299.64C59.7245 299.299 59.1859 299.128 58.5779 299.128C57.9592 299.128 57.4152 299.299 56.9459 299.64C56.4765 299.981 56.1085 300.472 55.8419 301.112C55.5752 301.752 55.4419 302.515 55.4419 303.4C55.4419 304.285 55.5752 305.048 55.8419 305.688C56.1085 306.328 56.4765 306.819 56.9459 307.16C57.4152 307.501 57.9592 307.672 58.5779 307.672ZM68.8363 309.192C68.0896 309.192 67.4123 309.059 66.8043 308.792C66.2069 308.515 65.7269 308.131 65.3643 307.64C65.0123 307.149 64.8363 306.573 64.8363 305.912C64.8363 305.24 65.0229 304.637 65.3963 304.104C65.7803 303.571 66.2869 303.208 66.9163 303.016C66.3509 302.792 65.9136 302.467 65.6043 302.04C65.2949 301.603 65.1403 301.123 65.1403 300.6C65.1403 300.056 65.2843 299.56 65.5723 299.112C65.8603 298.653 66.2763 298.291 66.8203 298.024C67.3749 297.747 68.0469 297.608 68.8363 297.608C69.6256 297.608 70.2923 297.747 70.8363 298.024C71.3909 298.291 71.8123 298.653 72.1003 299.112C72.3883 299.56 72.5323 300.056 72.5323 300.6C72.5323 301.112 72.3723 301.592 72.0523 302.04C71.7429 302.477 71.3056 302.803 70.7403 303.016C71.3696 303.219 71.8709 303.587 72.2443 304.12C72.6283 304.643 72.8203 305.24 72.8203 305.912C72.8203 306.573 72.6443 307.149 72.2923 307.64C71.9403 308.131 71.4603 308.515 70.8523 308.792C70.2549 309.059 69.5829 309.192 68.8363 309.192ZM68.8363 302.472C69.4549 302.472 69.9403 302.312 70.2923 301.992C70.6549 301.672 70.8363 301.261 70.8363 300.76C70.8363 300.195 70.6603 299.763 70.3083 299.464C69.9563 299.165 69.4656 299.016 68.8363 299.016C68.2069 299.016 67.7163 299.165 67.3643 299.464C67.0123 299.763 66.8363 300.195 66.8363 300.76C66.8363 301.261 67.0123 301.672 67.3643 301.992C67.7163 302.312 68.2069 302.472 68.8363 302.472ZM68.8363 307.752C69.6043 307.752 70.1803 307.571 70.5643 307.208C70.9483 306.835 71.1403 306.36 71.1403 305.784C71.1403 305.144 70.9323 304.653 70.5163 304.312C70.1109 303.96 69.5509 303.784 68.8363 303.784C68.1216 303.784 67.5563 303.96 67.1403 304.312C66.7243 304.653 66.5163 305.144 66.5163 305.784C66.5163 306.36 66.7083 306.835 67.0923 307.208C67.4869 307.571 68.0683 307.752 68.8363 307.752Z" fill="white" fill-opacity="0.3"/>
<path d="M908.63 309.192C907.617 309.192 906.742 308.952 906.006 308.472C905.281 307.981 904.721 307.304 904.326 306.44C903.942 305.565 903.75 304.552 903.75 303.4C903.75 302.248 903.942 301.24 904.326 300.376C904.721 299.501 905.281 298.824 906.006 298.344C906.742 297.853 907.617 297.608 908.63 297.608C909.644 297.608 910.513 297.853 911.238 298.344C911.964 298.824 912.518 299.501 912.902 300.376C913.297 301.24 913.494 302.248 913.494 303.4C913.494 304.552 913.297 305.565 912.902 306.44C912.518 307.304 911.964 307.981 911.238 308.472C910.513 308.952 909.644 309.192 908.63 309.192ZM908.63 307.672C909.238 307.672 909.777 307.501 910.246 307.16C910.726 306.819 911.1 306.328 911.366 305.688C911.633 305.048 911.766 304.285 911.766 303.4C911.766 302.515 911.633 301.752 911.366 301.112C911.1 300.472 910.726 299.981 910.246 299.64C909.777 299.299 909.238 299.128 908.63 299.128C908.012 299.128 907.468 299.299 906.998 299.64C906.529 299.981 906.161 300.472 905.894 301.112C905.628 301.752 905.494 302.515 905.494 303.4C905.494 304.285 905.628 305.048 905.894 305.688C906.161 306.328 906.529 306.819 906.998 307.16C907.468 307.501 908.012 307.672 908.63 307.672ZM918.969 309.192C918.179 309.192 917.497 309.053 916.921 308.776C916.345 308.488 915.886 308.099 915.545 307.608C915.214 307.107 915.011 306.541 914.937 305.912H916.601C916.707 306.445 916.974 306.888 917.401 307.24C917.827 307.581 918.355 307.752 918.985 307.752C919.454 307.752 919.859 307.64 920.201 307.416C920.542 307.181 920.809 306.872 921.001 306.488C921.193 306.104 921.289 305.672 921.289 305.192C921.289 304.435 921.075 303.832 920.649 303.384C920.222 302.925 919.683 302.696 919.033 302.696C918.478 302.696 918.003 302.829 917.609 303.096C917.214 303.352 916.926 303.677 916.745 304.072H915.129L916.089 297.8H922.137V299.288H917.369L916.793 302.28C917.038 302.003 917.374 301.773 917.801 301.592C918.238 301.4 918.729 301.304 919.273 301.304C920.03 301.304 920.681 301.48 921.225 301.832C921.769 302.173 922.185 302.637 922.473 303.224C922.771 303.811 922.921 304.461 922.921 305.176C922.921 305.923 922.761 306.6 922.441 307.208C922.121 307.816 921.662 308.301 921.065 308.664C920.478 309.016 919.779 309.192 918.969 309.192ZM925.212 309.096C924.892 309.096 924.625 308.995 924.412 308.792C924.209 308.579 924.108 308.328 924.108 308.04C924.108 307.741 924.209 307.491 924.412 307.288C924.625 307.075 924.892 306.968 925.212 306.968C925.532 306.968 925.793 307.075 925.996 307.288C926.199 307.491 926.3 307.741 926.3 308.04C926.3 308.328 926.199 308.579 925.996 308.792C925.793 308.995 925.532 309.096 925.212 309.096ZM931.592 309.192C930.579 309.192 929.704 308.952 928.968 308.472C928.243 307.981 927.683 307.304 927.288 306.44C926.904 305.565 926.712 304.552 926.712 303.4C926.712 302.248 926.904 301.24 927.288 300.376C927.683 299.501 928.243 298.824 928.968 298.344C929.704 297.853 930.579 297.608 931.592 297.608C932.606 297.608 933.475 297.853 934.2 298.344C934.926 298.824 935.48 299.501 935.864 300.376C936.259 301.24 936.456 302.248 936.456 303.4C936.456 304.552 936.259 305.565 935.864 306.44C935.48 307.304 934.926 307.981 934.2 308.472C933.475 308.952 932.606 309.192 931.592 309.192ZM931.592 307.672C932.2 307.672 932.739 307.501 933.208 307.16C933.688 306.819 934.062 306.328 934.328 305.688C934.595 305.048 934.728 304.285 934.728 303.4C934.728 302.515 934.595 301.752 934.328 301.112C934.062 300.472 933.688 299.981 933.208 299.64C932.739 299.299 932.2 299.128 931.592 299.128C930.974 299.128 930.43 299.299 929.96 299.64C929.491 299.981 929.123 300.472 928.856 301.112C928.59 301.752 928.456 302.515 928.456 303.4C928.456 304.285 928.59 305.048 928.856 305.688C929.123 306.328 929.491 306.819 929.96 307.16C930.43 307.501 930.974 307.672 931.592 307.672ZM941.787 309.192C941.051 309.192 940.421 309.048 939.899 308.76C939.376 308.472 938.965 308.088 938.667 307.608C938.379 307.128 938.203 306.605 938.139 306.04H939.723C939.819 306.595 940.048 307.021 940.411 307.32C940.773 307.619 941.237 307.768 941.803 307.768C942.581 307.768 943.221 307.405 943.723 306.68C944.235 305.944 944.507 304.819 944.539 303.304C944.283 303.773 943.883 304.173 943.339 304.504C942.805 304.835 942.187 305 941.483 305C940.853 305 940.261 304.851 939.707 304.552C939.152 304.253 938.704 303.837 938.363 303.304C938.021 302.76 937.851 302.12 937.851 301.384C937.851 300.733 938.011 300.12 938.331 299.544C938.651 298.968 939.099 298.504 939.675 298.152C940.261 297.789 940.955 297.608 941.755 297.608C942.576 297.608 943.269 297.763 943.835 298.072C944.4 298.381 944.853 298.792 945.195 299.304C945.536 299.816 945.781 300.392 945.931 301.032C946.091 301.672 946.171 302.328 946.171 303C946.171 304.237 945.995 305.32 945.643 306.248C945.301 307.176 944.805 307.901 944.155 308.424C943.504 308.936 942.715 309.192 941.787 309.192ZM941.867 303.544C942.315 303.544 942.715 303.443 943.067 303.24C943.419 303.037 943.696 302.771 943.899 302.44C944.112 302.099 944.219 301.725 944.219 301.32C944.219 300.883 944.112 300.499 943.899 300.168C943.696 299.827 943.413 299.56 943.051 299.368C942.699 299.176 942.299 299.08 941.851 299.08C941.403 299.08 941.003 299.176 940.651 299.368C940.299 299.56 940.016 299.827 939.803 300.168C939.6 300.499 939.499 300.877 939.499 301.304C939.499 301.987 939.723 302.531 940.171 302.936C940.619 303.341 941.184 303.544 941.867 303.544Z" fill="white" fill-opacity="0.3"/>
<path d="M468.247 309V307.784C468.973 307.208 469.666 306.627 470.327 306.04C470.989 305.453 471.575 304.877 472.087 304.312C472.61 303.736 473.021 303.176 473.319 302.632C473.618 302.077 473.767 301.544 473.767 301.032C473.767 300.691 473.709 300.371 473.591 300.072C473.474 299.763 473.282 299.517 473.015 299.336C472.749 299.144 472.391 299.048 471.943 299.048C471.271 299.048 470.765 299.261 470.423 299.688C470.093 300.115 469.933 300.627 469.943 301.224H468.295C468.306 300.435 468.471 299.773 468.791 299.24C469.122 298.707 469.559 298.301 470.103 298.024C470.658 297.747 471.282 297.608 471.975 297.608C473.031 297.608 473.874 297.907 474.503 298.504C475.143 299.091 475.463 299.912 475.463 300.968C475.463 301.597 475.309 302.221 474.999 302.84C474.701 303.459 474.306 304.056 473.815 304.632C473.335 305.197 472.818 305.731 472.263 306.232C471.709 306.733 471.181 307.187 470.679 307.592H475.799V309H468.247ZM481.663 309.192C480.649 309.192 479.775 308.952 479.039 308.472C478.313 307.981 477.753 307.304 477.359 306.44C476.975 305.565 476.783 304.552 476.783 303.4C476.783 302.248 476.975 301.24 477.359 300.376C477.753 299.501 478.313 298.824 479.039 298.344C479.775 297.853 480.649 297.608 481.663 297.608C482.676 297.608 483.545 297.853 484.271 298.344C484.996 298.824 485.551 299.501 485.935 300.376C486.329 301.24 486.527 302.248 486.527 303.4C486.527 304.552 486.329 305.565 485.935 306.44C485.551 307.304 484.996 307.981 484.271 308.472C483.545 308.952 482.676 309.192 481.663 309.192ZM481.663 307.672C482.271 307.672 482.809 307.501 483.279 307.16C483.759 306.819 484.132 306.328 484.399 305.688C484.665 305.048 484.799 304.285 484.799 303.4C484.799 302.515 484.665 301.752 484.399 301.112C484.132 300.472 483.759 299.981 483.279 299.64C482.809 299.299 482.271 299.128 481.663 299.128C481.044 299.128 480.5 299.299 480.031 299.64C479.561 299.981 479.193 300.472 478.927 301.112C478.66 301.752 478.527 302.515 478.527 303.4C478.527 304.285 478.66 305.048 478.927 305.688C479.193 306.328 479.561 306.819 480.031 307.16C480.5 307.501 481.044 307.672 481.663 307.672ZM488.064 309.096C487.744 309.096 487.478 308.995 487.264 308.792C487.062 308.579 486.96 308.328 486.96 308.04C486.96 307.741 487.062 307.491 487.264 307.288C487.478 307.075 487.744 306.968 488.064 306.968C488.384 306.968 488.646 307.075 488.848 307.288C489.051 307.491 489.152 307.741 489.152 308.04C489.152 308.328 489.051 308.579 488.848 308.792C488.646 308.995 488.384 309.096 488.064 309.096ZM494.444 309.192C493.431 309.192 492.556 308.952 491.82 308.472C491.095 307.981 490.535 307.304 490.14 306.44C489.756 305.565 489.564 304.552 489.564 303.4C489.564 302.248 489.756 301.24 490.14 300.376C490.535 299.501 491.095 298.824 491.82 298.344C492.556 297.853 493.431 297.608 494.444 297.608C495.458 297.608 496.327 297.853 497.052 298.344C497.778 298.824 498.332 299.501 498.716 300.376C499.111 301.24 499.308 302.248 499.308 303.4C499.308 304.552 499.111 305.565 498.716 306.44C498.332 307.304 497.778 307.981 497.052 308.472C496.327 308.952 495.458 309.192 494.444 309.192ZM494.444 307.672C495.052 307.672 495.591 307.501 496.06 307.16C496.54 306.819 496.914 306.328 497.18 305.688C497.447 305.048 497.58 304.285 497.58 303.4C497.58 302.515 497.447 301.752 497.18 301.112C496.914 300.472 496.54 299.981 496.06 299.64C495.591 299.299 495.052 299.128 494.444 299.128C493.826 299.128 493.282 299.299 492.812 299.64C492.343 299.981 491.975 300.472 491.708 301.112C491.442 301.752 491.308 302.515 491.308 303.4C491.308 304.285 491.442 305.048 491.708 305.688C491.975 306.328 492.343 306.819 492.812 307.16C493.282 307.501 493.826 307.672 494.444 307.672ZM504.703 309.192C503.956 309.192 503.279 309.059 502.671 308.792C502.073 308.515 501.593 308.131 501.231 307.64C500.879 307.149 500.703 306.573 500.703 305.912C500.703 305.24 500.889 304.637 501.263 304.104C501.647 303.571 502.153 303.208 502.783 303.016C502.217 302.792 501.78 302.467 501.471 302.04C501.161 301.603 501.007 301.123 501.007 300.6C501.007 300.056 501.151 299.56 501.439 299.112C501.727 298.653 502.143 298.291 502.687 298.024C503.241 297.747 503.913 297.608 504.703 297.608C505.492 297.608 506.159 297.747 506.703 298.024C507.257 298.291 507.679 298.653 507.967 299.112C508.255 299.56 508.399 300.056 508.399 300.6C508.399 301.112 508.239 301.592 507.919 302.04C507.609 302.477 507.172 302.803 506.607 303.016C507.236 303.219 507.737 303.587 508.111 304.12C508.495 304.643 508.687 305.24 508.687 305.912C508.687 306.573 508.511 307.149 508.159 307.64C507.807 308.131 507.327 308.515 506.719 308.792C506.121 309.059 505.449 309.192 504.703 309.192ZM504.703 302.472C505.321 302.472 505.807 302.312 506.159 301.992C506.521 301.672 506.703 301.261 506.703 300.76C506.703 300.195 506.527 299.763 506.175 299.464C505.823 299.165 505.332 299.016 504.703 299.016C504.073 299.016 503.583 299.165 503.231 299.464C502.879 299.763 502.703 300.195 502.703 300.76C502.703 301.261 502.879 301.672 503.231 301.992C503.583 302.312 504.073 302.472 504.703 302.472ZM504.703 307.752C505.471 307.752 506.047 307.571 506.431 307.208C506.815 306.835 507.007 306.36 507.007 305.784C507.007 305.144 506.799 304.653 506.383 304.312C505.977 303.96 505.417 303.784 504.703 303.784C503.988 303.784 503.423 303.96 503.007 304.312C502.591 304.653 502.383 305.144 502.383 305.784C502.383 306.36 502.575 306.835 502.959 307.208C503.353 307.571 503.935 307.752 504.703 307.752Z" fill="white" fill-opacity="0.3"/>
<path d="M687.122 309V307.784C687.848 307.208 688.541 306.627 689.202 306.04C689.864 305.453 690.45 304.877 690.962 304.312C691.485 303.736 691.896 303.176 692.194 302.632C692.493 302.077 692.642 301.544 692.642 301.032C692.642 300.691 692.584 300.371 692.466 300.072C692.349 299.763 692.157 299.517 691.89 299.336C691.624 299.144 691.266 299.048 690.818 299.048C690.146 299.048 689.64 299.261 689.298 299.688C688.968 300.115 688.808 300.627 688.818 301.224H687.17C687.181 300.435 687.346 299.773 687.666 299.24C687.997 298.707 688.434 298.301 688.978 298.024C689.533 297.747 690.157 297.608 690.85 297.608C691.906 297.608 692.749 297.907 693.378 298.504C694.018 299.091 694.338 299.912 694.338 300.968C694.338 301.597 694.184 302.221 693.874 302.84C693.576 303.459 693.181 304.056 692.69 304.632C692.21 305.197 691.693 305.731 691.138 306.232C690.584 306.733 690.056 307.187 689.554 307.592H694.674V309H687.122ZM699.803 309.192C699.057 309.192 698.379 309.059 697.771 308.792C697.174 308.515 696.694 308.131 696.331 307.64C695.979 307.149 695.803 306.573 695.803 305.912C695.803 305.24 695.99 304.637 696.363 304.104C696.747 303.571 697.254 303.208 697.883 303.016C697.318 302.792 696.881 302.467 696.571 302.04C696.262 301.603 696.107 301.123 696.107 300.6C696.107 300.056 696.251 299.56 696.539 299.112C696.827 298.653 697.243 298.291 697.787 298.024C698.342 297.747 699.014 297.608 699.803 297.608C700.593 297.608 701.259 297.747 701.803 298.024C702.358 298.291 702.779 298.653 703.067 299.112C703.355 299.56 703.499 300.056 703.499 300.6C703.499 301.112 703.339 301.592 703.019 302.04C702.71 302.477 702.273 302.803 701.707 303.016C702.337 303.219 702.838 303.587 703.211 304.12C703.595 304.643 703.787 305.24 703.787 305.912C703.787 306.573 703.611 307.149 703.259 307.64C702.907 308.131 702.427 308.515 701.819 308.792C701.222 309.059 700.55 309.192 699.803 309.192ZM699.803 302.472C700.422 302.472 700.907 302.312 701.259 301.992C701.622 301.672 701.803 301.261 701.803 300.76C701.803 300.195 701.627 299.763 701.275 299.464C700.923 299.165 700.433 299.016 699.803 299.016C699.174 299.016 698.683 299.165 698.331 299.464C697.979 299.763 697.803 300.195 697.803 300.76C697.803 301.261 697.979 301.672 698.331 301.992C698.683 302.312 699.174 302.472 699.803 302.472ZM699.803 307.752C700.571 307.752 701.147 307.571 701.531 307.208C701.915 306.835 702.107 306.36 702.107 305.784C702.107 305.144 701.899 304.653 701.483 304.312C701.078 303.96 700.518 303.784 699.803 303.784C699.089 303.784 698.523 303.96 698.107 304.312C697.691 304.653 697.483 305.144 697.483 305.784C697.483 306.36 697.675 306.835 698.059 307.208C698.454 307.571 699.035 307.752 699.803 307.752ZM706.189 309.096C705.869 309.096 705.603 308.995 705.389 308.792C705.187 308.579 705.085 308.328 705.085 308.04C705.085 307.741 705.187 307.491 705.389 307.288C705.603 307.075 705.869 306.968 706.189 306.968C706.509 306.968 706.771 307.075 706.973 307.288C707.176 307.491 707.277 307.741 707.277 308.04C707.277 308.328 707.176 308.579 706.973 308.792C706.771 308.995 706.509 309.096 706.189 309.096ZM712.569 309.192C711.556 309.192 710.681 308.952 709.945 308.472C709.22 307.981 708.66 307.304 708.265 306.44C707.881 305.565 707.689 304.552 707.689 303.4C707.689 302.248 707.881 301.24 708.265 300.376C708.66 299.501 709.22 298.824 709.945 298.344C710.681 297.853 711.556 297.608 712.569 297.608C713.583 297.608 714.452 297.853 715.177 298.344C715.903 298.824 716.457 299.501 716.841 300.376C717.236 301.24 717.433 302.248 717.433 303.4C717.433 304.552 717.236 305.565 716.841 306.44C716.457 307.304 715.903 307.981 715.177 308.472C714.452 308.952 713.583 309.192 712.569 309.192ZM712.569 307.672C713.177 307.672 713.716 307.501 714.185 307.16C714.665 306.819 715.039 306.328 715.305 305.688C715.572 305.048 715.705 304.285 715.705 303.4C715.705 302.515 715.572 301.752 715.305 301.112C715.039 300.472 714.665 299.981 714.185 299.64C713.716 299.299 713.177 299.128 712.569 299.128C711.951 299.128 711.407 299.299 710.937 299.64C710.468 299.981 710.1 300.472 709.833 301.112C709.567 301.752 709.433 302.515 709.433 303.4C709.433 304.285 709.567 305.048 709.833 305.688C710.1 306.328 710.468 306.819 710.937 307.16C711.407 307.501 711.951 307.672 712.569 307.672ZM722.828 309.192C722.081 309.192 721.404 309.059 720.796 308.792C720.198 308.515 719.718 308.131 719.356 307.64C719.004 307.149 718.828 306.573 718.828 305.912C718.828 305.24 719.014 304.637 719.388 304.104C719.772 303.571 720.278 303.208 720.908 303.016C720.342 302.792 719.905 302.467 719.596 302.04C719.286 301.603 719.132 301.123 719.132 300.6C719.132 300.056 719.276 299.56 719.564 299.112C719.852 298.653 720.268 298.291 720.812 298.024C721.366 297.747 722.038 297.608 722.828 297.608C723.617 297.608 724.284 297.747 724.828 298.024C725.382 298.291 725.804 298.653 726.092 299.112C726.38 299.56 726.524 300.056 726.524 300.6C726.524 301.112 726.364 301.592 726.044 302.04C725.734 302.477 725.297 302.803 724.732 303.016C725.361 303.219 725.862 303.587 726.236 304.12C726.62 304.643 726.812 305.24 726.812 305.912C726.812 306.573 726.636 307.149 726.284 307.64C725.932 308.131 725.452 308.515 724.844 308.792C724.246 309.059 723.574 309.192 722.828 309.192ZM722.828 302.472C723.446 302.472 723.932 302.312 724.284 301.992C724.646 301.672 724.828 301.261 724.828 300.76C724.828 300.195 724.652 299.763 724.3 299.464C723.948 299.165 723.457 299.016 722.828 299.016C722.198 299.016 721.708 299.165 721.356 299.464C721.004 299.763 720.828 300.195 720.828 300.76C720.828 301.261 721.004 301.672 721.356 301.992C721.708 302.312 722.198 302.472 722.828 302.472ZM722.828 307.752C723.596 307.752 724.172 307.571 724.556 307.208C724.94 306.835 725.132 306.36 725.132 305.784C725.132 305.144 724.924 304.653 724.508 304.312C724.102 303.96 723.542 303.784 722.828 303.784C722.113 303.784 721.548 303.96 721.132 304.312C720.716 304.653 720.508 305.144 720.508 305.784C720.508 306.36 720.7 306.835 721.084 307.208C721.478 307.571 722.06 307.752 722.828 307.752Z" fill="white" fill-opacity="0.3"/>
<path d="M254.608 309V299.72L252.8 300.136V298.888L255.28 297.8H256.368V309H254.608ZM261.907 309.192C261.182 309.192 260.521 309.064 259.923 308.808C259.337 308.541 258.867 308.141 258.515 307.608C258.163 307.075 257.977 306.408 257.955 305.608H259.635C259.657 306.205 259.859 306.712 260.243 307.128C260.638 307.533 261.193 307.736 261.907 307.736C262.59 307.736 263.113 307.549 263.475 307.176C263.838 306.792 264.019 306.317 264.019 305.752C264.019 305.069 263.774 304.563 263.283 304.232C262.803 303.901 262.211 303.736 261.507 303.736H260.675V302.328H261.523C262.153 302.328 262.659 302.179 263.043 301.88C263.438 301.581 263.635 301.16 263.635 300.616C263.635 300.157 263.481 299.784 263.171 299.496C262.873 299.208 262.446 299.064 261.891 299.064C261.315 299.064 260.862 299.235 260.531 299.576C260.201 299.907 260.019 300.323 259.987 300.824H258.307C258.329 300.173 258.489 299.608 258.787 299.128C259.097 298.648 259.518 298.275 260.051 298.008C260.585 297.741 261.198 297.608 261.891 297.608C262.638 297.608 263.262 297.741 263.763 298.008C264.275 298.264 264.659 298.616 264.915 299.064C265.182 299.501 265.315 299.981 265.315 300.504C265.315 301.101 265.15 301.624 264.819 302.072C264.489 302.52 264.046 302.819 263.491 302.968C264.131 303.107 264.659 303.421 265.075 303.912C265.491 304.392 265.699 305.016 265.699 305.784C265.699 306.403 265.555 306.973 265.267 307.496C264.979 308.008 264.553 308.419 263.987 308.728C263.422 309.037 262.729 309.192 261.907 309.192ZM268.08 309.096C267.76 309.096 267.493 308.995 267.28 308.792C267.077 308.579 266.976 308.328 266.976 308.04C266.976 307.741 267.077 307.491 267.28 307.288C267.493 307.075 267.76 306.968 268.08 306.968C268.4 306.968 268.661 307.075 268.864 307.288C269.067 307.491 269.168 307.741 269.168 308.04C269.168 308.328 269.067 308.579 268.864 308.792C268.661 308.995 268.4 309.096 268.08 309.096ZM274.46 309.192C273.447 309.192 272.572 308.952 271.836 308.472C271.111 307.981 270.551 307.304 270.156 306.44C269.772 305.565 269.58 304.552 269.58 303.4C269.58 302.248 269.772 301.24 270.156 300.376C270.551 299.501 271.111 298.824 271.836 298.344C272.572 297.853 273.447 297.608 274.46 297.608C275.473 297.608 276.343 297.853 277.068 298.344C277.793 298.824 278.348 299.501 278.732 300.376C279.127 301.24 279.324 302.248 279.324 303.4C279.324 304.552 279.127 305.565 278.732 306.44C278.348 307.304 277.793 307.981 277.068 308.472C276.343 308.952 275.473 309.192 274.46 309.192ZM274.46 307.672C275.068 307.672 275.607 307.501 276.076 307.16C276.556 306.819 276.929 306.328 277.196 305.688C277.463 305.048 277.596 304.285 277.596 303.4C277.596 302.515 277.463 301.752 277.196 301.112C276.929 300.472 276.556 299.981 276.076 299.64C275.607 299.299 275.068 299.128 274.46 299.128C273.841 299.128 273.297 299.299 272.828 299.64C272.359 299.981 271.991 300.472 271.724 301.112C271.457 301.752 271.324 302.515 271.324 303.4C271.324 304.285 271.457 305.048 271.724 305.688C271.991 306.328 272.359 306.819 272.828 307.16C273.297 307.501 273.841 307.672 274.46 307.672ZM284.718 309.192C283.972 309.192 283.294 309.059 282.686 308.792C282.089 308.515 281.609 308.131 281.246 307.64C280.894 307.149 280.718 306.573 280.718 305.912C280.718 305.24 280.905 304.637 281.278 304.104C281.662 303.571 282.169 303.208 282.798 303.016C282.233 302.792 281.796 302.467 281.486 302.04C281.177 301.603 281.022 301.123 281.022 300.6C281.022 300.056 281.166 299.56 281.454 299.112C281.742 298.653 282.158 298.291 282.702 298.024C283.257 297.747 283.929 297.608 284.718 297.608C285.508 297.608 286.174 297.747 286.718 298.024C287.273 298.291 287.694 298.653 287.982 299.112C288.27 299.56 288.414 300.056 288.414 300.6C288.414 301.112 288.254 301.592 287.934 302.04C287.625 302.477 287.188 302.803 286.622 303.016C287.252 303.219 287.753 303.587 288.126 304.12C288.51 304.643 288.702 305.24 288.702 305.912C288.702 306.573 288.526 307.149 288.174 307.64C287.822 308.131 287.342 308.515 286.734 308.792C286.137 309.059 285.465 309.192 284.718 309.192ZM284.718 302.472C285.337 302.472 285.822 302.312 286.174 301.992C286.537 301.672 286.718 301.261 286.718 300.76C286.718 300.195 286.542 299.763 286.19 299.464C285.838 299.165 285.348 299.016 284.718 299.016C284.089 299.016 283.598 299.165 283.246 299.464C282.894 299.763 282.718 300.195 282.718 300.76C282.718 301.261 282.894 301.672 283.246 301.992C283.598 302.312 284.089 302.472 284.718 302.472ZM284.718 307.752C285.486 307.752 286.062 307.571 286.446 307.208C286.83 306.835 287.022 306.36 287.022 305.784C287.022 305.144 286.814 304.653 286.398 304.312C285.993 303.96 285.433 303.784 284.718 303.784C284.004 303.784 283.438 303.96 283.022 304.312C282.606 304.653 282.398 305.144 282.398 305.784C282.398 306.36 282.59 306.835 282.974 307.208C283.369 307.571 283.95 307.752 284.718 307.752Z" fill="white" fill-opacity="0.3"/>
<g clip-path="url(#clip0_1_216)">
<rect x="30" y="30" width="917" height="263" fill="url(#paint0_linear_1_216)"/>
<path d="M918 63.8621C929.769 62.8958 947 63.1794 947 63.1794V193H30V88.0085C70.9967 88.2361 59.5306 96.7023 74 98.0676C102.78 100.783 126.164 91.6494 154.5 88.0085C169.539 86.0761 179.605 82.1562 189 77.3208C195.632 73.9074 205.224 55.4222 217 54.76C234.484 53.7768 245.619 51.3467 262.5 54.76C279.115 58.1195 295.72 68.4433 313.963 70.2336C334.254 72.2251 347.686 86.5236 365.5 82.3503C382.984 78.2543 383.81 73.1918 402.5 70.2336C408.398 69.3 433.134 63.4133 439.5 63.1794C499.789 60.9647 479.31 74.891 524.5 76.6921C538.209 77.2384 559.088 69.0319 572.5 70.2336C587.571 71.5839 595.428 67.2097 610.586 68.4132C628.121 69.8054 633.662 81.7085 651.5 82.3503C668.77 82.9716 713.168 97.7832 730.5 98.0676C785.966 98.9778 791.671 91.1474 828.5 88.0085C847.19 86.4156 857.561 78.2849 886.5 76.6921C902.683 75.8013 902.019 65.1741 918 63.8621Z" fill="black"/>
<path d="M918 63.8621C929.769 62.8958 947 63.1794 947 63.1794V193H30V88.0085C70.9967 88.2361 59.5306 96.7023 74 98.0676C102.78 100.783 126.164 91.6494 154.5 88.0085C169.539 86.0761 179.605 82.1562 189 77.3208C195.632 73.9074 205.224 55.4222 217 54.76C234.484 53.7768 245.619 51.3467 262.5 54.76C279.115 58.1195 295.72 68.4433 313.963 70.2336C334.254 72.2251 347.686 86.5236 365.5 82.3503C382.984 78.2543 383.81 73.1918 402.5 70.2336C408.398 69.3 433.134 63.4133 439.5 63.1794C499.789 60.9647 479.31 74.891 524.5 76.6921C538.209 77.2384 559.088 69.0319 572.5 70.2336C587.571 71.5839 595.428 67.2097 610.586 68.4132C628.121 69.8054 633.662 81.7085 651.5 82.3503C668.77 82.9716 713.168 97.7832 730.5 98.0676C785.966 98.9778 791.671 91.1474 828.5 88.0085C847.19 86.4156 857.561 78.2849 886.5 76.6921C902.683 75.8013 902.019 65.1741 918 63.8621Z" fill="url(#paint1_linear_1_216)"/>
<path d="M918 63.8621C929.769 62.8958 947 63.1794 947 63.1794V193H30V88.0085C70.9967 88.2361 59.5306 96.7023 74 98.0676C102.78 100.783 126.164 91.6494 154.5 88.0085C169.539 86.0761 179.605 82.1562 189 77.3208C195.632 73.9074 205.224 55.4222 217 54.76C234.484 53.7768 245.619 51.3467 262.5 54.76C279.115 58.1195 295.72 68.4433 313.963 70.2336C334.254 72.2251 347.686 86.5236 365.5 82.3503C382.984 78.2543 383.81 73.1918 402.5 70.2336C408.398 69.3 433.134 63.4133 439.5 63.1794C499.789 60.9647 479.31 74.891 524.5 76.6921C538.209 77.2384 559.088 69.0319 572.5 70.2336C587.571 71.5839 595.428 67.2097 610.586 68.4132C628.121 69.8054 633.662 81.7085 651.5 82.3503C668.77 82.9716 713.168 97.7832 730.5 98.0676C785.966 98.9778 791.671 91.1474 828.5 88.0085C847.19 86.4156 857.561 78.2849 886.5 76.6921C902.683 75.8013 902.019 65.1741 918 63.8621Z" fill="url(#paint2_linear_1_216)"/>
<path d="M918 63.8621C929.769 62.8958 947 63.1794 947 63.1794V193H30V88.0085C70.9967 88.2361 59.5306 96.7023 74 98.0676C102.78 100.783 126.164 91.6494 154.5 88.0085C169.539 86.0761 179.605 82.1562 189 77.3208C195.632 73.9074 205.224 55.4222 217 54.76C234.484 53.7768 245.619 51.3467 262.5 54.76C279.115 58.1195 295.72 68.4433 313.963 70.2336C334.254 72.2251 347.686 86.5236 365.5 82.3503C382.984 78.2543 383.81 73.1918 402.5 70.2336C408.398 69.3 433.134 63.4133 439.5 63.1794C499.789 60.9647 479.31 74.891 524.5 76.6921C538.209 77.2384 559.088 69.0319 572.5 70.2336C587.571 71.5839 595.428 67.2097 610.586 68.4132C628.121 69.8054 633.662 81.7085 651.5 82.3503C668.77 82.9716 713.168 97.7832 730.5 98.0676C785.966 98.9778 791.671 91.1474 828.5 88.0085C847.19 86.4156 857.561 78.2849 886.5 76.6921C902.683 75.8013 902.019 65.1741 918 63.8621Z" fill="url(#paint3_linear_1_216)"/>
<path d="M918 63.8621C929.769 62.8958 947 63.1794 947 63.1794V193H30V88.0085C70.9967 88.2361 59.5306 96.7023 74 98.0676C102.78 100.783 126.164 91.6494 154.5 88.0085C169.539 86.0761 179.605 82.1562 189 77.3208C195.632 73.9074 205.224 55.4222 217 54.76C234.484 53.7768 245.619 51.3467 262.5 54.76C279.115 58.1195 295.72 68.4433 313.963 70.2336C334.254 72.2251 347.686 86.5236 365.5 82.3503C382.984 78.2543 383.81 73.1918 402.5 70.2336C408.398 69.3 433.134 63.4133 439.5 63.1794C499.789 60.9647 479.31 74.891 524.5 76.6921C538.209 77.2384 559.088 69.0319 572.5 70.2336C587.571 71.5839 595.428 67.2097 610.586 68.4132C628.121 69.8054 633.662 81.7085 651.5 82.3503C668.77 82.9716 713.168 97.7832 730.5 98.0676C785.966 98.9778 791.671 91.1474 828.5 88.0085C847.19 86.4156 857.561 78.2849 886.5 76.6921C902.683 75.8013 902.019 65.1741 918 63.8621Z" fill="url(#paint4_linear_1_216)"/>
<path d="M59 74.9627C47.2307 73.9523 30 74.2488 30 74.2488V210H947V100.212C906.003 100.45 917.469 109.303 903 110.731C874.22 113.571 850.836 104.019 822.5 100.212C807.461 98.1915 797.395 94.0925 788 89.0362C781.368 85.467 765.776 85.1268 754 84.4343C736.516 83.4061 727.881 78.0561 711 81.6254C694.385 85.1383 681.28 79.7532 663.037 81.6253C642.746 83.7077 629.314 98.6594 611.5 94.2955C594.016 90.0124 593.19 84.7186 574.5 81.6253C568.602 80.649 543.866 74.4934 537.5 74.2488C477.211 71.933 497.69 86.4955 452.5 88.3788C438.791 88.9501 417.912 80.3687 404.5 81.6253C389.429 83.0372 381.572 78.4632 366.414 79.7217C348.879 81.1775 343.338 93.6244 325.5 94.2955C308.23 94.9452 257.832 99.9148 240.5 100.212C185.034 101.164 185.329 103.494 148.5 100.212C129.81 98.5466 119.439 90.0444 90.5 88.3788C74.3167 87.4473 74.9808 76.3347 59 74.9627Z" fill="black"/>
<path d="M59 74.9627C47.2307 73.9523 30 74.2488 30 74.2488V210H947V100.212C906.003 100.45 917.469 109.303 903 110.731C874.22 113.571 850.836 104.019 822.5 100.212C807.461 98.1915 797.395 94.0925 788 89.0362C781.368 85.467 765.776 85.1268 754 84.4343C736.516 83.4061 727.881 78.0561 711 81.6254C694.385 85.1383 681.28 79.7532 663.037 81.6253C642.746 83.7077 629.314 98.6594 611.5 94.2955C594.016 90.0124 593.19 84.7186 574.5 81.6253C568.602 80.649 543.866 74.4934 537.5 74.2488C477.211 71.933 497.69 86.4955 452.5 88.3788C438.791 88.9501 417.912 80.3687 404.5 81.6253C389.429 83.0372 381.572 78.4632 366.414 79.7217C348.879 81.1775 343.338 93.6244 325.5 94.2955C308.23 94.9452 257.832 99.9148 240.5 100.212C185.034 101.164 185.329 103.494 148.5 100.212C129.81 98.5466 119.439 90.0444 90.5 88.3788C74.3167 87.4473 74.9808 76.3347 59 74.9627Z" fill="url(#paint5_linear_1_216)"/>
<path d="M59 74.9627C47.2307 73.9523 30 74.2488 30 74.2488V210H947V100.212C906.003 100.45 917.469 109.303 903 110.731C874.22 113.571 850.836 104.019 822.5 100.212C807.461 98.1915 797.395 94.0925 788 89.0362C781.368 85.467 765.776 85.1268 754 84.4343C736.516 83.4061 727.881 78.0561 711 81.6254C694.385 85.1383 681.28 79.7532 663.037 81.6253C642.746 83.7077 629.314 98.6594 611.5 94.2955C594.016 90.0124 593.19 84.7186 574.5 81.6253C568.602 80.649 543.866 74.4934 537.5 74.2488C477.211 71.933 497.69 86.4955 452.5 88.3788C438.791 88.9501 417.912 80.3687 404.5 81.6253C389.429 83.0372 381.572 78.4632 366.414 79.7217C348.879 81.1775 343.338 93.6244 325.5 94.2955C308.23 94.9452 257.832 99.9148 240.5 100.212C185.034 101.164 185.329 103.494 148.5 100.212C129.81 98.5466 119.439 90.0444 90.5 88.3788C74.3167 87.4473 74.9808 76.3347 59 74.9627Z" fill="url(#paint6_linear_1_216)"/>
<path d="M59 74.9627C47.2307 73.9523 30 74.2488 30 74.2488V210H947V100.212C906.003 100.45 917.469 109.303 903 110.731C874.22 113.571 850.836 104.019 822.5 100.212C807.461 98.1915 797.395 94.0925 788 89.0362C781.368 85.467 765.776 85.1268 754 84.4343C736.516 83.4061 727.881 78.0561 711 81.6254C694.385 85.1383 681.28 79.7532 663.037 81.6253C642.746 83.7077 629.314 98.6594 611.5 94.2955C594.016 90.0124 593.19 84.7186 574.5 81.6253C568.602 80.649 543.866 74.4934 537.5 74.2488C477.211 71.933 497.69 86.4955 452.5 88.3788C438.791 88.9501 417.912 80.3687 404.5 81.6253C389.429 83.0372 381.572 78.4632 366.414 79.7217C348.879 81.1775 343.338 93.6244 325.5 94.2955C308.23 94.9452 257.832 99.9148 240.5 100.212C185.034 101.164 185.329 103.494 148.5 100.212C129.81 98.5466 119.439 90.0444 90.5 88.3788C74.3167 87.4473 74.9808 76.3347 59 74.9627Z" fill="url(#paint7_linear_1_216)"/>
<path d="M59 74.9627C47.2307 73.9523 30 74.2488 30 74.2488V210H947V100.212C906.003 100.45 917.469 109.303 903 110.731C874.22 113.571 850.836 104.019 822.5 100.212C807.461 98.1915 797.395 94.0925 788 89.0362C781.368 85.467 765.776 85.1268 754 84.4343C736.516 83.4061 727.881 78.0561 711 81.6254C694.385 85.1383 681.28 79.7532 663.037 81.6253C642.746 83.7077 629.314 98.6594 611.5 94.2955C594.016 90.0124 593.19 84.7186 574.5 81.6253C568.602 80.649 543.866 74.4934 537.5 74.2488C477.211 71.933 497.69 86.4955 452.5 88.3788C438.791 88.9501 417.912 80.3687 404.5 81.6253C389.429 83.0372 381.572 78.4632 366.414 79.7217C348.879 81.1775 343.338 93.6244 325.5 94.2955C308.23 94.9452 257.832 99.9148 240.5 100.212C185.034 101.164 185.329 103.494 148.5 100.212C129.81 98.5466 119.439 90.0444 90.5 88.3788C74.3167 87.4473 74.9808 76.3347 59 74.9627Z" fill="url(#paint8_linear_1_216)"/>
<path d="M918 108.213C929.769 107.257 947 95 947 95V236H30V121.531C70.9967 121.756 63.0306 125.157 77.5 126.508C106.28 129.195 130.08 115.193 158.416 111.591C173.455 109.678 182.105 112.998 191.5 108.213C198.132 104.835 205.224 99.8614 217 99.2061C234.484 98.2332 244.119 101.007 261 104.385C277.615 107.709 295.72 112.746 313.963 114.518C334.254 116.488 348.6 116.621 366.414 112.491C383.898 108.438 388.31 111.14 407 108.213C412.898 107.289 433.134 107.769 439.5 107.537C499.789 105.346 481.594 100.801 526.784 102.584C540.493 103.124 559.088 113.329 572.5 114.518C587.571 115.854 595.428 111.526 610.586 112.716C628.121 114.094 639.171 113.432 657.009 114.068C674.278 114.682 715.168 125.604 732.5 125.886C787.966 126.786 791.171 124.015 828 120.909C846.69 119.333 850.061 115.644 879 114.068C895.183 113.186 902.019 109.511 918 108.213Z" fill="black"/>
<path d="M918 108.213C929.769 107.257 947 95 947 95V236H30V121.531C70.9967 121.756 63.0306 125.157 77.5 126.508C106.28 129.195 130.08 115.193 158.416 111.591C173.455 109.678 182.105 112.998 191.5 108.213C198.132 104.835 205.224 99.8614 217 99.2061C234.484 98.2332 244.119 101.007 261 104.385C277.615 107.709 295.72 112.746 313.963 114.518C334.254 116.488 348.6 116.621 366.414 112.491C383.898 108.438 388.31 111.14 407 108.213C412.898 107.289 433.134 107.769 439.5 107.537C499.789 105.346 481.594 100.801 526.784 102.584C540.493 103.124 559.088 113.329 572.5 114.518C587.571 115.854 595.428 111.526 610.586 112.716C628.121 114.094 639.171 113.432 657.009 114.068C674.278 114.682 715.168 125.604 732.5 125.886C787.966 126.786 791.171 124.015 828 120.909C846.69 119.333 850.061 115.644 879 114.068C895.183 113.186 902.019 109.511 918 108.213Z" fill="url(#paint9_linear_1_216)"/>
<path d="M918 108.213C929.769 107.257 947 95 947 95V236H30V121.531C70.9967 121.756 63.0306 125.157 77.5 126.508C106.28 129.195 130.08 115.193 158.416 111.591C173.455 109.678 182.105 112.998 191.5 108.213C198.132 104.835 205.224 99.8614 217 99.2061C234.484 98.2332 244.119 101.007 261 104.385C277.615 107.709 295.72 112.746 313.963 114.518C334.254 116.488 348.6 116.621 366.414 112.491C383.898 108.438 388.31 111.14 407 108.213C412.898 107.289 433.134 107.769 439.5 107.537C499.789 105.346 481.594 100.801 526.784 102.584C540.493 103.124 559.088 113.329 572.5 114.518C587.571 115.854 595.428 111.526 610.586 112.716C628.121 114.094 639.171 113.432 657.009 114.068C674.278 114.682 715.168 125.604 732.5 125.886C787.966 126.786 791.171 124.015 828 120.909C846.69 119.333 850.061 115.644 879 114.068C895.183 113.186 902.019 109.511 918 108.213Z" fill="url(#paint10_linear_1_216)"/>
<path d="M60.7475 129.192C48.9782 128.245 30 128.3 30 128.3V268H947V140.722C906.003 140.945 906.606 143.399 892.137 144.738C863.357 147.4 846.92 148.307 818.584 144.738C803.545 142.843 796.025 137.208 786.63 132.467C779.999 129.121 771.276 126.272 759.5 125.623C742.016 124.659 731.164 124.436 714.283 127.782C697.668 131.076 681.28 145.883 663.037 147.638C642.746 149.59 628.4 149.722 610.586 145.63C593.102 141.614 587.073 130.906 568.383 128.005C562.485 127.09 556.663 126.968 550.297 126.738C490.007 124.567 495.406 134.048 450.216 135.814C436.507 136.349 418.412 136.42 404.999 137.599C389.929 138.922 381.572 144.673 366.414 145.853C348.879 147.218 337.829 146.562 319.991 147.192L318.315 147.251C300.384 147.884 264.435 149.153 247.644 149.423C192.178 150.315 192.834 144.469 156.005 141.391C137.315 139.829 131.889 141.391 102.95 139.829C86.7667 138.956 76.7283 130.479 60.7475 129.192Z" fill="black"/>
<path d="M60.7475 129.192C48.9782 128.245 30 128.3 30 128.3V268H947V140.722C906.003 140.945 906.606 143.399 892.137 144.738C863.357 147.4 846.92 148.307 818.584 144.738C803.545 142.843 796.025 137.208 786.63 132.467C779.999 129.121 771.276 126.272 759.5 125.623C742.016 124.659 731.164 124.436 714.283 127.782C697.668 131.076 681.28 145.883 663.037 147.638C642.746 149.59 628.4 149.722 610.586 145.63C593.102 141.614 587.073 130.906 568.383 128.005C562.485 127.09 556.663 126.968 550.297 126.738C490.007 124.567 495.406 134.048 450.216 135.814C436.507 136.349 418.412 136.42 404.999 137.599C389.929 138.922 381.572 144.673 366.414 145.853C348.879 147.218 337.829 146.562 319.991 147.192L318.315 147.251C300.384 147.884 264.435 149.153 247.644 149.423C192.178 150.315 192.834 144.469 156.005 141.391C137.315 139.829 131.889 141.391 102.95 139.829C86.7667 138.956 76.7283 130.479 60.7475 129.192Z" fill="url(#paint11_linear_1_216)"/>
<rect x="45" y="30" width="15.0339" height="263" fill="#0F0F0F"/>
<rect x="75.0684" y="30" width="15.0339" height="263" fill="#0F0F0F"/>
<rect x="105.135" y="30" width="15.0339" height="263" fill="#0F0F0F"/>
<rect x="135.203" y="30" width="15.0339" height="263" fill="#0F0F0F"/>
<rect x="165.271" y="30" width="15.0339" height="263" fill="#0F0F0F"/>
<rect x="195.34" y="30" width="15.0339" height="263" fill="#0F0F0F"/>
<rect x="225.406" y="30" width="15.0339" height="263" fill="#0F0F0F"/>
<rect x="255.475" y="30" width="15.0339" height="263" fill="#0F0F0F"/>
<rect x="285.543" y="30" width="15.0339" height="263" fill="#0F0F0F"/>
<rect x="315.609" y="30" width="15.0339" height="263" fill="#0F0F0F"/>
<rect x="345.678" y="30" width="15.0339" height="263" fill="#0F0F0F"/>
<rect x="375.746" y="30" width="15.0339" height="263" fill="#0F0F0F"/>
<rect x="405.814" y="30" width="15.0339" height="263" fill="#0F0F0F"/>
<rect x="435.881" y="30" width="15.0339" height="263" fill="#0F0F0F"/>
<rect x="465.949" y="30" width="15.0339" height="263" fill="#0F0F0F"/>
<rect x="496.018" y="30" width="15.0339" height="263" fill="#0F0F0F"/>
<rect x="526.084" y="30" width="15.0339" height="263" fill="#0F0F0F"/>
<rect x="556.153" y="30" width="15.0339" height="263" fill="#0F0F0F"/>
<rect x="586.221" y="30" width="15.0339" height="263" fill="#0F0F0F"/>
<rect x="616.289" y="30" width="15.0339" height="263" fill="#0F0F0F"/>
<rect x="646.355" y="30" width="15.0339" height="263" fill="#0F0F0F"/>
<rect x="676.424" y="30" width="15.0339" height="263" fill="#0F0F0F"/>
<rect x="706.492" y="30" width="15.0339" height="263" fill="#0F0F0F"/>
<rect x="736.559" y="30" width="15.0339" height="263" fill="#0F0F0F"/>
<rect x="766.627" y="30" width="15.0339" height="263" fill="#0F0F0F"/>
<rect x="796.695" y="30" width="15.0339" height="263" fill="#0F0F0F"/>
<rect x="826.762" y="30" width="15.0339" height="263" fill="#0F0F0F"/>
<rect x="856.83" y="30" width="15.0339" height="263" fill="#0F0F0F"/>
<rect x="886.898" y="30" width="15.0339" height="263" fill="#0F0F0F"/>
<rect x="916.967" y="30" width="15.0339" height="263" fill="#0F0F0F"/>
</g>
<defs>
<linearGradient id="paint0_linear_1_216" x1="947" y1="157.737" x2="30.0021" y2="159.12" gradientUnits="userSpaceOnUse">
<stop stop-color="white" stop-opacity="0.6"/>
<stop offset="1" stop-color="white" stop-opacity="0.3"/>
</linearGradient>
<linearGradient id="paint1_linear_1_216" x1="947" y1="193" x2="639.027" y2="-319.112" gradientUnits="userSpaceOnUse">
<stop stop-color="#20D691"/>
<stop offset="1" stop-color="#7AE5B5"/>
</linearGradient>
<linearGradient id="paint2_linear_1_216" x1="947" y1="193" x2="639.027" y2="-319.112" gradientUnits="userSpaceOnUse">
<stop stop-color="#D6C420"/>
<stop offset="1" stop-color="#E5DA7A"/>
</linearGradient>
<linearGradient id="paint3_linear_1_216" x1="947" y1="193" x2="649.472" y2="-313.43" gradientUnits="userSpaceOnUse">
<stop stop-color="#20D6CB"/>
<stop offset="1" stop-color="#7AE5DF"/>
</linearGradient>
<linearGradient id="paint4_linear_1_216" x1="947" y1="193" x2="657.205" y2="-309.043" gradientUnits="userSpaceOnUse">
<stop stop-color="#A720D6"/>
<stop offset="1" stop-color="#C37AE5"/>
</linearGradient>
<linearGradient id="paint5_linear_1_216" x1="29.9999" y1="210" x2="358.598" y2="-312.537" gradientUnits="userSpaceOnUse">
<stop stop-color="#20D691"/>
<stop offset="1" stop-color="#7AE5B5"/>
</linearGradient>
<linearGradient id="paint6_linear_1_216" x1="29.9999" y1="210" x2="358.598" y2="-312.537" gradientUnits="userSpaceOnUse">
<stop stop-color="#D6C420"/>
<stop offset="1" stop-color="#E5DA7A"/>
</linearGradient>
<linearGradient id="paint7_linear_1_216" x1="29.9999" y1="210" x2="347.714" y2="-307.165" gradientUnits="userSpaceOnUse">
<stop stop-color="#20D6CB"/>
<stop offset="1" stop-color="#7AE5DF"/>
</linearGradient>
<linearGradient id="paint8_linear_1_216" x1="30" y1="210" x2="307.376" y2="-284.662" gradientUnits="userSpaceOnUse">
<stop offset="0.0001" stop-color="#D67720"/>
<stop offset="1" stop-color="#E5AD7A"/>
</linearGradient>
<linearGradient id="paint9_linear_1_216" x1="947" y1="236" x2="643.761" y2="-273.572" gradientUnits="userSpaceOnUse">
<stop stop-color="#20D691"/>
<stop offset="1" stop-color="#7AE5B5"/>
</linearGradient>
<linearGradient id="paint10_linear_1_216" x1="947" y1="236" x2="643.761" y2="-273.572" gradientUnits="userSpaceOnUse">
<stop stop-color="#D6C420"/>
<stop offset="1" stop-color="#E5DA7A"/>
</linearGradient>
<linearGradient id="paint11_linear_1_216" x1="30" y1="268" x2="329.109" y2="-239.309" gradientUnits="userSpaceOnUse">
<stop stop-color="#20D691"/>
<stop offset="1" stop-color="#7AE5B5"/>
</linearGradient>
<clipPath id="clip0_1_216">
<rect width="917" height="238" fill="white" transform="translate(30 30)"/>
</clipPath>
</defs>
</svg>
