<svg width="111" height="20" viewBox="0 0 111 20" fill="none" xmlns="http://www.w3.org/2000/svg">
<path d="M74.964 0.877999V19H72.598V10.784H63.368V19H61.002V0.877999H63.368V8.834H72.598V0.877999H74.964ZM81.318 0.877999V12.344C81.318 13.956 81.708 15.152 82.488 15.932C83.2853 16.712 84.386 17.102 85.79 17.102C87.1766 17.102 88.26 16.712 89.04 15.932C89.8373 15.152 90.236 13.956 90.236 12.344V0.877999H92.602V12.318C92.602 13.826 92.2986 15.1 91.692 16.14C91.0853 17.1627 90.262 17.9253 89.222 18.428C88.1993 18.9307 87.0466 19.182 85.764 19.182C84.4813 19.182 83.32 18.9307 82.28 18.428C81.2573 17.9253 80.4426 17.1627 79.836 16.14C79.2466 15.1 78.952 13.826 78.952 12.318V0.877999H81.318ZM105.623 9.666C106.282 9.77 106.88 10.0387 107.417 10.472C107.972 10.9053 108.405 11.4427 108.717 12.084C109.046 12.7253 109.211 13.41 109.211 14.138C109.211 15.0567 108.977 15.8887 108.509 16.634C108.041 17.362 107.356 17.9427 106.455 18.376C105.571 18.792 104.522 19 103.309 19H96.5489V0.877999H103.049C104.28 0.877999 105.328 1.086 106.195 1.502C107.062 1.90067 107.712 2.44667 108.145 3.14C108.578 3.83333 108.795 4.61333 108.795 5.48C108.795 6.55467 108.5 7.44733 107.911 8.158C107.339 8.85133 106.576 9.354 105.623 9.666ZM98.9149 8.704H102.893C104.002 8.704 104.86 8.444 105.467 7.924C106.074 7.404 106.377 6.68467 106.377 5.766C106.377 4.84733 106.074 4.128 105.467 3.608C104.86 3.088 103.985 2.828 102.841 2.828H98.9149V8.704ZM103.101 17.05C104.28 17.05 105.198 16.7727 105.857 16.218C106.516 15.6633 106.845 14.892 106.845 13.904C106.845 12.8987 106.498 12.11 105.805 11.538C105.112 10.9487 104.184 10.654 103.023 10.654H98.9149V17.05H103.101Z" fill="white"/>
<path fill-rule="evenodd" clip-rule="evenodd" d="M9.29596 0.430351C9.16307 0.249245 8.97587 0.115253 8.76159 0.0478644V0.04892C8.54749 -0.0186344 8.31742 -0.0161659 8.10482 0.055967C7.89222 0.1281 7.70815 0.26614 7.57937 0.450031L0.19047 11.0056C0.0798347 11.1638 0.0147215 11.3494 0.00221649 11.5421C-0.0102885 11.7347 0.0302936 11.9272 0.119547 12.0984C0.2088 12.2696 0.343304 12.413 0.508422 12.5131C0.67354 12.6132 0.862946 12.6661 1.05603 12.666H5.27825V17.9438C5.27811 18.1684 5.34966 18.3873 5.48249 18.5685C5.61533 18.7497 5.80252 18.8838 6.01682 18.9513C6.23113 19.0188 6.46137 19.0161 6.67406 18.9437C6.88674 18.8712 7.07077 18.7328 7.19936 18.5486L14.5883 7.99304C14.6989 7.8348 14.764 7.64924 14.7765 7.45657C14.789 7.26389 14.7484 7.07148 14.6592 6.90027C14.5699 6.72905 14.4354 6.5856 14.2703 6.48552C14.1052 6.38544 13.9158 6.33256 13.7227 6.33265H9.50048V1.05487C9.50049 0.830235 9.42885 0.611458 9.29596 0.430351ZM26.058 8.002V4.31H32.792V0.747999H21.612V19H32.792V15.438H26.058V11.434H32.012V8.002H26.058ZM46.3384 19L52.8124 0.747999H48.1064L43.5564 14.528L39.0324 0.747999H34.3004L40.7744 19H46.3384Z" fill="white"/>
<path fill-rule="evenodd" clip-rule="evenodd" d="M9.29596 0.430351C9.16307 0.249245 8.97587 0.115253 8.76159 0.0478644V0.04892C8.54749 -0.0186344 8.31742 -0.0161659 8.10482 0.055967C7.89222 0.1281 7.70815 0.26614 7.57937 0.450031L0.19047 11.0056C0.0798347 11.1638 0.0147215 11.3494 0.00221649 11.5421C-0.0102885 11.7347 0.0302936 11.9272 0.119547 12.0984C0.2088 12.2696 0.343304 12.413 0.508422 12.5131C0.67354 12.6132 0.862946 12.6661 1.05603 12.666H5.27825V17.9438C5.27811 18.1684 5.34966 18.3873 5.48249 18.5685C5.61533 18.7497 5.80252 18.8838 6.01682 18.9513C6.23113 19.0188 6.46137 19.0161 6.67406 18.9437C6.88674 18.8712 7.07077 18.7328 7.19936 18.5486L14.5883 7.99304C14.6989 7.8348 14.764 7.64924 14.7765 7.45657C14.789 7.26389 14.7484 7.07148 14.6592 6.90027C14.5699 6.72905 14.4354 6.5856 14.2703 6.48552C14.1052 6.38544 13.9158 6.33256 13.7227 6.33265H9.50048V1.05487C9.50049 0.830235 9.42885 0.611458 9.29596 0.430351ZM26.058 8.002V4.31H32.792V0.747999H21.612V19H32.792V15.438H26.058V11.434H32.012V8.002H26.058ZM46.3384 19L52.8124 0.747999H48.1064L43.5564 14.528L39.0324 0.747999H34.3004L40.7744 19H46.3384Z" fill="url(#paint0_linear_1_530)"/>
<defs>
<linearGradient id="paint0_linear_1_530" x1="7.56353e-07" y1="19" x2="43.3505" y2="-12.8702" gradientUnits="userSpaceOnUse">
<stop stop-color="#20D691"/>
<stop offset="1" stop-color="#7AE5B5"/>
</linearGradient>
</defs>
</svg>
