<svg width="85" height="19" viewBox="0 0 85 19" fill="none" xmlns="http://www.w3.org/2000/svg">
<path fill-rule="evenodd" clip-rule="evenodd" d="M9.29596 0.430351C9.16307 0.249245 8.97587 0.115253 8.76159 0.0478644V0.04892C8.54749 -0.0186344 8.31742 -0.0161659 8.10482 0.055967C7.89222 0.1281 7.70815 0.266139 7.57937 0.450031L0.19047 11.0056C0.0798347 11.1638 0.0147215 11.3494 0.00221649 11.5421C-0.0102885 11.7347 0.0302936 11.9272 0.119547 12.0984C0.2088 12.2696 0.343304 12.413 0.508422 12.5131C0.67354 12.6132 0.862946 12.6661 1.05603 12.666H5.27825V17.9438C5.27811 18.1684 5.34966 18.3873 5.48249 18.5685C5.61533 18.7497 5.80252 18.8838 6.01682 18.9513C6.23113 19.0188 6.46137 19.0161 6.67406 18.9437C6.88674 18.8712 7.07077 18.7328 7.19936 18.5486L14.5883 7.99304C14.6989 7.8348 14.764 7.64924 14.7765 7.45657C14.789 7.26389 14.7484 7.07148 14.6592 6.90027C14.5699 6.72905 14.4354 6.5856 14.2703 6.48552C14.1052 6.38544 13.9158 6.33256 13.7227 6.33265H9.50048V1.05487C9.50049 0.830235 9.42885 0.611458 9.29596 0.430351ZM23.248 14.472C24.0587 14.952 25.0187 15.192 26.128 15.192C27.44 15.192 28.512 14.8773 29.344 14.248C30.176 13.6187 30.704 12.7493 30.928 11.64H29.04C28.8907 12.2693 28.5707 12.7653 28.08 13.128C27.5893 13.4907 26.9333 13.672 26.112 13.672C24.992 13.672 24.1067 13.2933 23.456 12.536C22.8053 11.7787 22.48 10.7387 22.48 9.416C22.48 8.08267 22.8053 7.03733 23.456 6.28C24.1067 5.512 24.992 5.128 26.112 5.128C26.9333 5.128 27.5893 5.32 28.08 5.704C28.5707 6.088 28.8907 6.60533 29.04 7.256H30.928C30.704 6.104 30.176 5.208 29.344 4.568C28.512 3.928 27.44 3.608 26.128 3.608C25.0187 3.608 24.0587 3.85333 23.248 4.344C22.448 4.83467 21.8293 5.51733 21.392 6.392C20.9547 7.256 20.736 8.264 20.736 9.416C20.736 10.5573 20.9547 11.5653 21.392 12.44C21.8293 13.304 22.448 13.9813 23.248 14.472ZM32.4082 3.48V15H34.1043V10.904C34.1043 10.072 34.3123 9.432 34.7282 8.984C35.1549 8.536 35.6883 8.312 36.3283 8.312C37.5549 8.312 38.1683 9.08 38.1683 10.616V15H39.8483V10.44C39.8483 9.256 39.5763 8.36533 39.0322 7.768C38.4883 7.17067 37.7416 6.872 36.7923 6.872C36.2163 6.872 35.6883 7.00533 35.2083 7.272C34.7389 7.528 34.3709 7.88533 34.1043 8.344V3.48H32.4082ZM42.5498 14.856C42.9871 15.08 43.5418 15.192 44.2138 15.192C44.9071 15.192 45.4671 15.0427 45.8937 14.744C46.3204 14.4453 46.6458 14.0773 46.8698 13.64L47.0138 15H48.4858V10.12C48.4858 9.11733 48.1818 8.328 47.5737 7.752C46.9658 7.16533 46.1071 6.872 44.9977 6.872C44.3791 6.872 43.8084 6.984 43.2858 7.208C42.7738 7.42133 42.3471 7.736 42.0058 8.152C41.6751 8.55733 41.4831 9.048 41.4298 9.624H43.1258C43.2004 9.176 43.4084 8.84 43.7498 8.616C44.1017 8.38133 44.5124 8.264 44.9818 8.264C45.5151 8.264 45.9471 8.41867 46.2778 8.728C46.6191 9.03733 46.7897 9.50133 46.7897 10.12V10.264H44.7098C43.6004 10.264 42.7471 10.488 42.1497 10.936C41.5524 11.384 41.2537 11.992 41.2537 12.76C41.2537 13.1973 41.3604 13.6027 41.5737 13.976C41.7871 14.3387 42.1124 14.632 42.5498 14.856ZM45.7018 13.496C45.3924 13.7093 45.0084 13.816 44.5498 13.816C44.0804 13.816 43.7071 13.7147 43.4298 13.512C43.1631 13.2987 43.0298 13.0107 43.0298 12.648C43.0298 12.296 43.1684 12.0027 43.4458 11.768C43.7337 11.5333 44.2138 11.416 44.8857 11.416H46.7738C46.7311 11.8533 46.6191 12.2533 46.4378 12.616C46.2671 12.9787 46.0218 13.272 45.7018 13.496ZM50.1432 7.064V15H51.8393V11.192C51.8393 10.5413 51.9459 10.0347 52.1593 9.672C52.3833 9.29867 52.6766 9.03733 53.0392 8.888C53.4126 8.728 53.8339 8.648 54.3033 8.648H54.7673V6.872C54.0633 6.872 53.4606 7.02667 52.9593 7.336C52.4686 7.63467 52.0846 8.04533 51.8073 8.568L51.6632 7.064H50.1432ZM57.8099 12.424C58.1619 12.52 58.5459 12.568 58.9619 12.568C59.6339 12.568 60.2045 12.44 60.6739 12.184C61.1539 11.928 61.5165 11.5867 61.7619 11.16C62.0179 10.7333 62.1459 10.2533 62.1459 9.72C62.1459 9.18667 62.0179 8.70133 61.7619 8.264L63.1699 8.184V7.064H60.2099C59.8259 6.936 59.4099 6.872 58.9619 6.872C58.2899 6.872 57.7139 7 57.2339 7.256C56.7539 7.512 56.3859 7.85867 56.1299 8.296C55.8845 8.72267 55.7619 9.19733 55.7619 9.72C55.7619 10.584 56.0712 11.2827 56.6899 11.816L55.3139 13.224V13.608C55.4419 13.7253 55.5859 13.8427 55.7459 13.96C55.9165 14.0667 56.1139 14.168 56.3379 14.264C55.9539 14.552 55.6712 14.856 55.4899 15.176C55.3192 15.5067 55.2339 15.8373 55.2339 16.168C55.2339 17.0213 55.5752 17.656 56.2579 18.072C56.9512 18.4987 57.8525 18.712 58.9619 18.712C59.7832 18.712 60.4552 18.5787 60.9779 18.312C61.5112 18.056 61.9005 17.7147 62.1459 17.288C62.4019 16.872 62.5299 16.4293 62.5299 15.96C62.5299 15.2773 62.2952 14.7333 61.8259 14.328C61.3565 13.912 60.5939 13.656 59.5379 13.56C59.0045 13.5173 58.5832 13.4747 58.2739 13.432C57.9645 13.3893 57.7245 13.3413 57.5539 13.288C57.3832 13.2347 57.2392 13.1707 57.1219 13.096L57.8099 12.424ZM60.1459 10.856C59.8472 11.112 59.4525 11.24 58.9619 11.24C58.4605 11.24 58.0552 11.112 57.7459 10.856C57.4472 10.5893 57.2979 10.216 57.2979 9.736C57.2979 9.24533 57.4472 8.872 57.7459 8.616C58.0552 8.36 58.4605 8.232 58.9619 8.232C59.4525 8.232 59.8472 8.36 60.1459 8.616C60.4552 8.872 60.6099 9.24533 60.6099 9.736C60.6099 10.216 60.4552 10.5893 60.1459 10.856ZM57.4419 17.032C57.0365 16.808 56.8339 16.4667 56.8339 16.008C56.8339 15.784 56.9032 15.5547 57.0419 15.32C57.1805 15.0853 57.4365 14.8667 57.8099 14.664C58.2045 14.728 58.6579 14.776 59.1699 14.808C59.8525 14.8613 60.3165 14.9947 60.5619 15.208C60.8072 15.432 60.9299 15.6987 60.9299 16.008C60.9299 16.424 60.7485 16.7547 60.3859 17C60.0232 17.256 59.5485 17.384 58.9619 17.384C58.3539 17.384 57.8472 17.2667 57.4419 17.032ZM64.5226 5.272C64.736 5.464 65.0026 5.56 65.3226 5.56C65.6426 5.56 65.904 5.464 66.1066 5.272C66.32 5.06933 66.4266 4.81867 66.4266 4.52C66.4266 4.22133 66.32 3.976 66.1066 3.784C65.904 3.58133 65.6426 3.48 65.3226 3.48C65.0026 3.48 64.736 3.58133 64.5226 3.784C64.32 3.976 64.2186 4.22133 64.2186 4.52C64.2186 4.81867 64.32 5.06933 64.5226 5.272ZM64.4746 7.064V15H66.1706V7.064H64.4746ZM68.0895 7.064V15H69.7855V10.904C69.7855 10.072 69.9882 9.432 70.3935 8.984C70.8095 8.536 71.3322 8.312 71.9615 8.312C73.2202 8.312 73.8495 9.08 73.8495 10.616V15H75.5295V10.44C75.5295 9.256 75.2522 8.36533 74.6975 7.768C74.1535 7.17067 73.4015 6.872 72.4415 6.872C71.8228 6.872 71.2735 7.016 70.7935 7.304C70.3242 7.58133 69.9668 7.96533 69.7215 8.456L69.5935 7.064H68.0895ZM79.303 12.424C79.655 12.52 80.039 12.568 80.455 12.568C81.127 12.568 81.6977 12.44 82.167 12.184C82.647 11.928 83.0097 11.5867 83.255 11.16C83.511 10.7333 83.639 10.2533 83.639 9.72C83.639 9.18667 83.511 8.70133 83.255 8.264L84.663 8.184V7.064H81.703C81.319 6.936 80.903 6.872 80.455 6.872C79.783 6.872 79.207 7 78.727 7.256C78.247 7.512 77.879 7.85867 77.623 8.296C77.3777 8.72267 77.255 9.19733 77.255 9.72C77.255 10.584 77.5643 11.2827 78.183 11.816L76.807 13.224V13.608C76.935 13.7253 77.079 13.8427 77.239 13.96C77.4097 14.0667 77.607 14.168 77.831 14.264C77.447 14.552 77.1643 14.856 76.983 15.176C76.8123 15.5067 76.727 15.8373 76.727 16.168C76.727 17.0213 77.0683 17.656 77.751 18.072C78.4443 18.4987 79.3457 18.712 80.455 18.712C81.2763 18.712 81.9483 18.5787 82.471 18.312C83.0043 18.056 83.3937 17.7147 83.639 17.288C83.895 16.872 84.023 16.4293 84.023 15.96C84.023 15.2773 83.7883 14.7333 83.319 14.328C82.8497 13.912 82.087 13.656 81.031 13.56C80.4977 13.5173 80.0763 13.4747 79.767 13.432C79.4577 13.3893 79.2177 13.3413 79.047 13.288C78.8763 13.2347 78.7323 13.1707 78.615 13.096L79.303 12.424ZM81.639 10.856C81.3403 11.112 80.9457 11.24 80.455 11.24C79.9537 11.24 79.5483 11.112 79.239 10.856C78.9403 10.5893 78.791 10.216 78.791 9.736C78.791 9.24533 78.9403 8.872 79.239 8.616C79.5483 8.36 79.9537 8.232 80.455 8.232C80.9457 8.232 81.3403 8.36 81.639 8.616C81.9483 8.872 82.103 9.24533 82.103 9.736C82.103 10.216 81.9483 10.5893 81.639 10.856ZM78.935 17.032C78.5297 16.808 78.327 16.4667 78.327 16.008C78.327 15.784 78.3963 15.5547 78.535 15.32C78.6737 15.0853 78.9297 14.8667 79.303 14.664C79.6977 14.728 80.151 14.776 80.663 14.808C81.3457 14.8613 81.8097 14.9947 82.055 15.208C82.3003 15.432 82.423 15.6987 82.423 16.008C82.423 16.424 82.2417 16.7547 81.879 17C81.5163 17.256 81.0417 17.384 80.455 17.384C79.847 17.384 79.3403 17.2667 78.935 17.032Z" fill="white"/>
<path fill-rule="evenodd" clip-rule="evenodd" d="M9.29596 0.430351C9.16307 0.249245 8.97587 0.115253 8.76159 0.0478644V0.04892C8.54749 -0.0186344 8.31742 -0.0161659 8.10482 0.055967C7.89222 0.1281 7.70815 0.266139 7.57937 0.450031L0.19047 11.0056C0.0798347 11.1638 0.0147215 11.3494 0.00221649 11.5421C-0.0102885 11.7347 0.0302936 11.9272 0.119547 12.0984C0.2088 12.2696 0.343304 12.413 0.508422 12.5131C0.67354 12.6132 0.862946 12.6661 1.05603 12.666H5.27825V17.9438C5.27811 18.1684 5.34966 18.3873 5.48249 18.5685C5.61533 18.7497 5.80252 18.8838 6.01682 18.9513C6.23113 19.0188 6.46137 19.0161 6.67406 18.9437C6.88674 18.8712 7.07077 18.7328 7.19936 18.5486L14.5883 7.99304C14.6989 7.8348 14.764 7.64924 14.7765 7.45657C14.789 7.26389 14.7484 7.07148 14.6592 6.90027C14.5699 6.72905 14.4354 6.5856 14.2703 6.48552C14.1052 6.38544 13.9158 6.33256 13.7227 6.33265H9.50048V1.05487C9.50049 0.830235 9.42885 0.611458 9.29596 0.430351ZM23.248 14.472C24.0587 14.952 25.0187 15.192 26.128 15.192C27.44 15.192 28.512 14.8773 29.344 14.248C30.176 13.6187 30.704 12.7493 30.928 11.64H29.04C28.8907 12.2693 28.5707 12.7653 28.08 13.128C27.5893 13.4907 26.9333 13.672 26.112 13.672C24.992 13.672 24.1067 13.2933 23.456 12.536C22.8053 11.7787 22.48 10.7387 22.48 9.416C22.48 8.08267 22.8053 7.03733 23.456 6.28C24.1067 5.512 24.992 5.128 26.112 5.128C26.9333 5.128 27.5893 5.32 28.08 5.704C28.5707 6.088 28.8907 6.60533 29.04 7.256H30.928C30.704 6.104 30.176 5.208 29.344 4.568C28.512 3.928 27.44 3.608 26.128 3.608C25.0187 3.608 24.0587 3.85333 23.248 4.344C22.448 4.83467 21.8293 5.51733 21.392 6.392C20.9547 7.256 20.736 8.264 20.736 9.416C20.736 10.5573 20.9547 11.5653 21.392 12.44C21.8293 13.304 22.448 13.9813 23.248 14.472ZM32.4082 3.48V15H34.1043V10.904C34.1043 10.072 34.3123 9.432 34.7282 8.984C35.1549 8.536 35.6883 8.312 36.3283 8.312C37.5549 8.312 38.1683 9.08 38.1683 10.616V15H39.8483V10.44C39.8483 9.256 39.5763 8.36533 39.0322 7.768C38.4883 7.17067 37.7416 6.872 36.7923 6.872C36.2163 6.872 35.6883 7.00533 35.2083 7.272C34.7389 7.528 34.3709 7.88533 34.1043 8.344V3.48H32.4082ZM42.5498 14.856C42.9871 15.08 43.5418 15.192 44.2138 15.192C44.9071 15.192 45.4671 15.0427 45.8937 14.744C46.3204 14.4453 46.6458 14.0773 46.8698 13.64L47.0138 15H48.4858V10.12C48.4858 9.11733 48.1818 8.328 47.5737 7.752C46.9658 7.16533 46.1071 6.872 44.9977 6.872C44.3791 6.872 43.8084 6.984 43.2858 7.208C42.7738 7.42133 42.3471 7.736 42.0058 8.152C41.6751 8.55733 41.4831 9.048 41.4298 9.624H43.1258C43.2004 9.176 43.4084 8.84 43.7498 8.616C44.1017 8.38133 44.5124 8.264 44.9818 8.264C45.5151 8.264 45.9471 8.41867 46.2778 8.728C46.6191 9.03733 46.7897 9.50133 46.7897 10.12V10.264H44.7098C43.6004 10.264 42.7471 10.488 42.1497 10.936C41.5524 11.384 41.2537 11.992 41.2537 12.76C41.2537 13.1973 41.3604 13.6027 41.5737 13.976C41.7871 14.3387 42.1124 14.632 42.5498 14.856ZM45.7018 13.496C45.3924 13.7093 45.0084 13.816 44.5498 13.816C44.0804 13.816 43.7071 13.7147 43.4298 13.512C43.1631 13.2987 43.0298 13.0107 43.0298 12.648C43.0298 12.296 43.1684 12.0027 43.4458 11.768C43.7337 11.5333 44.2138 11.416 44.8857 11.416H46.7738C46.7311 11.8533 46.6191 12.2533 46.4378 12.616C46.2671 12.9787 46.0218 13.272 45.7018 13.496ZM50.1432 7.064V15H51.8393V11.192C51.8393 10.5413 51.9459 10.0347 52.1593 9.672C52.3833 9.29867 52.6766 9.03733 53.0392 8.888C53.4126 8.728 53.8339 8.648 54.3033 8.648H54.7673V6.872C54.0633 6.872 53.4606 7.02667 52.9593 7.336C52.4686 7.63467 52.0846 8.04533 51.8073 8.568L51.6632 7.064H50.1432ZM57.8099 12.424C58.1619 12.52 58.5459 12.568 58.9619 12.568C59.6339 12.568 60.2045 12.44 60.6739 12.184C61.1539 11.928 61.5165 11.5867 61.7619 11.16C62.0179 10.7333 62.1459 10.2533 62.1459 9.72C62.1459 9.18667 62.0179 8.70133 61.7619 8.264L63.1699 8.184V7.064H60.2099C59.8259 6.936 59.4099 6.872 58.9619 6.872C58.2899 6.872 57.7139 7 57.2339 7.256C56.7539 7.512 56.3859 7.85867 56.1299 8.296C55.8845 8.72267 55.7619 9.19733 55.7619 9.72C55.7619 10.584 56.0712 11.2827 56.6899 11.816L55.3139 13.224V13.608C55.4419 13.7253 55.5859 13.8427 55.7459 13.96C55.9165 14.0667 56.1139 14.168 56.3379 14.264C55.9539 14.552 55.6712 14.856 55.4899 15.176C55.3192 15.5067 55.2339 15.8373 55.2339 16.168C55.2339 17.0213 55.5752 17.656 56.2579 18.072C56.9512 18.4987 57.8525 18.712 58.9619 18.712C59.7832 18.712 60.4552 18.5787 60.9779 18.312C61.5112 18.056 61.9005 17.7147 62.1459 17.288C62.4019 16.872 62.5299 16.4293 62.5299 15.96C62.5299 15.2773 62.2952 14.7333 61.8259 14.328C61.3565 13.912 60.5939 13.656 59.5379 13.56C59.0045 13.5173 58.5832 13.4747 58.2739 13.432C57.9645 13.3893 57.7245 13.3413 57.5539 13.288C57.3832 13.2347 57.2392 13.1707 57.1219 13.096L57.8099 12.424ZM60.1459 10.856C59.8472 11.112 59.4525 11.24 58.9619 11.24C58.4605 11.24 58.0552 11.112 57.7459 10.856C57.4472 10.5893 57.2979 10.216 57.2979 9.736C57.2979 9.24533 57.4472 8.872 57.7459 8.616C58.0552 8.36 58.4605 8.232 58.9619 8.232C59.4525 8.232 59.8472 8.36 60.1459 8.616C60.4552 8.872 60.6099 9.24533 60.6099 9.736C60.6099 10.216 60.4552 10.5893 60.1459 10.856ZM57.4419 17.032C57.0365 16.808 56.8339 16.4667 56.8339 16.008C56.8339 15.784 56.9032 15.5547 57.0419 15.32C57.1805 15.0853 57.4365 14.8667 57.8099 14.664C58.2045 14.728 58.6579 14.776 59.1699 14.808C59.8525 14.8613 60.3165 14.9947 60.5619 15.208C60.8072 15.432 60.9299 15.6987 60.9299 16.008C60.9299 16.424 60.7485 16.7547 60.3859 17C60.0232 17.256 59.5485 17.384 58.9619 17.384C58.3539 17.384 57.8472 17.2667 57.4419 17.032ZM64.5226 5.272C64.736 5.464 65.0026 5.56 65.3226 5.56C65.6426 5.56 65.904 5.464 66.1066 5.272C66.32 5.06933 66.4266 4.81867 66.4266 4.52C66.4266 4.22133 66.32 3.976 66.1066 3.784C65.904 3.58133 65.6426 3.48 65.3226 3.48C65.0026 3.48 64.736 3.58133 64.5226 3.784C64.32 3.976 64.2186 4.22133 64.2186 4.52C64.2186 4.81867 64.32 5.06933 64.5226 5.272ZM64.4746 7.064V15H66.1706V7.064H64.4746ZM68.0895 7.064V15H69.7855V10.904C69.7855 10.072 69.9882 9.432 70.3935 8.984C70.8095 8.536 71.3322 8.312 71.9615 8.312C73.2202 8.312 73.8495 9.08 73.8495 10.616V15H75.5295V10.44C75.5295 9.256 75.2522 8.36533 74.6975 7.768C74.1535 7.17067 73.4015 6.872 72.4415 6.872C71.8228 6.872 71.2735 7.016 70.7935 7.304C70.3242 7.58133 69.9668 7.96533 69.7215 8.456L69.5935 7.064H68.0895ZM79.303 12.424C79.655 12.52 80.039 12.568 80.455 12.568C81.127 12.568 81.6977 12.44 82.167 12.184C82.647 11.928 83.0097 11.5867 83.255 11.16C83.511 10.7333 83.639 10.2533 83.639 9.72C83.639 9.18667 83.511 8.70133 83.255 8.264L84.663 8.184V7.064H81.703C81.319 6.936 80.903 6.872 80.455 6.872C79.783 6.872 79.207 7 78.727 7.256C78.247 7.512 77.879 7.85867 77.623 8.296C77.3777 8.72267 77.255 9.19733 77.255 9.72C77.255 10.584 77.5643 11.2827 78.183 11.816L76.807 13.224V13.608C76.935 13.7253 77.079 13.8427 77.239 13.96C77.4097 14.0667 77.607 14.168 77.831 14.264C77.447 14.552 77.1643 14.856 76.983 15.176C76.8123 15.5067 76.727 15.8373 76.727 16.168C76.727 17.0213 77.0683 17.656 77.751 18.072C78.4443 18.4987 79.3457 18.712 80.455 18.712C81.2763 18.712 81.9483 18.5787 82.471 18.312C83.0043 18.056 83.3937 17.7147 83.639 17.288C83.895 16.872 84.023 16.4293 84.023 15.96C84.023 15.2773 83.7883 14.7333 83.319 14.328C82.8497 13.912 82.087 13.656 81.031 13.56C80.4977 13.5173 80.0763 13.4747 79.767 13.432C79.4577 13.3893 79.2177 13.3413 79.047 13.288C78.8763 13.2347 78.7323 13.1707 78.615 13.096L79.303 12.424ZM81.639 10.856C81.3403 11.112 80.9457 11.24 80.455 11.24C79.9537 11.24 79.5483 11.112 79.239 10.856C78.9403 10.5893 78.791 10.216 78.791 9.736C78.791 9.24533 78.9403 8.872 79.239 8.616C79.5483 8.36 79.9537 8.232 80.455 8.232C80.9457 8.232 81.3403 8.36 81.639 8.616C81.9483 8.872 82.103 9.24533 82.103 9.736C82.103 10.216 81.9483 10.5893 81.639 10.856ZM78.935 17.032C78.5297 16.808 78.327 16.4667 78.327 16.008C78.327 15.784 78.3963 15.5547 78.535 15.32C78.6737 15.0853 78.9297 14.8667 79.303 14.664C79.6977 14.728 80.151 14.776 80.663 14.808C81.3457 14.8613 81.8097 14.9947 82.055 15.208C82.3003 15.432 82.423 15.6987 82.423 16.008C82.423 16.424 82.2417 16.7547 81.879 17C81.5163 17.256 81.0417 17.384 80.455 17.384C79.847 17.384 79.3403 17.2667 78.935 17.032Z" fill="url(#paint0_linear_1_73)"/>
<defs>
<linearGradient id="paint0_linear_1_73" x1="1.2125e-06" y1="19" x2="44.8121" y2="-33.8134" gradientUnits="userSpaceOnUse">
<stop stop-color="#20D691"/>
<stop offset="1" stop-color="#7AE5B5"/>
</linearGradient>
</defs>
</svg>
