<svg width="174" height="138" viewBox="0 0 174 138" fill="none" xmlns="http://www.w3.org/2000/svg">
<g opacity="0.3">
<path d="M173 0V17.25M173 138V107.308M173 69L114.013 103.5M173 69V86.7441M173 69H143.099M173 69L143.631 53.2945M173 69V34.5M55.2228 69H-5.35083e-06H24.7417M55.2228 69L55.026 87.341M55.2228 69L24.7417 87.341M55.2228 69L27.513 54.4883M55.2228 69L55.026 53.2945M55.026 138V87.341M55.026 138L114.013 103.5M55.026 138V121.244M113.198 69L84.1118 86.7441M113.198 69L114.013 103.5M113.198 69H143.099M113.198 69L85.762 53.2945M113.198 69H85.7039M4.3881 135.38L26.9973 121.587M55.026 104.488L84.1118 86.7441M55.026 104.488V87.341M55.026 104.488L26.9973 121.587M55.026 104.488V121.244M-5.35083e-06 101.35L24.7417 87.341M173 107.308L143.631 124.439M173 107.308V104.488V86.7441M173 107.308L114.013 103.5M120.382 138L143.631 124.439M143.631 124.439V138M143.631 124.439L85.7039 121.587L84.1118 86.7441M84.1118 86.7441L55.026 87.341M173 86.7441H143.631L143.099 69M24.7417 87.341L26.9973 121.587M24.7417 87.341H-5.35083e-06M26.9973 121.587L55.026 121.244M27.513 54.4883L-5.35083e-06 38.7828L0.816061 39.3008M27.513 54.4883L55.026 53.2945M27.513 54.4883L24.7417 69M27.513 54.4883L0.816061 39.3008M55.026 53.2945V38.7828V35.6996M24.7417 69H85.7039M55.026 35.6996L22.7172 16.8994M55.026 35.6996L4.3881 5.47086L22.7172 16.8994M55.026 35.6996L85.762 53.2945M55.026 35.6996V17.8498M55.026 35.6996L113.376 35.0969M55.026 35.6996H-5.35083e-06L0.816061 39.3008M22.7172 16.8994V0M22.7172 16.8994H-5.35083e-06M85.762 53.2945L85.7039 69M85.762 53.2945H143.631M143.631 53.2945L113.376 35.0969M143.631 53.2945L144.497 17.3659M83.1221 16.8994L55.026 0V17.8498M83.1221 16.8994L55.026 17.8498M83.1221 16.8994L113.376 35.0969M83.1221 16.8994V0M113.376 35.0969L115.993 0.231816L144.497 17.3659M173 34.5V17.25M173 34.5L144.497 17.3659M173 17.25L144.497 17.3659" stroke="#EFFCFF" stroke-width="1.04673"/>
<path d="M173 0V17.25M173 138V107.308M173 69L114.013 103.5M173 69V86.7441M173 69H143.099M173 69L143.631 53.2945M173 69V34.5M55.2228 69H-5.35083e-06H24.7417M55.2228 69L55.026 87.341M55.2228 69L24.7417 87.341M55.2228 69L27.513 54.4883M55.2228 69L55.026 53.2945M55.026 138V87.341M55.026 138L114.013 103.5M55.026 138V121.244M113.198 69L84.1118 86.7441M113.198 69L114.013 103.5M113.198 69H143.099M113.198 69L85.762 53.2945M113.198 69H85.7039M4.3881 135.38L26.9973 121.587M55.026 104.488L84.1118 86.7441M55.026 104.488V87.341M55.026 104.488L26.9973 121.587M55.026 104.488V121.244M-5.35083e-06 101.35L24.7417 87.341M173 107.308L143.631 124.439M173 107.308V104.488V86.7441M173 107.308L114.013 103.5M120.382 138L143.631 124.439M143.631 124.439V138M143.631 124.439L85.7039 121.587L84.1118 86.7441M84.1118 86.7441L55.026 87.341M173 86.7441H143.631L143.099 69M24.7417 87.341L26.9973 121.587M24.7417 87.341H-5.35083e-06M26.9973 121.587L55.026 121.244M27.513 54.4883L-5.35083e-06 38.7828L0.816061 39.3008M27.513 54.4883L55.026 53.2945M27.513 54.4883L24.7417 69M27.513 54.4883L0.816061 39.3008M55.026 53.2945V38.7828V35.6996M24.7417 69H85.7039M55.026 35.6996L22.7172 16.8994M55.026 35.6996L4.3881 5.47086L22.7172 16.8994M55.026 35.6996L85.762 53.2945M55.026 35.6996V17.8498M55.026 35.6996L113.376 35.0969M55.026 35.6996H-5.35083e-06L0.816061 39.3008M22.7172 16.8994V0M22.7172 16.8994H-5.35083e-06M85.762 53.2945L85.7039 69M85.762 53.2945H143.631M143.631 53.2945L113.376 35.0969M143.631 53.2945L144.497 17.3659M83.1221 16.8994L55.026 0V17.8498M83.1221 16.8994L55.026 17.8498M83.1221 16.8994L113.376 35.0969M83.1221 16.8994V0M113.376 35.0969L115.993 0.231816L144.497 17.3659M173 34.5V17.25M173 34.5L144.497 17.3659M173 17.25L144.497 17.3659" stroke="url(#paint0_linear_1_958)" stroke-width="1.04673"/>
</g>
<defs>
<linearGradient id="paint0_linear_1_958" x1="173" y1="69" x2="0" y2="69" gradientUnits="userSpaceOnUse">
<stop stop-color="#20D691"/>
<stop offset="1" stop-color="#7AE5B5"/>
</linearGradient>
</defs>
</svg>
