<svg width="224" height="109" viewBox="0 0 224 109" fill="none" xmlns="http://www.w3.org/2000/svg">
<g opacity="0.3">
<path fill-rule="evenodd" clip-rule="evenodd" d="M151.973 56.5627C156.952 58.2525 161.698 60.1619 166.208 62.244C195.477 75.757 214.737 96.5102 223.539 111.578L222.008 112.074C213.355 97.2591 194.36 76.7826 165.498 63.4577C161.644 61.6786 157.613 60.0263 153.406 58.5316C169.635 81.4163 172.777 106.558 170.63 122.882L169.073 122.677C171.192 106.572 168.051 81.568 151.737 58.896C151.435 58.4764 151.128 58.0576 150.817 57.6396C123.961 48.6693 90.1657 46.1563 49.6629 57.7206C29.1025 63.7161 4.36879 70.9284 -3.01366 73.0806L-4.92682 73.6382L-5.14163 73.7007L-5.18309 73.7128L-5.18341 73.7128L-5.19057 73.715L-5.19897 73.7174C-5.20509 73.7192 -6.33455 73.2726 -5.92888 72.383L-5.91862 72.3799L-5.91252 72.3781L-5.90802 72.3768L-5.89536 72.3731L-5.86546 72.3643L-5.8437 72.3581L-5.68376 72.3113C-5.0239 72.1187 -2.94315 71.5117 0.894699 70.3923C8.57048 68.1535 23.2752 63.8649 47.6998 56.7419C48.1162 56.6204 48.5319 56.5005 48.9469 56.382C88.8305 44.994 122.389 47.1172 149.331 55.6942C132.597 34.3457 103.535 15.5232 55.1877 9.0213C33.5079 6.22459 7.42787 2.86006 -0.356094 1.85539L-2.37326 1.59496L-2.40857 1.59015L-2.59975 1.56555L-2.64357 1.55994L-2.64569 1.55962L-2.65175 1.5589L-2.65935 1.55792C-2.66479 1.55717 -3.33374 0.677307 -2.46475 -1.52588e-05L-2.4554 0.00112915L-2.45024 0.0018158L-2.44449 0.0025177L-2.43146 0.0042572L-2.39967 0.00827026L-2.37695 0.011322L-2.20808 0.0329132C-1.51219 0.122513 0.681976 0.40535 4.72893 0.927185C12.8229 1.97084 28.3287 3.97052 54.0835 7.29222C54.5223 7.3488 54.9596 7.4064 55.3953 7.465C105.452 14.1964 135.184 34.0844 151.973 56.5627Z" fill="#D4DDEB"/>
<path fill-rule="evenodd" clip-rule="evenodd" d="M151.973 56.5627C156.952 58.2525 161.698 60.1619 166.208 62.244C195.477 75.757 214.737 96.5102 223.539 111.578L222.008 112.074C213.355 97.2591 194.36 76.7826 165.498 63.4577C161.644 61.6786 157.613 60.0263 153.406 58.5316C169.635 81.4163 172.777 106.558 170.63 122.882L169.073 122.677C171.192 106.572 168.051 81.568 151.737 58.896C151.435 58.4764 151.128 58.0576 150.817 57.6396C123.961 48.6693 90.1657 46.1563 49.6629 57.7206C29.1025 63.7161 4.36879 70.9284 -3.01366 73.0806L-4.92682 73.6382L-5.14163 73.7007L-5.18309 73.7128L-5.18341 73.7128L-5.19057 73.715L-5.19897 73.7174C-5.20509 73.7192 -6.33455 73.2726 -5.92888 72.383L-5.91862 72.3799L-5.91252 72.3781L-5.90802 72.3768L-5.89536 72.3731L-5.86546 72.3643L-5.8437 72.3581L-5.68376 72.3113C-5.0239 72.1187 -2.94315 71.5117 0.894699 70.3923C8.57048 68.1535 23.2752 63.8649 47.6998 56.7419C48.1162 56.6204 48.5319 56.5005 48.9469 56.382C88.8305 44.994 122.389 47.1172 149.331 55.6942C132.597 34.3457 103.535 15.5232 55.1877 9.0213C33.5079 6.22459 7.42787 2.86006 -0.356094 1.85539L-2.37326 1.59496L-2.40857 1.59015L-2.59975 1.56555L-2.64357 1.55994L-2.64569 1.55962L-2.65175 1.5589L-2.65935 1.55792C-2.66479 1.55717 -3.33374 0.677307 -2.46475 -1.52588e-05L-2.4554 0.00112915L-2.45024 0.0018158L-2.44449 0.0025177L-2.43146 0.0042572L-2.39967 0.00827026L-2.37695 0.011322L-2.20808 0.0329132C-1.51219 0.122513 0.681976 0.40535 4.72893 0.927185C12.8229 1.97084 28.3287 3.97052 54.0835 7.29222C54.5223 7.3488 54.9596 7.4064 55.3953 7.465C105.452 14.1964 135.184 34.0844 151.973 56.5627Z" fill="url(#paint0_linear_1_1008)"/>
</g>
<defs>
<linearGradient id="paint0_linear_1_1008" x1="223.539" y1="61.4411" x2="0.950836" y2="100.823" gradientUnits="userSpaceOnUse">
<stop stop-color="#20D691"/>
<stop offset="1" stop-color="#7AE5B5"/>
</linearGradient>
</defs>
</svg>
