<svg width="222" height="109" viewBox="0 0 222 109" fill="none" xmlns="http://www.w3.org/2000/svg">
<g opacity="0.3">
<path fill-rule="evenodd" clip-rule="evenodd" d="M72.4721 52.2171C67.4925 50.5273 62.7468 48.6179 58.2368 46.5358C28.9676 33.0228 9.70782 12.2696 0.906128 -2.79867L2.43667 -3.29415C11.0903 11.5206 30.0852 31.9972 58.947 45.322C62.8007 47.1012 66.8317 48.7535 71.039 50.2482C54.81 27.3635 51.6676 2.2222 53.8153 -14.1024L55.3719 -13.8976C53.2531 2.20759 56.3942 27.2118 72.7083 49.8838C73.0102 50.3034 73.3167 50.7222 73.6277 51.1402C100.484 60.1105 134.279 62.6234 174.782 51.0592C195.342 45.0637 220.076 37.8514 227.458 35.6992L229.372 35.1416L229.586 35.0791L229.628 35.067L229.628 35.067L229.635 35.0648L229.644 35.0623C229.65 35.0606 230.779 35.5072 230.374 36.3968L230.363 36.3999L230.357 36.4017L230.353 36.403L230.34 36.4066L230.31 36.4155L230.289 36.4217L230.129 36.4685C229.469 36.6611 227.388 37.2681 223.55 38.3875C215.874 40.6263 201.17 44.9149 176.745 52.0379C176.329 52.1594 175.913 52.2793 175.498 52.3978C135.614 63.7858 102.056 61.6625 75.1137 53.0856C91.8474 74.434 120.91 93.2566 169.257 99.7585C190.937 102.555 217.017 105.92 224.801 106.924L226.818 107.185L226.853 107.19L227.045 107.214L227.088 107.22L227.091 107.22L227.097 107.221L227.104 107.222C227.11 107.223 227.779 108.102 226.91 108.78L226.9 108.779L226.895 108.778L226.889 108.777L226.876 108.776L226.844 108.772L226.822 108.768L226.653 108.747C225.957 108.657 223.763 108.374 219.716 107.853C211.622 106.809 196.116 104.809 170.361 101.488C169.923 101.431 169.485 101.373 169.05 101.315C118.993 94.5834 89.2607 74.6954 72.4721 52.2171Z" fill="#D4DDEB"/>
<path fill-rule="evenodd" clip-rule="evenodd" d="M72.4721 52.2171C67.4925 50.5273 62.7468 48.6179 58.2368 46.5358C28.9676 33.0228 9.70782 12.2696 0.906128 -2.79867L2.43667 -3.29415C11.0903 11.5206 30.0852 31.9972 58.947 45.322C62.8007 47.1012 66.8317 48.7535 71.039 50.2482C54.81 27.3635 51.6676 2.2222 53.8153 -14.1024L55.3719 -13.8976C53.2531 2.20759 56.3942 27.2118 72.7083 49.8838C73.0102 50.3034 73.3167 50.7222 73.6277 51.1402C100.484 60.1105 134.279 62.6234 174.782 51.0592C195.342 45.0637 220.076 37.8514 227.458 35.6992L229.372 35.1416L229.586 35.0791L229.628 35.067L229.628 35.067L229.635 35.0648L229.644 35.0623C229.65 35.0606 230.779 35.5072 230.374 36.3968L230.363 36.3999L230.357 36.4017L230.353 36.403L230.34 36.4066L230.31 36.4155L230.289 36.4217L230.129 36.4685C229.469 36.6611 227.388 37.2681 223.55 38.3875C215.874 40.6263 201.17 44.9149 176.745 52.0379C176.329 52.1594 175.913 52.2793 175.498 52.3978C135.614 63.7858 102.056 61.6625 75.1137 53.0856C91.8474 74.434 120.91 93.2566 169.257 99.7585C190.937 102.555 217.017 105.92 224.801 106.924L226.818 107.185L226.853 107.19L227.045 107.214L227.088 107.22L227.091 107.22L227.097 107.221L227.104 107.222C227.11 107.223 227.779 108.102 226.91 108.78L226.9 108.779L226.895 108.778L226.889 108.777L226.876 108.776L226.844 108.772L226.822 108.768L226.653 108.747C225.957 108.657 223.763 108.374 219.716 107.853C211.622 106.809 196.116 104.809 170.361 101.488C169.923 101.431 169.485 101.373 169.05 101.315C118.993 94.5834 89.2607 74.6954 72.4721 52.2171Z" fill="url(#paint0_linear_1_1005)"/>
</g>
<defs>
<linearGradient id="paint0_linear_1_1005" x1="0.906124" y1="47.3387" x2="223.494" y2="7.95707" gradientUnits="userSpaceOnUse">
<stop stop-color="#20D691"/>
<stop offset="1" stop-color="#7AE5B5"/>
</linearGradient>
</defs>
</svg>
