<svg width="76" height="105" viewBox="0 0 76 105" fill="none" xmlns="http://www.w3.org/2000/svg">
<g opacity="0.3">
<path d="M0.999734 126.607C1.54632 83.4036 10.7154 -2.18462 43.0189 1.09148C83.3982 5.18661 70.69 57.3995 69.6652 59.8566M69.6652 59.8566C68.6403 62.3137 54.9079 106.746 60.2371 122.717H31.3362C34.0003 87.1574 45.396 15.3425 69.6652 12.5578C83.2144 11.0032 90.9626 18.5663 95.1282 27.9146M69.6652 59.8566C76.7248 31.6821 89.5821 26.8225 95.1282 27.9146M95.1282 27.9146C98.424 35.3107 99.4772 43.8242 99.3867 49.8235L95.1282 27.9146Z" stroke="#D6D8D9" stroke-width="1.57"/>
<path d="M0.999734 126.607C1.54632 83.4036 10.7154 -2.18462 43.0189 1.09148C83.3982 5.18661 70.69 57.3995 69.6652 59.8566M69.6652 59.8566C68.6403 62.3137 54.9079 106.746 60.2371 122.717H31.3362C34.0003 87.1574 45.396 15.3425 69.6652 12.5578C83.2144 11.0032 90.9626 18.5663 95.1282 27.9146M69.6652 59.8566C76.7248 31.6821 89.5821 26.8225 95.1282 27.9146M95.1282 27.9146C98.424 35.3107 99.4772 43.8242 99.3867 49.8235L95.1282 27.9146Z" stroke="url(#paint0_linear_1_1024)" stroke-width="1.57"/>
</g>
<defs>
<linearGradient id="paint0_linear_1_1024" x1="99.392" y1="63.8036" x2="0.999733" y2="63.8036" gradientUnits="userSpaceOnUse">
<stop stop-color="#20D691"/>
<stop offset="1" stop-color="#7AE5B5"/>
</linearGradient>
</defs>
</svg>
