<svg width="90" height="96" viewBox="0 0 90 96" fill="none" xmlns="http://www.w3.org/2000/svg">
<g opacity="0.3">
<path d="M89.2041 -30.6179C88.6575 12.5857 79.4885 98.1739 47.185 94.8978C6.80563 90.8026 19.5138 38.5898 20.5387 36.1327M20.5387 36.1327C21.5636 33.6756 35.296 -10.7565 29.9667 -26.7275H58.8677C56.2035 8.83182 44.8078 80.6467 20.5387 83.4314C6.98943 84.9861 -0.758725 77.4229 -4.92436 68.0747M20.5387 36.1327C13.479 64.3072 0.621799 69.1667 -4.92436 68.0747M-4.92436 68.0747C-8.22011 60.6786 -9.27334 52.1651 -9.1828 46.1657L-4.92436 68.0747Z" stroke="#D6D8D9" stroke-width="1.57"/>
<path d="M89.2041 -30.6179C88.6575 12.5857 79.4885 98.1739 47.185 94.8978C6.80563 90.8026 19.5138 38.5898 20.5387 36.1327M20.5387 36.1327C21.5636 33.6756 35.296 -10.7565 29.9667 -26.7275H58.8677C56.2035 8.83182 44.8078 80.6467 20.5387 83.4314C6.98943 84.9861 -0.758725 77.4229 -4.92436 68.0747M20.5387 36.1327C13.479 64.3072 0.621799 69.1667 -4.92436 68.0747M-4.92436 68.0747C-8.22011 60.6786 -9.27334 52.1651 -9.1828 46.1657L-4.92436 68.0747Z" stroke="url(#paint0_linear_1_1023)" stroke-width="1.57"/>
</g>
<defs>
<linearGradient id="paint0_linear_1_1023" x1="-9.18811" y1="32.1856" x2="89.2041" y2="32.1856" gradientUnits="userSpaceOnUse">
<stop stop-color="#20D691"/>
<stop offset="1" stop-color="#7AE5B5"/>
</linearGradient>
</defs>
</svg>
