<svg width="90" height="71" viewBox="0 0 90 71" fill="none" xmlns="http://www.w3.org/2000/svg">
<g filter="url(#filter0_f_1_1157)">
<path d="M43.2422 66.7822C44.0846 68.0248 45.9154 68.0248 46.7578 66.7822L64.7479 40.2469C75.4884 24.4047 64.1399 2.99999 45 2.99999C25.8601 2.99999 14.5116 24.4047 25.2521 40.2469L43.2422 66.7822Z" fill="#4BDDA2" fill-opacity="0.5"/>
</g>
<path d="M43.3701 62.6459C44.176 63.7487 45.822 63.7487 46.628 62.6459L62.5258 40.8909C73.0071 26.5481 62.7634 6.37494 44.999 6.37494C27.2347 6.37494 16.991 26.5481 27.4722 40.8909L43.3701 62.6459Z" fill="#20D691"/>
<path fill-rule="evenodd" clip-rule="evenodd" d="M48.1023 18.94C48.4055 19.0353 48.6703 19.2249 48.8584 19.4812C49.0464 19.7374 49.1477 20.0469 49.1477 20.3648V27.8323H55.1217C55.3949 27.8322 55.6629 27.907 55.8965 28.0486C56.1302 28.1902 56.3205 28.3931 56.4467 28.6354C56.573 28.8776 56.6305 29.1499 56.6128 29.4225C56.5951 29.6951 56.5029 29.9577 56.3464 30.1816L45.8919 45.1166C45.7099 45.3772 45.4496 45.573 45.1486 45.6755C44.8477 45.778 44.5219 45.7818 44.2187 45.6863C43.9155 45.5908 43.6507 45.4011 43.4627 45.1447C43.2748 44.8883 43.1735 44.5787 43.1737 44.2608V36.7933H37.1997C36.9265 36.7934 36.6586 36.7186 36.4249 36.577C36.1913 36.4354 36.001 36.2324 35.8747 35.9902C35.7484 35.7479 35.691 35.4757 35.7087 35.203C35.7264 34.9304 35.8185 34.6679 35.9751 34.444L46.4296 19.509C46.6118 19.2488 46.8722 19.0535 47.173 18.9514C47.4738 18.8494 47.7994 18.8459 48.1023 18.9415V18.94Z" fill="#141414"/>
<defs>
<filter id="filter0_f_1_1157" x="18.1008" y="0" width="53.7983" height="70.7142" filterUnits="userSpaceOnUse" color-interpolation-filters="sRGB">
<feFlood flood-opacity="0" result="BackgroundImageFix"/>
<feBlend mode="normal" in="SourceGraphic" in2="BackgroundImageFix" result="shape"/>
<feGaussianBlur stdDeviation="1.5" result="effect1_foregroundBlur_1_1157"/>
</filter>
</defs>
</svg>
