<svg width="30" height="30" viewBox="0 0 30 30" fill="none" xmlns="http://www.w3.org/2000/svg">
<circle cx="15" cy="15" r="15" fill="#D9D9D9"/>
<circle cx="15" cy="15" r="15" fill="url(#paint0_linear_1_266)"/>
<path fill-rule="evenodd" clip-rule="evenodd" d="M16.3928 5.1886C16.6103 5.25699 16.8003 5.39299 16.9351 5.57681C17.07 5.76063 17.1427 5.98268 17.1427 6.21067V11.5675H21.4282C21.6241 11.5674 21.8164 11.6211 21.984 11.7226C22.1516 11.8242 22.2881 11.9698 22.3787 12.1436C22.4693 12.3174 22.5104 12.5127 22.4978 12.7082C22.4851 12.9038 22.419 13.0921 22.3067 13.2527L14.8072 23.9663C14.6766 24.1533 14.4899 24.2938 14.274 24.3673C14.0581 24.4408 13.8244 24.4435 13.6069 24.375C13.3894 24.3066 13.1994 24.1705 13.0646 23.9865C12.9298 23.8026 12.8571 23.5805 12.8573 23.3524V17.9956H8.57184C8.37587 17.9957 8.18362 17.9421 8.01603 17.8405C7.84844 17.7389 7.71193 17.5933 7.62134 17.4195C7.53075 17.2457 7.48956 17.0505 7.50225 16.8549C7.51494 16.6593 7.58103 16.471 7.69332 16.3104L15.1928 5.59678C15.3236 5.41014 15.5104 5.27003 15.7262 5.19682C15.942 5.12361 16.1755 5.1211 16.3928 5.18967V5.1886Z" fill="#141414"/>
<defs>
<linearGradient id="paint0_linear_1_266" x1="4.29645e-07" y1="30" x2="35.4545" y2="20.6227" gradientUnits="userSpaceOnUse">
<stop stop-color="#20D691"/>
<stop offset="1" stop-color="#7AE5B5"/>
</linearGradient>
</defs>
</svg>
