<svg width="30" height="30" viewBox="0 0 30 30" fill="none" xmlns="http://www.w3.org/2000/svg">
<circle cx="15" cy="15" r="15" fill="url(#paint0_linear_1_281)"/>
<circle cx="15" cy="15" r="15" fill="url(#paint1_linear_1_281)"/>
<circle cx="15" cy="15" r="15" fill="url(#paint2_linear_1_281)"/>
<path fill-rule="evenodd" clip-rule="evenodd" d="M11.25 11.25V10.3125C11.25 9.56658 11.5463 8.85121 12.0738 8.32376C12.6012 7.79632 13.3166 7.5 14.0625 7.5H15.9375C16.6834 7.5 17.3988 7.79632 17.9262 8.32376C18.4537 8.85121 18.75 9.56658 18.75 10.3125V11.25H20.625C21.1223 11.25 21.5992 11.4475 21.9508 11.7992C22.3025 12.1508 22.5 12.6277 22.5 13.125V16.4719C20.0996 17.3613 17.5598 17.8153 15 17.8125C12.4402 17.8153 9.90034 17.3614 7.5 16.4719V13.125C7.5 12.6277 7.69754 12.1508 8.04917 11.7992C8.40081 11.4475 8.87772 11.25 9.375 11.25H11.25ZM13.125 10.3125C13.125 10.0639 13.2238 9.8254 13.3996 9.64959C13.5754 9.47377 13.8139 9.375 14.0625 9.375H15.9375C16.1861 9.375 16.4246 9.47377 16.6004 9.64959C16.7762 9.8254 16.875 10.0639 16.875 10.3125V11.25H13.125V10.3125ZM14.0625 15C14.0625 14.7514 14.1613 14.5129 14.3371 14.3371C14.5129 14.1613 14.7514 14.0625 15 14.0625H15.0094C15.258 14.0625 15.4965 14.1613 15.6723 14.3371C15.8481 14.5129 15.9469 14.7514 15.9469 15C15.9469 15.2486 15.8481 15.4871 15.6723 15.6629C15.4965 15.8387 15.258 15.9375 15.0094 15.9375H15C14.7514 15.9375 14.5129 15.8387 14.3371 15.6629C14.1613 15.4871 14.0625 15.2486 14.0625 15Z" fill="#141414"/>
<path d="M7.5 18.4613V20.6251C7.5 21.1223 7.69754 21.5992 8.04917 21.9509C8.40081 22.3025 8.87772 22.5001 9.375 22.5001H20.625C21.1223 22.5001 21.5992 22.3025 21.9508 21.9509C22.3025 21.5992 22.5 21.1223 22.5 20.6251V18.4613C20.0835 19.2758 17.5501 19.69 15 19.6876C12.3787 19.6876 9.85594 19.2563 7.5 18.4613Z" fill="#141414"/>
<defs>
<linearGradient id="paint0_linear_1_281" x1="30" y1="14.5708" x2="5.80176e-06" y2="14.5837" gradientUnits="userSpaceOnUse">
<stop stop-color="white" stop-opacity="0.6"/>
<stop offset="1" stop-color="white" stop-opacity="0.3"/>
</linearGradient>
<linearGradient id="paint1_linear_1_281" x1="4.29645e-07" y1="30" x2="35.4545" y2="20.6227" gradientUnits="userSpaceOnUse">
<stop stop-color="#A720D6"/>
<stop offset="1" stop-color="#C37AE5"/>
</linearGradient>
<linearGradient id="paint2_linear_1_281" x1="4.29645e-07" y1="30" x2="35.4545" y2="20.6227" gradientUnits="userSpaceOnUse">
<stop stop-color="#D6C420"/>
<stop offset="1" stop-color="#E5DA7A"/>
</linearGradient>
</defs>
</svg>
