<svg width="30" height="30" viewBox="0 0 30 30" fill="none" xmlns="http://www.w3.org/2000/svg">
<circle cx="15" cy="15" r="15" fill="url(#paint0_linear_1_288)"/>
<circle cx="15" cy="15" r="15" fill="url(#paint1_linear_1_288)"/>
<circle cx="15" cy="15" r="15" fill="url(#paint2_linear_1_288)"/>
<circle cx="15" cy="15" r="15" fill="url(#paint3_linear_1_288)"/>
<circle cx="15" cy="15" r="15" fill="url(#paint4_linear_1_288)"/>
<path d="M15.6639 6.77449C15.4879 6.59873 15.2491 6.5 15.0001 6.5C14.7511 6.5 14.5123 6.59873 14.3363 6.77449L7.76358 13.3371C7.59254 13.5139 7.4979 13.7507 7.50004 13.9965C7.50217 14.2423 7.60092 14.4775 7.77501 14.6513C7.9491 14.8251 8.1846 14.9237 8.4308 14.9259C8.67699 14.928 8.91417 14.8335 9.09126 14.6627L9.36637 14.388V20.5625C9.36637 20.8111 9.4653 21.0496 9.64139 21.2254C9.81747 21.4012 10.0563 21.5 10.3053 21.5H12.1832C12.4323 21.5 12.6711 21.4012 12.8472 21.2254C13.0233 21.0496 13.1222 20.8111 13.1222 20.5625V18.6875C13.1222 18.4388 13.2211 18.2004 13.3972 18.0245C13.5733 17.8487 13.8121 17.7499 14.0611 17.7499H15.9391C16.1881 17.7499 16.4269 17.8487 16.603 18.0245C16.7791 18.2004 16.878 18.4388 16.878 18.6875V20.5625C16.878 20.8111 16.9769 21.0496 17.153 21.2254C17.3291 21.4012 17.5679 21.5 17.817 21.5H19.6949C19.9439 21.5 20.1827 21.4012 20.3588 21.2254C20.5349 21.0496 20.6338 20.8111 20.6338 20.5625V14.388L20.9089 14.6627C21.086 14.8335 21.3232 14.928 21.5694 14.9259C21.8156 14.9237 22.0511 14.8251 22.2252 14.6513C22.3993 14.4775 22.498 14.2423 22.5002 13.9965C22.5023 13.7507 22.4077 13.5139 22.2366 13.3371L15.6639 6.77449Z" fill="#141414"/>
<defs>
<linearGradient id="paint0_linear_1_288" x1="30" y1="14.5708" x2="5.80176e-06" y2="14.5837" gradientUnits="userSpaceOnUse">
<stop stop-color="white" stop-opacity="0.6"/>
<stop offset="1" stop-color="white" stop-opacity="0.3"/>
</linearGradient>
<linearGradient id="paint1_linear_1_288" x1="4.29645e-07" y1="30" x2="35.4545" y2="20.6227" gradientUnits="userSpaceOnUse">
<stop stop-color="#A720D6"/>
<stop offset="1" stop-color="#C37AE5"/>
</linearGradient>
<linearGradient id="paint2_linear_1_288" x1="4.29645e-07" y1="30" x2="35.4545" y2="20.6227" gradientUnits="userSpaceOnUse">
<stop stop-color="#D6C420"/>
<stop offset="1" stop-color="#E5DA7A"/>
</linearGradient>
<linearGradient id="paint3_linear_1_288" x1="4.29645e-07" y1="30" x2="35.4545" y2="20.6227" gradientUnits="userSpaceOnUse">
<stop stop-color="#20D6CB"/>
<stop offset="1" stop-color="#7AE5DF"/>
</linearGradient>
<linearGradient id="paint4_linear_1_288" x1="4.29645e-07" y1="30" x2="35.4545" y2="20.6227" gradientUnits="userSpaceOnUse">
<stop offset="0.0001" stop-color="#D67720"/>
<stop offset="1" stop-color="#E5AD7A"/>
</linearGradient>
</defs>
</svg>
