<svg width="30" height="30" viewBox="0 0 30 30" fill="none" xmlns="http://www.w3.org/2000/svg">
<circle cx="15" cy="15" r="15" fill="url(#paint0_linear_1_276)"/>
<circle cx="15" cy="15" r="15" fill="url(#paint1_linear_1_276)"/>
<path fill-rule="evenodd" clip-rule="evenodd" d="M12.8502 8.27449C13.0259 8.4503 13.1247 8.68872 13.1247 8.93731C13.1247 9.18591 13.0259 9.42432 12.8502 9.60013L10.7005 11.7498H15.9374C17.6779 11.7498 19.3471 12.4413 20.5779 13.672C21.8086 14.9027 22.5 16.5719 22.5 18.3124V20.1875C22.5 20.4361 22.4012 20.6746 22.2254 20.8504C22.0496 21.0262 21.8111 21.125 21.5625 21.125C21.3138 21.125 21.0754 21.0262 20.8996 20.8504C20.7237 20.6746 20.625 20.4361 20.625 20.1875V18.3124C20.625 17.0692 20.1311 15.8769 19.252 14.9978C18.3729 14.1187 17.1806 13.6249 15.9374 13.6249H10.7005L12.8502 15.7746C12.9397 15.8611 13.0111 15.9645 13.0603 16.0789C13.1094 16.1933 13.1353 16.3163 13.1364 16.4408C13.1374 16.5653 13.1137 16.6887 13.0666 16.8039C13.0194 16.9192 12.9498 17.0238 12.8618 17.1119C12.7738 17.1999 12.6691 17.2695 12.5539 17.3166C12.4387 17.3638 12.3152 17.3875 12.1907 17.3864C12.0663 17.3853 11.9432 17.3595 11.8289 17.3103C11.7145 17.2612 11.611 17.1898 11.5245 17.1002L7.77449 13.3502C7.59873 13.1744 7.5 12.936 7.5 12.6874C7.5 12.4388 7.59873 12.2004 7.77449 12.0245L11.5245 8.27449C11.7004 8.09873 11.9388 8 12.1874 8C12.436 8 12.6744 8.09873 12.8502 8.27449Z" fill="#141414"/>
<defs>
<linearGradient id="paint0_linear_1_276" x1="30" y1="14.5708" x2="5.80176e-06" y2="14.5837" gradientUnits="userSpaceOnUse">
<stop stop-color="white" stop-opacity="0.6"/>
<stop offset="1" stop-color="white" stop-opacity="0.3"/>
</linearGradient>
<linearGradient id="paint1_linear_1_276" x1="4.29645e-07" y1="30" x2="35.4545" y2="20.6227" gradientUnits="userSpaceOnUse">
<stop stop-color="#A720D6"/>
<stop offset="1" stop-color="#C37AE5"/>
</linearGradient>
</defs>
</svg>
