<svg width="30" height="30" viewBox="0 0 30 30" fill="none" xmlns="http://www.w3.org/2000/svg">
<circle cx="15" cy="15" r="15" fill="url(#paint0_linear_1_271)"/>
<path d="M11.25 15.075C11.25 15.5722 11.0525 16.0491 10.7008 16.4008C10.3492 16.7524 9.87228 16.95 9.375 16.95C8.87772 16.95 8.40081 16.7524 8.04917 16.4008C7.69754 16.0491 7.5 15.5722 7.5 15.075C7.5 14.5777 7.69754 14.1008 8.04917 13.7491C8.40081 13.3975 8.87772 13.2 9.375 13.2C9.87228 13.2 10.3492 13.3975 10.7008 13.7491C11.0525 14.1008 11.25 14.5777 11.25 15.075ZM16.875 15.075C16.875 15.5722 16.6775 16.0491 16.3258 16.4008C15.9742 16.7524 15.4973 16.95 15 16.95C14.5027 16.95 14.0258 16.7524 13.6742 16.4008C13.3225 16.0491 13.125 15.5722 13.125 15.075C13.125 14.5777 13.3225 14.1008 13.6742 13.7491C14.0258 13.3975 14.5027 13.2 15 13.2C15.4973 13.2 15.9742 13.3975 16.3258 13.7491C16.6775 14.1008 16.875 14.5777 16.875 15.075ZM20.625 16.95C21.1223 16.95 21.5992 16.7524 21.9508 16.4008C22.3025 16.0491 22.5 15.5722 22.5 15.075C22.5 14.5777 22.3025 14.1008 21.9508 13.7491C21.5992 13.3975 21.1223 13.2 20.625 13.2C20.1277 13.2 19.6508 13.3975 19.2992 13.7491C18.9475 14.1008 18.75 14.5777 18.75 15.075C18.75 15.5722 18.9475 16.0491 19.2992 16.4008C19.6508 16.7524 20.1277 16.95 20.625 16.95Z" fill="#141414"/>
<defs>
<linearGradient id="paint0_linear_1_271" x1="30" y1="14.5708" x2="5.80176e-06" y2="14.5837" gradientUnits="userSpaceOnUse">
<stop stop-color="white" stop-opacity="0.6"/>
<stop offset="1" stop-color="white" stop-opacity="0.3"/>
</linearGradient>
</defs>
</svg>
